<svg width="518" height="115" viewBox="0 0 518 115" fill="none" xmlns="http://www.w3.org/2000/svg">
<path d="M220.71 77C218.788 79.3615 216.357 81.2587 213.6 82.55C210.83 83.7597 207.847 84.4049 204.825 84.4478C201.803 84.4907 198.803 83.9305 196 82.8C193.478 81.7639 191.188 80.2378 189.26 78.3101C187.332 76.3825 185.806 74.0915 184.77 71.57C182.57 66.1929 182.57 60.1671 184.77 54.79C185.807 52.2655 187.333 49.971 189.261 48.0385C191.188 46.1061 193.478 44.5739 196 43.53C198.676 42.4143 201.551 41.853 204.45 41.88C207.326 41.7844 210.187 42.3329 212.824 43.4852C215.461 44.6375 217.806 46.3645 219.69 48.54L214.28 53.77C213.111 52.3995 211.692 51.2628 210.1 50.42C208.367 49.5423 206.442 49.1093 204.5 49.16C202.673 49.1515 200.86 49.4909 199.16 50.16C197.532 50.8016 196.052 51.7679 194.81 53C193.547 54.2586 192.551 55.7584 191.88 57.41C190.442 61.1257 190.442 65.2443 191.88 68.96C192.549 70.6099 193.546 72.1068 194.81 73.36C196.054 74.5845 197.534 75.5438 199.16 76.18C200.86 76.8491 202.673 77.1885 204.5 77.18C206.604 77.223 208.685 76.7455 210.56 75.79C212.383 74.7957 213.98 73.4336 215.25 71.79L220.71 77Z" fill="#00A1EF"/>
<path d="M204.45 84.83C201.496 84.8567 198.567 84.2852 195.84 83.15C193.27 82.0918 190.935 80.5352 188.97 78.57C187.005 76.6048 185.448 74.2699 184.39 71.7C183.242 69.0769 182.628 66.2515 182.584 63.3886C182.54 60.5258 183.066 57.6828 184.132 55.0253C185.197 52.3679 186.781 49.9492 188.792 47.9104C190.802 45.8715 193.198 44.2533 195.84 43.15C198.569 42.0195 201.496 41.4482 204.45 41.47C207.469 41.4126 210.464 42.0096 213.23 43.22C215.806 44.3992 218.108 46.102 219.99 48.22L220.26 48.52L214.26 54.33L214 54C212.861 52.6702 211.484 51.5646 209.94 50.74C208.262 49.9035 206.404 49.4914 204.53 49.54C202.752 49.5408 200.991 49.8802 199.34 50.54C197.766 51.1558 196.334 52.0846 195.13 53.27C193.906 54.4884 192.941 55.9406 192.29 57.54C190.89 61.1525 190.89 65.1575 192.29 68.77C192.936 70.3526 193.892 71.7906 195.1 73C196.302 74.1856 197.735 75.1114 199.31 75.72C200.961 76.3798 202.722 76.7192 204.5 76.72C206.538 76.7593 208.554 76.2956 210.37 75.37C212.14 74.4199 213.693 73.1122 214.93 71.53L215.21 71.18L221.27 76.93L221.03 77.22C219.068 79.6265 216.591 81.5609 213.78 82.88C210.85 84.204 207.665 84.8696 204.45 84.83ZM204.45 42.3C201.607 42.2753 198.787 42.8228 196.16 43.91C193.694 44.9429 191.45 46.44 189.55 48.32C187.668 50.2165 186.173 52.4617 185.15 54.93C182.99 60.2006 182.99 66.1094 185.15 71.38C186.164 73.8504 187.659 76.0949 189.547 77.9831C191.435 79.8714 193.68 81.3659 196.15 82.38C198.9 83.4904 201.845 84.0403 204.81 83.9974C207.776 83.9545 210.703 83.3196 213.42 82.13C216.003 80.9237 218.295 79.1739 220.14 77L215.29 72.4C214.033 73.9207 212.491 75.181 210.75 76.11C208.817 77.0969 206.67 77.5915 204.5 77.55C202.62 77.5688 200.753 77.2294 199 76.55C197.328 75.893 195.804 74.9068 194.52 73.65C193.223 72.3511 192.203 70.8034 191.52 69.1C190.04 65.2851 190.04 61.0549 191.52 57.24C192.206 55.5409 193.226 53.997 194.52 52.7C195.801 51.4397 197.326 50.4531 199 49.8C200.753 49.1208 202.62 48.7814 204.5 48.8C206.51 48.7535 208.502 49.1998 210.3 50.1C211.799 50.9083 213.151 51.963 214.3 53.22L219.1 48.57C217.357 46.6461 215.245 45.092 212.89 44C210.232 42.8319 207.353 42.252 204.45 42.3Z" fill="#00A1EF"/>
<path d="M225.37 55.65H232.37V59.51H232.82C233.173 58.8167 233.635 58.1851 234.19 57.64C234.76 57.0672 235.398 56.5668 236.09 56.15C236.808 55.7291 237.574 55.3935 238.37 55.15C239.148 54.8956 239.961 54.764 240.78 54.76C241.634 54.7411 242.486 54.8456 243.31 55.07C243.947 55.2522 244.554 55.5286 245.11 55.89L243.11 62.55C242.629 62.312 242.123 62.1308 241.6 62.01C240.944 61.8631 240.272 61.7959 239.6 61.81C238.637 61.7978 237.683 62.0029 236.81 62.41C235.982 62.8065 235.254 63.3841 234.68 64.1C234.073 64.8553 233.612 65.7165 233.32 66.64C232.984 67.6626 232.818 68.7336 232.83 69.81V83.51H225.38L225.37 55.65Z" fill="#00A1EF"/>
<path d="M233.23 83.92H225V55.23H232.82V58.74C233.138 58.2347 233.514 57.7682 233.94 57.35C234.536 56.7481 235.208 56.227 235.94 55.8C236.683 55.3533 237.475 54.9942 238.3 54.73C239.986 54.2027 241.79 54.1784 243.49 54.66C244.167 54.8505 244.812 55.1439 245.4 55.53L245.65 55.7L243.43 63.12L242.99 62.9C242.536 62.6793 242.06 62.5083 241.57 62.39C240.94 62.2494 240.295 62.1856 239.65 62.2C238.749 62.1883 237.857 62.3797 237.04 62.76C236.263 63.1301 235.58 63.6701 235.04 64.34C234.466 65.0578 234.029 65.8746 233.75 66.75C233.435 67.7187 233.276 68.7314 233.28 69.75L233.23 83.92ZM225.79 83.1H232.41V69.79C232.402 68.6705 232.57 67.5568 232.91 66.49C233.223 65.5165 233.711 64.6084 234.35 63.81C234.963 63.0454 235.738 62.4271 236.62 62C237.558 61.5599 238.584 61.341 239.62 61.36C240.332 61.3487 241.044 61.4192 241.74 61.57C242.133 61.66 242.518 61.7838 242.89 61.94L244.65 56.04C244.205 55.7763 243.728 55.5713 243.23 55.43C241.687 54.9934 240.05 55.0177 238.52 55.5C237.755 55.7509 237.021 56.0863 236.33 56.5C235.671 56.9058 235.06 57.3856 234.51 57.93C233.988 58.4471 233.552 59.0447 233.22 59.7L233.11 59.93H232V56.06H225.84L225.79 83.1Z" fill="#00A1EF"/>
<path d="M260 54.74C262.054 54.7085 264.093 55.0858 266 55.85C267.743 56.5517 269.327 57.5956 270.66 58.92C271.991 60.2585 273.036 61.8543 273.73 63.61C275.21 67.4524 275.21 71.7076 273.73 75.55C273.04 77.3032 271.999 78.8963 270.669 80.231C269.34 81.5657 267.75 82.6136 266 83.31C262.175 84.7896 257.935 84.7896 254.11 83.31C252.36 82.6136 250.77 81.5657 249.441 80.231C248.111 78.8963 247.07 77.3032 246.38 75.55C244.9 71.7076 244.9 67.4524 246.38 63.61C247.074 61.8543 248.119 60.2585 249.45 58.92C250.783 57.5956 252.367 56.5517 254.11 55.85C255.982 55.0998 257.983 54.7228 260 54.74ZM260 77.54C260.946 77.5409 261.884 77.3574 262.76 77C263.645 76.646 264.448 76.1152 265.12 75.44C265.828 74.7249 266.38 73.8701 266.74 72.93C267.156 71.863 267.36 70.7251 267.34 69.58C267.359 68.4318 267.155 67.2908 266.74 66.22C266.38 65.2829 265.828 64.4313 265.12 63.72C264.448 63.0448 263.645 62.514 262.76 62.16C261.884 61.8026 260.946 61.6192 260 61.62C259.047 61.6145 258.102 61.798 257.22 62.16C256.348 62.5204 255.556 63.0507 254.89 63.72C254.182 64.4313 253.63 65.2829 253.27 66.22C252.855 67.2908 252.651 68.4318 252.67 69.58C252.65 70.7251 252.854 71.863 253.27 72.93C253.63 73.8701 254.182 74.7249 254.89 75.44C255.556 76.1093 256.348 76.6396 257.22 77C258.102 77.362 259.047 77.5456 260 77.54Z" fill="#00A1EF"/>
<path d="M260 84.83C257.915 84.8536 255.845 84.4662 253.91 83.69C252.099 82.9765 250.454 81.8981 249.078 80.5218C247.702 79.1455 246.624 77.5008 245.91 75.69C244.39 71.7447 244.39 67.3753 245.91 63.43C246.622 61.6186 247.701 59.9734 249.077 58.597C250.453 57.2206 252.099 56.1425 253.91 55.43C257.831 53.9097 262.179 53.9097 266.1 55.43C267.911 56.1425 269.557 57.2206 270.933 58.597C272.309 59.9734 273.388 61.6186 274.1 63.43C275.62 67.3753 275.62 71.7447 274.1 75.69C273.386 77.5008 272.308 79.1455 270.932 80.5218C269.555 81.8981 267.911 82.9765 266.1 83.69C264.161 84.4672 262.088 84.8546 260 84.83ZM260 55.15C258.021 55.1267 256.057 55.4937 254.22 56.23C252.52 56.9046 250.976 57.921 249.684 59.2162C248.392 60.5114 247.38 62.0579 246.71 63.76C245.27 67.5064 245.27 71.6537 246.71 75.4C247.398 77.1008 248.418 78.6475 249.71 79.95C251.004 81.2428 252.545 82.2629 254.24 82.95C257.962 84.3933 262.088 84.3933 265.81 82.95C267.51 82.2754 269.054 81.2591 270.346 79.9639C271.638 78.6686 272.65 77.1221 273.32 75.42C274.76 71.6736 274.76 67.5264 273.32 63.78C272.65 62.0779 271.638 60.5314 270.346 59.2362C269.054 57.941 267.51 56.9246 265.81 56.25C263.965 55.5035 261.99 55.1297 260 55.15ZM260 78C258.992 78.0053 257.993 77.8116 257.06 77.43C256.135 77.0492 255.296 76.4884 254.59 75.78C253.853 75.0205 253.272 74.1235 252.88 73.14C252.059 70.879 252.059 68.4011 252.88 66.14C253.269 65.1527 253.854 64.2545 254.6 63.5C255.3 62.7898 256.137 62.2286 257.06 61.85C258.939 61.0894 261.041 61.0894 262.92 61.85C263.853 62.2305 264.7 62.795 265.41 63.51C266.156 64.2645 266.741 65.1627 267.13 66.15C267.951 68.4111 267.951 70.889 267.13 73.15C266.739 74.1361 266.154 75.0338 265.41 75.79C264.702 76.5053 263.855 77.067 262.92 77.44C261.992 77.8134 261 78.0036 260 78ZM260 62C259.104 61.9963 258.216 62.1712 257.389 62.5146C256.561 62.858 255.81 63.363 255.18 64C254.517 64.6802 253.997 65.486 253.65 66.37C252.89 68.4357 252.89 70.7043 253.65 72.77C253.993 73.653 254.514 74.4562 255.18 75.13C255.806 75.7667 256.554 76.2701 257.38 76.61C259.058 77.2857 260.932 77.2857 262.61 76.61C263.441 76.2693 264.196 75.7661 264.83 75.13C265.496 74.4562 266.017 73.653 266.36 72.77C267.12 70.7043 267.12 68.4357 266.36 66.37C266.013 65.486 265.493 64.6802 264.83 64C264.196 63.3658 263.443 62.8628 262.614 62.5196C261.785 62.1765 260.897 61.9999 260 62Z" fill="#00A1EF"/>
<path d="M276 55.65H284.36L289 73.1H289.39L294.91 55.65H302.59L308.16 73.1H308.56L313.11 55.65H321.35L312.43 83.51H304.43L298.85 65.94H298.46L292.88 83.51H285L276 55.65Z" fill="#00A1EF"/>
<path d="M312.74 83.92H304.12L298.65 66.68L293.18 83.92H284.67L275.48 55.23H284.72L289.22 72.31L294.62 55.23H302.9L308.35 72.31L312.8 55.23H321.93L312.74 83.92ZM304.74 83.1H312.16L320.82 56.1H313.46L308.91 73.56H307.91L302.3 56.06H295.22L289.71 73.52H288.71L284.1 56.06H276.63L285.29 83.06H292.59L298.16 65.49H299.16L304.74 83.1Z" fill="#00A1EF"/>
<path d="M345 80.16H344.55C343.768 81.4227 342.668 82.4573 341.36 83.16C339.718 84.0507 337.867 84.4857 336 84.42C334.442 84.4269 332.898 84.135 331.45 83.56C329.621 82.8111 327.974 81.679 326.62 80.24C325.354 78.8792 324.362 77.2867 323.7 75.55C322.246 71.7028 322.246 67.4573 323.7 63.61C324.36 61.8721 325.352 60.2791 326.62 58.92C327.972 57.4779 329.619 56.3453 331.45 55.6C332.896 55.0207 334.442 54.7286 336 54.74C337.854 54.6814 339.69 55.1163 341.32 56C342.628 56.7027 343.728 57.7374 344.51 59H345L344.55 55V42.79H352V83.51H345V80.16ZM337.55 77.54C338.516 77.5446 339.474 77.3612 340.37 77C341.255 76.646 342.058 76.1152 342.73 75.44C343.435 74.7159 343.995 73.864 344.38 72.93C345.206 70.7697 345.206 68.3803 344.38 66.22C343.995 65.289 343.435 64.4403 342.73 63.72C342.058 63.0448 341.255 62.514 340.37 62.16C339.474 61.7989 338.516 61.6155 337.55 61.62C336.584 61.6167 335.628 61.8106 334.74 62.19C333.858 62.5632 333.057 63.1031 332.38 63.78C331.675 64.5003 331.115 65.349 330.73 66.28C329.894 68.4006 329.894 70.7594 330.73 72.88C331.115 73.8111 331.675 74.6597 332.38 75.38C333.043 76.0634 333.83 76.6134 334.7 77C335.59 77.3691 336.546 77.5529 337.51 77.54H337.55Z" fill="#00A1EF"/>
<path d="M336 84.83C334.395 84.8315 332.803 84.5295 331.31 83.94C329.414 83.1771 327.708 82.01 326.31 80.52C325.015 79.1167 323.997 77.4814 323.31 75.7C321.83 71.7542 321.83 67.4058 323.31 63.46C324 61.6768 325.017 60.0386 326.31 58.63C327.71 57.1451 329.416 55.9816 331.31 55.22C332.801 54.6207 334.393 54.3151 336 54.32C337.926 54.2675 339.832 54.7191 341.53 55.63C342.668 56.2616 343.663 57.1232 344.45 58.16L344.1 55.07V42.38H352.37V83.92H344.55V80.86C343.756 81.9572 342.732 82.8683 341.55 83.53C339.852 84.44 337.945 84.8883 336.02 84.83H336ZM336 55.15C334.501 55.1471 333.014 55.4287 331.62 55.98C329.844 56.705 328.245 57.8031 326.93 59.2C325.705 60.528 324.742 62.075 324.09 63.76C322.69 67.5136 322.69 71.6464 324.09 75.4C324.734 77.0984 325.694 78.6593 326.92 80C328.23 81.3993 329.831 82.495 331.61 83.21C333.008 83.7549 334.499 84.0231 336 84C337.786 84.0576 339.555 83.6437 341.13 82.8C342.364 82.1268 343.399 81.1403 344.13 79.94L344.25 79.73H345.36V83.1H351.53V43.21H344.9V55L345.41 59.39H344.25L344.13 59.19C343.399 57.9897 342.364 57.0032 341.13 56.33C339.56 55.4827 337.793 55.0685 336.01 55.13L336 55.15ZM337.51 78C336.479 78.0091 335.458 77.8048 334.51 77.4C333.578 77.0087 332.732 76.4378 332.02 75.72C331.274 74.9366 330.693 74.0118 330.31 73C329.43 70.7773 329.43 68.3028 330.31 66.08C330.712 65.0978 331.303 64.2042 332.05 63.45C332.762 62.7322 333.608 62.1613 334.54 61.77C336.444 60.9952 338.576 60.9952 340.48 61.77C341.415 62.1526 342.265 62.7168 342.98 63.43C343.722 64.1877 344.313 65.0804 344.72 66.06C345.589 68.3124 345.589 70.8076 344.72 73.06C344.325 74.0529 343.741 74.9597 343 75.73C342.287 76.4434 341.436 77.0047 340.5 77.38C339.554 77.7814 338.538 77.9921 337.51 78ZM337.51 62.08C336.599 62.0774 335.697 62.2612 334.86 62.62C334.026 62.969 333.268 63.4787 332.63 64.12C331.961 64.8012 331.431 65.6062 331.07 66.49C330.283 68.5094 330.283 70.7506 331.07 72.77C331.434 73.6525 331.963 74.4571 332.63 75.14C333.268 75.7813 334.026 76.291 334.86 76.64C336.563 77.3299 338.467 77.3299 340.17 76.64C341.005 76.3019 341.764 75.7985 342.4 75.16C343.084 74.4755 343.628 73.6635 344 72.77C344.787 70.7161 344.787 68.4439 344 66.39C343.627 65.497 343.084 64.6852 342.4 64C341.761 63.3678 341.003 62.8682 340.17 62.53C339.326 62.1816 338.423 62.0016 337.51 62V62.08Z" fill="#00A1EF"/>
<path d="M406.21 77C404.288 79.3615 401.857 81.2586 399.1 82.55C396.33 83.7597 393.347 84.4049 390.325 84.4478C387.303 84.4907 384.303 83.9305 381.5 82.8C378.978 81.7639 376.688 80.2378 374.76 78.3101C372.832 76.3825 371.306 74.0915 370.27 71.57C368.07 66.1929 368.07 60.1671 370.27 54.79C371.307 52.2655 372.833 49.971 374.761 48.0385C376.688 46.1061 378.978 44.5739 381.5 43.53C384.173 42.4151 387.044 41.8538 389.94 41.88C392.903 41.8179 395.845 42.4014 398.56 43.59C401.088 44.7654 403.345 46.4506 405.19 48.54L399.78 53.77C398.611 52.3995 397.192 51.2628 395.6 50.42C393.867 49.5423 391.942 49.1093 390 49.16C388.173 49.1505 386.36 49.4899 384.66 50.16C383.032 50.8016 381.552 51.7679 380.31 53C379.047 54.2586 378.051 55.7584 377.38 57.41C375.942 61.1257 375.942 65.2443 377.38 68.96C378.049 70.6099 379.046 72.1068 380.31 73.36C381.554 74.5844 383.034 75.5438 384.66 76.18C386.36 76.8501 388.173 77.1895 390 77.18C392.104 77.223 394.185 76.7455 396.06 75.79C397.882 74.794 399.479 73.4322 400.75 71.79L406.21 77Z" fill="#00A1EF"/>
<path d="M389.94 84.83C386.989 84.8559 384.064 84.2844 381.34 83.15C378.77 82.0918 376.435 80.5352 374.47 78.57C372.505 76.6048 370.948 74.2699 369.89 71.7C367.65 66.22 367.65 60.08 369.89 54.6C370.948 52.0301 372.505 49.6952 374.47 47.7299C376.435 45.7647 378.77 44.2081 381.34 43.15C384.065 42.0203 386.99 41.449 389.94 41.47C392.962 41.4115 395.961 42.0085 398.73 43.22C401.306 44.3992 403.608 46.102 405.49 48.22L405.76 48.52L399.76 54.33L399.47 54C398.331 52.6702 396.954 51.5646 395.41 50.74C393.732 49.9034 391.874 49.4914 390 49.54C388.222 49.5408 386.461 49.8801 384.81 50.54C383.236 51.1558 381.804 52.0846 380.6 53.27C379.376 54.4884 378.411 55.9405 377.76 57.54C376.36 61.1524 376.36 65.1575 377.76 68.77C378.415 70.3551 379.381 71.7933 380.6 73C381.802 74.1856 383.235 75.1114 384.81 75.72C386.461 76.3798 388.222 76.7192 390 76.72C392.038 76.7593 394.054 76.2956 395.87 75.37C397.638 74.4172 399.19 73.11 400.43 71.53L400.71 71.18L406.77 76.93L406.53 77.22C404.567 79.6291 402.085 81.5639 399.27 82.88C396.34 84.2058 393.155 84.8716 389.94 84.83ZM389.94 42.3C387.1 42.2761 384.284 42.8236 381.66 43.91C379.191 44.9269 376.948 46.4224 375.06 48.3104C373.172 50.1983 371.677 52.4413 370.66 54.91C368.5 60.1806 368.5 66.0894 370.66 71.36C371.674 73.8304 373.169 76.0749 375.057 77.9631C376.945 79.8514 379.19 81.3459 381.66 82.36C384.41 83.4704 387.355 84.0203 390.32 83.9774C393.286 83.9345 396.213 83.2996 398.93 82.11C401.508 80.9083 403.796 79.1655 405.64 77L400.79 72.4C399.533 73.9207 397.991 75.181 396.25 76.11C394.317 77.0969 392.17 77.5915 390 77.55C388.12 77.5688 386.253 77.2294 384.5 76.55C382.828 75.893 381.304 74.9068 380.02 73.65C378.723 72.3511 377.703 70.8034 377.02 69.1C375.527 65.2876 375.527 61.0523 377.02 57.24C377.706 55.5409 378.726 53.997 380.02 52.7C381.301 51.4397 382.826 50.453 384.5 49.8C386.253 49.1208 388.12 48.7814 390 48.8C392.01 48.7535 394.002 49.1998 395.8 50.1C397.299 50.9083 398.651 51.963 399.8 53.22L404.6 48.57C402.857 46.6461 400.745 45.092 398.39 44C395.729 42.8308 392.846 42.2509 389.94 42.3Z" fill="#00A1EF"/>
<path d="M410.87 83.51V42.79H418.32V83.51H410.87Z" fill="#00A1EF"/>
<path d="M418.73 83.92H410.46V42.38H418.73V83.92ZM411.28 83.1H417.91V43.21H411.28V83.1Z" fill="#00A1EF"/>
<path d="M437.6 54.74C439.634 54.7162 441.652 55.0934 443.54 55.85C445.291 56.5483 446.88 57.5968 448.211 58.9312C449.542 60.2656 450.586 61.8577 451.28 63.61C452.747 67.4549 452.747 71.7051 451.28 75.55C450.586 77.3023 449.542 78.8945 448.211 80.2288C446.88 81.5632 445.291 82.6117 443.54 83.31C439.718 84.7899 435.482 84.7899 431.66 83.31C429.907 82.6158 428.315 81.5688 426.984 80.2339C425.653 78.899 424.61 77.3047 423.92 75.55C422.44 71.7076 422.44 67.4524 423.92 63.61C424.61 61.8553 425.653 60.261 426.984 58.9261C428.315 57.5912 429.907 56.5442 431.66 55.85C433.548 55.0934 435.566 54.7162 437.6 54.74ZM437.6 77.54C438.546 77.5409 439.484 77.3574 440.36 77C441.243 76.6426 442.045 76.1122 442.72 75.44C443.422 74.7196 443.973 73.8662 444.34 72.93C444.756 71.863 444.96 70.7251 444.94 69.58C444.959 68.4318 444.755 67.2908 444.34 66.22C443.973 65.2867 443.422 64.4366 442.72 63.72C442.045 63.0478 441.243 62.5174 440.36 62.16C438.58 61.44 436.59 61.44 434.81 62.16C433.938 62.5204 433.146 63.0507 432.48 63.72C431.778 64.4366 431.227 65.2867 430.86 66.22C430.445 67.2908 430.241 68.4318 430.26 69.58C430.24 70.7251 430.444 71.863 430.86 72.93C431.227 73.8662 431.778 74.7196 432.48 75.44C433.146 76.1093 433.938 76.6396 434.81 77C435.695 77.3631 436.643 77.5466 437.6 77.54Z" fill="#00A1EF"/>
<path d="M437.6 84.83C435.512 84.8535 433.439 84.4662 431.5 83.69C429.689 82.9765 428.044 81.898 426.668 80.5218C425.292 79.1455 424.214 77.5008 423.5 75.69C421.98 71.7447 421.98 67.3753 423.5 63.43C424.212 61.6186 425.291 59.9733 426.667 58.5969C428.043 57.2205 429.689 56.1425 431.5 55.43C435.425 53.91 439.775 53.91 443.7 55.43C445.511 56.1425 447.157 57.2205 448.533 58.5969C449.909 59.9733 450.988 61.6186 451.7 63.43C453.22 67.3753 453.22 71.7447 451.7 75.69C450.986 77.5008 449.908 79.1455 448.532 80.5218C447.156 81.898 445.511 82.9765 443.7 83.69C441.761 84.4662 439.688 84.8535 437.6 84.83ZM437.6 55.15C435.618 55.1267 433.65 55.4937 431.81 56.23C430.112 56.9068 428.571 57.924 427.281 59.219C425.991 60.514 424.98 62.0594 424.31 63.76C422.87 67.5064 422.87 71.6536 424.31 75.4C424.98 77.1006 425.991 78.6459 427.281 79.941C428.571 81.236 430.112 82.2532 431.81 82.93C435.536 84.37 439.664 84.37 443.39 82.93C445.08 82.2389 446.617 81.2192 447.91 79.93C449.211 78.6345 450.232 77.0859 450.91 75.38C452.35 71.6336 452.35 67.4864 450.91 63.74C450.232 62.0341 449.211 60.4855 447.91 59.19C446.619 57.8974 445.082 56.8773 443.39 56.19C441.547 55.4673 439.58 55.114 437.6 55.15ZM437.6 77.95C436.596 77.9605 435.599 77.7695 434.67 77.3882C433.741 77.0069 432.897 76.443 432.19 75.73C431.446 74.9758 430.864 74.0774 430.48 73.09C429.645 70.8314 429.645 68.3486 430.48 66.09C430.865 65.1033 431.447 64.2051 432.19 63.45C432.892 62.7419 433.728 62.181 434.65 61.8C436.529 61.0394 438.631 61.0394 440.51 61.8C441.445 62.1826 442.295 62.7468 443.01 63.46C443.753 64.2151 444.335 65.1133 444.72 66.1C445.555 68.3586 445.555 70.8414 444.72 73.1C444.332 74.0847 443.746 74.9796 443 75.73C442.287 76.4434 441.436 77.0047 440.5 77.38C439.583 77.7736 438.598 77.9842 437.6 78V77.95ZM437.6 62.03C436.698 62.0252 435.805 62.1985 434.97 62.54C434.147 62.8798 433.399 63.3794 432.77 64.01C432.107 64.6902 431.587 65.496 431.24 66.38C430.493 68.4479 430.493 70.712 431.24 72.78C431.587 73.6611 432.107 74.4636 432.77 75.14C433.396 75.7766 434.144 76.2801 434.97 76.62C436.648 77.2957 438.522 77.2957 440.2 76.62C441.035 76.2819 441.794 75.7785 442.43 75.14C443.107 74.4672 443.641 73.6644 444 72.78C444.747 70.712 444.747 68.4479 444 66.38C443.639 65.4909 443.105 64.6821 442.43 64C441.794 63.3644 441.035 62.8644 440.2 62.53C439.376 62.1863 438.493 62.0063 437.6 62V62.03Z" fill="#00A1EF"/>
<path d="M476.16 79.87H475.7C474.834 81.2692 473.617 82.4173 472.17 83.2C470.615 84.0323 468.873 84.4523 467.11 84.42C463.59 84.42 460.96 83.34 459.24 81.18C457.406 78.6851 456.491 75.6326 456.65 72.54V55.65H464.1V71.65C463.967 73.2526 464.446 74.8462 465.44 76.11C465.947 76.6162 466.556 77.0076 467.227 77.2578C467.899 77.508 468.616 77.611 469.33 77.56C470.271 77.5801 471.201 77.3562 472.03 76.91C472.815 76.4687 473.497 75.8653 474.03 75.14C474.604 74.3544 475.028 73.4695 475.28 72.53C475.574 71.4821 475.718 70.3982 475.71 69.31V55.65H483.16V83.51H476.16V79.87Z" fill="#00A1EF"/>
<path d="M467.11 84.83C463.47 84.83 460.71 83.69 458.91 81.44C457.033 78.8638 456.091 75.7241 456.24 72.54V55.23H464.51V71.63C464.389 73.1275 464.827 74.6169 465.74 75.81C466.211 76.271 466.775 76.6269 467.394 76.8544C468.012 77.0819 468.672 77.1759 469.33 77.13C470.201 77.1513 471.063 76.9445 471.83 76.53C472.558 76.1159 473.192 75.5538 473.69 74.88C474.236 74.1299 474.639 73.2859 474.88 72.39C475.158 71.3803 475.296 70.3372 475.29 69.29V55.23H483.56V83.92H475.74V80.56C474.864 81.8073 473.71 82.8342 472.37 83.56C470.755 84.4274 468.943 84.8648 467.11 84.83ZM457.06 56.06V72.54C456.906 75.5375 457.789 78.4966 459.56 80.92C461.2 82.92 463.74 84.01 467.11 84.01C468.813 84.0393 470.495 83.6368 472 82.84C473.379 82.0843 474.54 80.9855 475.37 79.65L475.49 79.46H476.59V83.1H482.76V56.1H476.13V69.29C476.136 70.4149 475.988 71.5354 475.69 72.62C475.42 73.6091 474.973 74.5409 474.37 75.37C473.803 76.1386 473.081 76.7792 472.25 77.25C471.361 77.7313 470.361 77.9726 469.35 77.95C468.578 77.9999 467.804 77.8848 467.08 77.6123C466.356 77.3399 465.698 76.9164 465.15 76.37C464.093 75.0264 463.579 73.3347 463.71 71.63V56.06H457.06Z" fill="#00A1EF"/>
<path d="M510 80.16H509.55C508.766 81.4206 507.666 82.4546 506.36 83.16C504.717 84.0489 502.867 84.4838 501 84.42C499.446 84.4259 497.905 84.134 496.46 83.56C494.629 82.8161 492.981 81.6833 491.63 80.24C490.364 78.8772 489.37 77.2854 488.7 75.55C487.256 71.7009 487.256 67.4591 488.7 63.61C489.367 61.8734 490.362 60.2812 491.63 58.92C492.978 57.4735 494.627 56.3402 496.46 55.6C497.906 55.0207 499.452 54.7286 501.01 54.74C502.87 54.6793 504.713 55.1142 506.35 56C507.656 56.7054 508.756 57.7395 509.54 59H510L509.55 55V42.79H517V83.51H510V80.16ZM502.55 77.54C503.516 77.5446 504.474 77.3612 505.37 77C506.253 76.6426 507.055 76.1122 507.73 75.44C508.435 74.7159 508.995 73.864 509.38 72.93C509.807 71.8657 510.018 70.7268 510 69.58C510.017 68.4301 509.806 67.2881 509.38 66.22C508.995 65.289 508.435 64.4403 507.73 63.72C507.055 63.0478 506.253 62.5174 505.37 62.16C504.474 61.7989 503.516 61.6155 502.55 61.62C501.584 61.6167 500.628 61.8106 499.74 62.19C498.858 62.5632 498.057 63.1031 497.38 63.78C496.669 64.4951 496.108 65.3451 495.73 66.28C494.894 68.4006 494.894 70.7594 495.73 72.88C496.108 73.8149 496.669 74.6649 497.38 75.38C498.051 76.0666 498.849 76.6167 499.73 77C500.62 77.3691 501.576 77.5529 502.54 77.54H502.55Z" fill="#00A1EF"/>
<path d="M501 84.83C499.394 84.8325 497.803 84.5305 496.31 83.94C494.414 83.1771 492.708 82.01 491.31 80.52C490.012 79.119 488.994 77.483 488.31 75.7C486.83 71.7542 486.83 67.4058 488.31 63.46C488.993 61.6735 490.011 60.034 491.31 58.63C492.711 57.1463 494.417 55.9831 496.31 55.22C497.806 54.6149 499.406 54.3091 501.02 54.32C502.946 54.2699 504.851 54.7213 506.55 55.63C507.687 56.264 508.681 57.1252 509.47 58.16L509.12 55.07V42.38H517.4V83.92H509.58V80.86C508.786 81.9572 507.762 82.8683 506.58 83.53C504.879 84.4418 502.969 84.8901 501.04 84.83H501ZM501 55.15C499.504 55.1471 498.021 55.4288 496.63 55.98C494.874 56.7097 493.295 57.8078 492 59.2C490.77 60.5238 489.805 62.0719 489.16 63.76C487.747 67.5113 487.747 71.6487 489.16 75.4C489.803 77.1011 490.768 78.6627 492 80C493.309 81.3969 494.906 82.4923 496.68 83.21C498.052 83.761 499.522 84.0297 501 84C502.786 84.0566 504.555 83.6428 506.13 82.8C507.364 82.1268 508.399 81.1403 509.13 79.94L509.25 79.73H510.35V83.1H516.52V43.21H510V55L510.5 59.39H509.3L509.18 59.19C508.449 57.9897 507.414 57.0032 506.18 56.33C504.611 55.4804 502.843 55.0661 501.06 55.13L501 55.15ZM502.54 78C501.524 78.001 500.518 77.7999 499.581 77.4085C498.644 77.017 497.793 76.4431 497.08 75.72C496.323 74.9393 495.732 74.0143 495.34 73C494.46 70.7773 494.46 68.3028 495.34 66.08C495.74 65.0966 496.331 64.2025 497.08 63.45C497.79 62.7346 498.632 62.1641 499.56 61.77C501.468 60.9946 503.602 60.9946 505.51 61.77C506.445 62.1526 507.295 62.7168 508.01 63.43C508.752 64.1877 509.343 65.0804 509.75 66.06C510.609 68.3143 510.609 70.8057 509.75 73.06C509.347 74.0561 508.753 74.9632 508 75.73C507.287 76.4434 506.436 77.0047 505.5 77.38C504.563 77.7775 503.558 77.9882 502.54 78ZM502.54 62.08C501.629 62.0766 500.727 62.2604 499.89 62.62C499.056 62.969 498.298 63.4787 497.66 64.12C496.991 64.8012 496.461 65.6062 496.1 66.49C495.313 68.5094 495.313 70.7506 496.1 72.77C496.461 73.6538 496.991 74.4588 497.66 75.14C498.298 75.7813 499.056 76.291 499.89 76.64C501.593 77.3299 503.497 77.3299 505.2 76.64C506.034 76.2995 506.792 75.7964 507.43 75.16C508.101 74.4711 508.634 73.6598 509 72.77C509.786 70.7126 509.786 68.4374 509 66.38C508.63 65.4957 508.097 64.6885 507.43 64C506.791 63.3678 506.033 62.8682 505.2 62.53C504.356 62.1816 503.453 62.0016 502.54 62V62.08Z" fill="#00A1EF"/>
<path d="M162.67 81.25C162.632 77.7271 161.979 74.238 160.74 70.94C159.166 67.1025 157.062 63.5043 154.49 60.25C154.389 60.1095 154.254 59.9974 154.097 59.9248C153.941 59.8522 153.768 59.8214 153.595 59.8355C153.423 59.8496 153.257 59.9081 153.115 60.0053C152.972 60.1024 152.856 60.235 152.78 60.39C151.036 63.3304 148.97 66.0673 146.62 68.55C146.449 68.7176 146.344 68.941 146.324 69.1796C146.304 69.4181 146.37 69.656 146.51 69.85C148.51 72.85 150.57 77.55 150.85 80.85C151.084 83.5671 150.752 86.3033 149.874 88.8853C148.996 91.4673 147.592 93.8389 145.75 95.85C143.971 97.8238 141.798 99.4026 139.371 100.484C136.944 101.566 134.317 102.127 131.66 102.13C120.54 102.13 109.22 102.13 98.28 102.13H36.91C24.63 102.13 15.03 94.34 12.45 82.3C11.8029 79.0864 11.8241 75.774 12.5122 72.5689C13.2004 69.3639 14.5408 66.3347 16.45 63.67C18.3294 60.946 20.7489 58.6375 23.5581 56.888C26.3674 55.1385 29.5063 53.9852 32.78 53.5C36.0052 53.0567 39.2838 53.1956 42.46 53.91C46.72 54.85 49.25 53.41 50.67 49.25C52.36 44.31 59.15 36.75 63.79 34.83C64.6921 34.477 65.622 34.1994 66.57 34C66.7879 33.9583 66.9858 33.8452 67.1325 33.6786C67.2791 33.5121 67.3662 33.3015 67.38 33.08C67.6637 29.6585 68.3346 26.2802 69.38 23.01C69.4493 22.8419 69.4715 22.658 69.4442 22.4782C69.4168 22.2984 69.3409 22.1294 69.2247 21.9896C69.1085 21.8497 68.9563 21.7441 68.7846 21.6843C68.6128 21.6245 68.428 21.6126 68.25 21.65C57.07 22.93 46 31.74 40.94 41.39C37.3448 40.9432 33.7024 41.0512 30.14 41.71C20.6558 43.435 12.233 48.8273 6.69642 56.7185C1.1598 64.6098 -1.04487 74.3647 0.559994 83.87C2.05626 92.3449 6.47931 100.026 13.0581 105.574C19.6369 111.122 27.9542 114.185 36.56 114.23C53.68 114.23 69.36 114.31 84.07 114.31C100.94 114.31 116.53 114.31 131.5 114.2C142.28 114.2 151.33 109.32 157.66 100.2C158.684 98.7293 159.562 97.1618 160.28 95.52C162.022 91.4555 162.858 87.0603 162.73 82.64L162.67 81.25Z" fill="url(#paint0_linear_1_3)"/>
<path d="M113.09 0C105.711 0 98.4973 2.18819 92.3617 6.28787C86.2261 10.3875 81.4439 16.2146 78.62 23.0321C75.7961 29.8496 75.0573 37.3514 76.4969 44.5888C77.9365 51.8263 81.4899 58.4743 86.7078 63.6922C91.9257 68.9101 98.5737 72.4635 105.811 73.9031C113.049 75.3427 120.55 74.6039 127.368 71.7799C134.185 68.956 140.012 64.1739 144.112 58.0383C148.212 51.9027 150.4 44.6892 150.4 37.31C150.4 32.4104 149.435 27.5587 147.56 23.0321C145.685 18.5054 142.937 14.3924 139.472 10.9278C136.008 7.46329 131.895 4.71506 127.368 2.84005C122.841 0.965052 117.99 0 113.09 0ZM133.83 32.38C135.28 32.3919 136.695 32.8332 137.894 33.6482C139.094 34.4632 140.026 35.6155 140.571 36.9594C141.117 38.3034 141.252 39.7788 140.959 41.1994C140.667 42.6201 139.96 43.9223 138.928 44.9416C137.896 45.9609 136.586 46.6516 135.162 46.9266C133.737 47.2016 132.264 47.0485 130.927 46.4867C129.589 45.9248 128.449 44.9794 127.648 43.7697C126.848 42.5601 126.424 41.1404 126.43 39.69C126.424 38.7209 126.613 37.7605 126.984 36.8652C127.355 35.9699 127.901 35.1579 128.591 34.4768C129.28 33.7957 130.099 33.2594 130.999 32.8993C131.898 32.5392 132.861 32.3627 133.83 32.38ZM113 26.46C114.954 26.4541 116.867 27.028 118.495 28.1091C120.123 29.1902 121.394 30.73 122.147 32.5337C122.9 34.3373 123.101 36.3237 122.725 38.2417C122.349 40.1596 121.412 41.9229 120.034 43.3085C118.655 44.694 116.897 45.6395 114.981 46.0254C113.065 46.4114 111.077 46.2203 109.27 45.4765C107.462 44.7326 105.916 43.4694 104.827 41.8467C103.738 40.2239 103.154 38.3145 103.15 36.36C103.158 33.7454 104.196 31.2394 106.041 29.3859C107.885 27.5324 110.385 26.4811 113 26.46ZM92.36 32.38C93.8125 32.3701 95.2353 32.7914 96.4483 33.5906C97.6612 34.3898 98.6098 35.5309 99.1738 36.8694C99.7379 38.208 99.8922 39.6838 99.6171 41.1101C99.3419 42.5363 98.6498 43.8489 97.6283 44.8816C96.6068 45.9143 95.3019 46.6207 93.8787 46.9114C92.4556 47.202 90.9781 47.0639 89.6335 46.5145C88.2889 45.965 87.1375 45.029 86.3251 43.8248C85.5128 42.6207 85.076 41.2025 85.07 39.75C85.0581 38.7856 85.2379 37.8284 85.599 36.9341C85.9602 36.0398 86.4954 35.2261 87.1737 34.5404C87.8519 33.8547 88.6597 33.3106 89.55 32.9397C90.4404 32.5689 91.3955 32.3786 92.36 32.38ZM92.15 63.26C88.578 60.2923 85.6802 56.5967 83.65 52.42L84.2 51.93C86.1823 50.3001 88.606 49.2989 91.1607 49.0549C93.7155 48.8108 96.2849 49.3349 98.54 50.56C98.94 50.78 98.98 50.92 98.62 51.23C97.8293 51.9344 97.1062 52.7111 96.46 53.55C94.2695 56.3116 92.805 59.5775 92.2 63.05C92.1904 63.1215 92.1736 63.1918 92.15 63.26ZM113.09 70.83C106.69 70.8472 100.427 68.9719 95.09 65.44C95.3952 61.5524 96.9546 57.869 99.5336 54.9441C102.113 52.0192 105.572 50.0109 109.391 49.2214C113.209 48.432 117.181 48.904 120.709 50.5665C124.236 52.229 127.128 54.9921 128.95 58.44C130.118 60.6215 130.8 63.0299 130.95 65.5C125.641 68.9737 119.435 70.8258 113.09 70.83ZM134 63.26C133.973 63.1923 133.953 63.1219 133.94 63.05C133.335 59.5775 131.87 56.3116 129.68 53.55C129.037 52.7111 128.318 51.9344 127.53 51.23C127.18 50.92 127.21 50.78 127.61 50.56C129.872 49.3267 132.45 48.7981 135.015 49.0422C137.579 49.2863 140.012 50.2921 142 51.93C142.19 52.09 142.37 52.26 142.54 52.42C140.498 56.6005 137.586 60.2964 134 63.26Z" fill="url(#paint1_linear_1_3)"/>
<defs>
<linearGradient id="paint0_linear_1_3" x1="30.62" y1="112.37" x2="177.84" y2="15.37" gradientUnits="userSpaceOnUse">
<stop stop-color="#00BAF4"/>
<stop offset="1" stop-color="#00A1EF"/>
</linearGradient>
<linearGradient id="paint1_linear_1_3" x1="39.94" y1="14.56" x2="167.18" y2="54.14" gradientUnits="userSpaceOnUse">
<stop stop-color="#00BAF4"/>
<stop offset="1" stop-color="#00A1EF"/>
</linearGradient>
</defs>
</svg>
