<svg width="921" height="469" viewBox="0 0 921 469" fill="none" xmlns="http://www.w3.org/2000/svg">
  <path d="M93.46 344L94.2949 342.754L93.46 344ZM298.299 351L297.234 349.943L298.299 351ZM260.587 286.5L261.899 287.226L260.587 286.5ZM919.019 465.229C919.809 465.478 920.248 466.32 919.999 467.11C919.751 467.901 918.908 468.34 918.118 468.091L919.019 465.229ZM911.422 466.006C910.63 465.762 910.186 464.923 910.43 464.131C910.674 463.339 911.513 462.895 912.305 463.139L911.422 466.006ZM898.741 459.052C899.536 459.287 899.99 460.121 899.756 460.915C899.522 461.71 898.687 462.164 897.893 461.93L898.741 459.052ZM884.308 458.007C883.511 457.782 883.047 456.953 883.273 456.156C883.498 455.359 884.327 454.895 885.124 455.121L884.308 458.007ZM871.479 451.339C872.278 451.556 872.75 452.38 872.533 453.18C872.316 453.979 871.492 454.451 870.692 454.234L871.479 451.339ZM857.022 450.593C856.221 450.383 855.741 449.564 855.95 448.762C856.159 447.961 856.979 447.481 857.78 447.69L857.022 450.593ZM844.071 444.175C844.874 444.377 845.362 445.193 845.159 445.996C844.957 446.799 844.142 447.287 843.339 447.085L844.071 444.175ZM829.598 443.689C828.793 443.494 828.299 442.683 828.494 441.878C828.69 441.073 829.501 440.578 830.306 440.774L829.598 443.689ZM816.544 437.491C817.351 437.681 817.851 438.488 817.662 439.294C817.473 440.101 816.666 440.601 815.859 440.412L816.544 437.491ZM802.063 437.232C801.255 437.049 800.749 436.246 800.932 435.438C801.115 434.63 801.918 434.123 802.726 434.307L802.063 437.232ZM788.92 431.227C789.729 431.405 790.241 432.205 790.064 433.014C789.886 433.823 789.086 434.335 788.277 434.157L788.92 431.227ZM774.439 431.167C773.628 430.994 773.111 430.198 773.284 429.388C773.456 428.577 774.253 428.06 775.063 428.233L774.439 431.167ZM761.217 425.329C762.028 425.497 762.55 426.291 762.382 427.102C762.214 427.913 761.421 428.435 760.61 428.267L761.217 425.329ZM746.744 425.443C745.931 425.28 745.405 424.489 745.568 423.677C745.731 422.865 746.522 422.339 747.334 422.502L746.744 425.443ZM733.449 419.751C734.262 419.91 734.792 420.698 734.633 421.511C734.474 422.324 733.686 422.854 732.873 422.695L733.449 419.751ZM718.989 420.015C718.175 419.86 717.641 419.075 717.796 418.261C717.951 417.447 718.737 416.913 719.55 417.068L718.989 420.015ZM705.63 414.447C706.444 414.599 706.982 415.382 706.83 416.196C706.679 417.011 705.895 417.548 705.081 417.397L705.63 414.447ZM691.178 414.84C690.363 414.691 689.823 413.911 689.971 413.095C690.119 412.28 690.9 411.74 691.715 411.888L691.178 414.84ZM677.77 409.379C678.586 409.524 679.129 410.303 678.984 411.119C678.839 411.934 678.06 412.478 677.244 412.332L677.77 409.379ZM663.323 409.878C662.507 409.735 661.961 408.958 662.103 408.142C662.246 407.326 663.023 406.78 663.839 406.922L663.323 409.878ZM649.88 404.507C650.697 404.647 651.245 405.422 651.105 406.239C650.965 407.055 650.189 407.603 649.373 407.463L649.88 404.507ZM635.432 405.091C634.615 404.953 634.065 404.179 634.203 403.362C634.341 402.546 635.115 401.995 635.932 402.133L635.432 405.091ZM621.967 399.792C622.784 399.928 623.337 400.701 623.201 401.518C623.065 402.336 622.292 402.888 621.475 402.752L621.967 399.792ZM607.515 400.443C606.698 400.308 606.144 399.537 606.279 398.719C606.413 397.902 607.185 397.348 608.002 397.482L607.515 400.443ZM594.038 395.198C594.855 395.331 595.41 396.102 595.277 396.92C595.144 397.737 594.373 398.292 593.556 398.159L594.038 395.198ZM579.58 395.893C578.762 395.761 578.206 394.991 578.338 394.173C578.47 393.355 579.24 392.8 580.058 392.932L579.58 395.893ZM566.097 390.683C566.915 390.815 567.472 391.584 567.34 392.402C567.209 393.22 566.439 393.777 565.621 393.645L566.097 390.683ZM551.634 391.402C550.816 391.271 550.259 390.502 550.39 389.684C550.521 388.866 551.29 388.309 552.108 388.44L551.634 391.402ZM538.15 386.205C538.968 386.336 539.525 387.105 539.394 387.923C539.263 388.741 538.493 389.298 537.675 389.167L538.15 386.205ZM523.686 386.924C522.868 386.793 522.311 386.024 522.442 385.206C522.574 384.388 523.343 383.831 524.161 383.962L523.686 386.924ZM510.201 381.715C511.019 381.847 511.575 382.617 511.442 383.435C511.31 384.253 510.54 384.808 509.722 384.676L510.201 381.715ZM495.747 382.409C494.929 382.276 494.374 381.505 494.508 380.687C494.641 379.87 495.412 379.315 496.229 379.448L495.747 382.409ZM482.258 377.156C483.076 377.291 483.629 378.063 483.494 378.881C483.359 379.698 482.587 380.251 481.769 380.116L482.258 377.156ZM467.834 377.796C467.017 377.659 466.466 376.885 466.603 376.068C466.74 375.251 467.514 374.7 468.331 374.837L467.834 377.796ZM454.337 372.462C455.153 372.603 455.702 373.378 455.561 374.194C455.421 375.011 454.646 375.559 453.829 375.419L454.337 372.462ZM439.975 373.011C439.159 372.868 438.614 372.09 438.758 371.274C438.902 370.458 439.679 369.913 440.495 370.057L439.975 373.011ZM426.467 367.548C427.282 367.696 427.822 368.477 427.674 369.292C427.526 370.107 426.745 370.647 425.93 370.499L426.467 367.548ZM412.082 367.935C411.268 367.782 410.733 366.997 410.887 366.183C411.04 365.369 411.825 364.834 412.639 364.988L412.082 367.935ZM398.709 362.301C399.521 362.462 400.05 363.25 399.89 364.063C399.73 364.876 398.941 365.405 398.128 365.245L398.709 362.301ZM384.21 362.428C383.398 362.26 382.878 361.465 383.046 360.654C383.215 359.843 384.009 359.322 384.82 359.491L384.21 362.428ZM371.129 356.561C371.938 356.739 372.449 357.54 372.27 358.349C372.092 359.158 371.291 359.669 370.482 359.49L371.129 356.561ZM356.562 356.308C355.756 356.116 355.258 355.308 355.449 354.502C355.64 353.696 356.448 353.197 357.254 353.389L356.562 356.308ZM343.5 349.988C344.302 350.195 344.785 351.013 344.578 351.815C344.371 352.617 343.552 353.1 342.75 352.893L343.5 349.988ZM329.098 349.189C328.301 348.962 327.84 348.132 328.067 347.335C328.295 346.539 329.125 346.077 329.922 346.305L329.098 349.189ZM316.516 342.242C317.304 342.496 317.737 343.341 317.483 344.13C317.228 344.918 316.383 345.351 315.594 345.097L316.516 342.242ZM302.204 340.444C301.429 340.153 301.037 339.288 301.328 338.512C301.62 337.737 302.484 337.345 303.26 337.636L302.204 340.444ZM290.293 332.271C291.046 332.616 291.376 333.507 291.031 334.26C290.685 335.013 289.795 335.343 289.042 334.997L290.293 332.271ZM276.271 328.292C275.563 327.861 275.34 326.938 275.771 326.23C276.202 325.523 277.125 325.299 277.832 325.73L276.271 328.292ZM266.758 317.396C267.352 317.973 267.367 318.923 266.79 319.517C266.214 320.112 265.264 320.127 264.669 319.55L266.758 317.396ZM256.489 307.436C256.217 306.653 256.63 305.798 257.413 305.526C258.195 305.254 259.05 305.668 259.322 306.45L256.489 307.436ZM259.195 293.53C258.958 294.324 258.122 294.775 257.328 294.538C256.534 294.301 256.083 293.465 256.32 292.671L259.195 293.53ZM264.645 279.936C265.338 279.482 266.268 279.675 266.722 280.368C267.176 281.061 266.982 281.991 266.289 282.445L264.645 279.936ZM279.279 280.211C278.459 280.093 277.889 279.334 278.007 278.514C278.124 277.693 278.884 277.124 279.704 277.241L279.279 280.211ZM293.847 282.321C294.565 282.734 294.811 283.651 294.398 284.369C293.984 285.087 293.067 285.334 292.349 284.92L293.847 282.321ZM303.248 293.744C302.695 293.127 302.746 292.179 303.363 291.625C303.979 291.072 304.928 291.124 305.481 291.74L303.248 293.744ZM313.413 304.483C313.713 305.255 313.33 306.125 312.558 306.425C311.786 306.725 310.917 306.343 310.617 305.571L313.413 304.483ZM312.88 319.198C312.917 318.371 313.619 317.73 314.446 317.768C315.274 317.806 315.914 318.507 315.876 319.335L312.88 319.198ZM312.283 333.939C311.945 334.695 311.057 335.034 310.301 334.695C309.545 334.357 309.207 333.469 309.545 332.713L312.283 333.939ZM302.038 344.628C302.562 343.987 303.507 343.891 304.149 344.415C304.791 344.939 304.886 345.884 304.362 346.526L302.038 344.628ZM294.193 356.683C293.545 357.2 292.601 357.094 292.085 356.446C291.568 355.798 291.674 354.855 292.322 354.338L294.193 356.683ZM281.184 361.559C281.916 361.172 282.824 361.451 283.212 362.184C283.599 362.916 283.32 363.823 282.588 364.211L281.184 361.559ZM269.99 369.749C269.211 370.031 268.351 369.628 268.068 368.85C267.786 368.071 268.188 367.211 268.967 366.928L269.99 369.749ZM256.141 370.783C256.946 370.586 257.758 371.078 257.955 371.883C258.152 372.687 257.66 373.5 256.855 373.697L256.141 370.783ZM243.423 376.357C242.604 376.483 241.838 375.922 241.711 375.103C241.585 374.285 242.146 373.518 242.965 373.392L243.423 376.357ZM229.599 374.943C230.425 374.878 231.148 375.494 231.214 376.319C231.28 377.145 230.664 377.868 229.838 377.934L229.599 374.943ZM216.189 378.571C215.36 378.583 214.679 377.921 214.667 377.093C214.655 376.265 215.316 375.583 216.145 375.571L216.189 378.571ZM202.667 375.365C203.494 375.402 204.135 376.103 204.099 376.931C204.062 377.758 203.361 378.399 202.533 378.362L202.667 375.365ZM188.917 377.369C188.093 377.286 187.492 376.551 187.575 375.726C187.658 374.902 188.394 374.301 189.218 374.385L188.917 377.369ZM175.846 372.664C176.665 372.792 177.224 373.559 177.096 374.378C176.968 375.196 176.201 375.756 175.382 375.628L175.846 372.664ZM161.962 373.151C161.152 372.978 160.635 372.181 160.807 371.371C160.98 370.561 161.777 370.044 162.587 370.217L161.962 373.151ZM149.485 367.039C150.284 367.257 150.755 368.081 150.537 368.881C150.319 369.68 149.494 370.151 148.695 369.933L149.485 367.039ZM135.633 365.951C134.848 365.686 134.427 364.835 134.693 364.05C134.958 363.265 135.809 362.844 136.594 363.109L135.633 365.951ZM123.981 358.392C124.747 358.708 125.112 359.585 124.797 360.351C124.481 361.117 123.605 361.482 122.839 361.166L123.981 358.392ZM110.392 355.518C109.651 355.148 109.35 354.247 109.72 353.506C110.089 352.765 110.99 352.464 111.731 352.833L110.392 355.518ZM99.957 346.36C100.666 346.789 100.892 347.712 100.463 348.42C100.034 349.129 99.1115 349.355 98.4029 348.926L99.957 346.36ZM86.8981 341.257C86.2269 340.772 86.0766 339.834 86.5623 339.163C87.0479 338.492 87.9857 338.341 88.6568 338.827L86.8981 341.257ZM77.8328 330.389C78.4676 330.921 78.5508 331.867 78.0186 332.502C77.4863 333.137 76.5402 333.22 75.9054 332.687L77.8328 330.389ZM65.5455 323.365C64.9494 322.79 64.9324 321.84 65.5077 321.244C66.0829 320.648 67.0325 320.631 67.6287 321.206L65.5455 323.365ZM58.0814 311.339C58.6368 311.953 58.5887 312.902 57.9741 313.457C57.3594 314.013 56.4109 313.965 55.8555 313.35L58.0814 311.339ZM46.8661 302.704C46.3531 302.053 46.4646 301.11 47.1151 300.597C47.7655 300.084 48.7087 300.195 49.2217 300.846L46.8661 302.704ZM41.0762 289.786C41.5453 290.469 41.3722 291.403 40.6894 291.872C40.0067 292.341 39.0728 292.168 38.6036 291.485L41.0762 289.786ZM31.0906 279.754C30.6666 279.042 30.8997 278.121 31.6114 277.697C32.3231 277.273 33.2438 277.507 33.6678 278.218L31.0906 279.754ZM27.0167 266.197C27.3945 266.934 27.103 267.838 26.3658 268.216C25.6285 268.594 24.7245 268.302 24.3468 267.565L27.0167 266.197ZM18.3907 254.974C18.0604 254.214 18.4083 253.33 19.168 253C19.9277 252.669 20.8114 253.017 21.1418 253.777L18.3907 254.974ZM16.0615 241.011C16.3434 241.79 15.9404 242.65 15.1615 242.932C14.3825 243.214 13.5225 242.811 13.2405 242.032L16.0615 241.011ZM8.91443 228.792C8.68207 227.997 9.13831 227.164 9.93347 226.931C10.7286 226.699 11.5616 227.155 11.794 227.95L8.91443 228.792ZM8.35834 214.647C8.53998 215.455 8.03204 216.258 7.22375 216.44C6.41553 216.621 5.61304 216.113 5.43134 215.305L8.35834 214.647ZM2.81085 201.624C2.68109 200.806 3.2392 200.037 4.05737 199.907C4.87561 199.778 5.6441 200.336 5.77386 201.154L2.81085 201.624ZM4.06042 187.524C4.13708 188.349 3.53052 189.08 2.70563 189.157C1.8808 189.233 1.14996 188.627 1.0733 187.802L4.06042 187.524ZM0.239136 173.894C0.216797 173.066 0.869995 172.377 1.69812 172.354C2.52625 172.332 3.2157 172.985 3.23804 173.813L0.239136 173.894ZM3.32599 160.08C3.29285 160.908 2.59497 161.552 1.76721 161.519C0.939453 161.486 0.295288 160.788 0.328369 159.96L3.32599 160.08ZM1.3595 146.063C1.4491 145.239 2.18939 144.644 3.01294 144.734C3.83649 144.823 4.43152 145.564 4.34192 146.387L1.3595 146.063ZM6.30029 132.8C6.1535 133.615 5.37347 134.157 4.55817 134.011C3.74286 133.864 3.20099 133.084 3.34784 132.268L6.30029 132.8ZM6.30389 118.647C6.50836 117.844 7.32495 117.359 8.12775 117.564C8.93054 117.768 9.41553 118.585 9.211 119.388L6.30389 118.647ZM13.0775 106.222C12.8153 107.008 11.9657 107.432 11.1799 107.17C10.394 106.908 9.96948 106.058 10.2317 105.272L13.0775 106.222ZM15.1268 92.2189C15.4461 91.4544 16.3246 91.0936 17.0891 91.4129C17.8535 91.7322 18.2143 92.6107 17.895 93.3752L15.1268 92.2189ZM23.6492 80.9208C23.274 81.6594 22.3711 81.954 21.6325 81.5788C20.8939 81.2036 20.5994 80.3007 20.9745 79.5621L23.6492 80.9208ZM27.7487 67.3751C28.1779 66.6665 29.1003 66.4401 29.8088 66.8693C30.5174 67.2985 30.7439 68.2208 30.3147 68.9294L27.7487 67.3751ZM37.8547 57.4667C37.374 58.1414 36.4374 58.2988 35.7626 57.8182C35.0879 57.3376 34.9305 56.401 35.4111 55.7262L37.8547 57.4667ZM43.9121 44.676C44.4409 44.0383 45.3865 43.9501 46.0242 44.4789C46.6619 45.0078 46.7501 45.9534 46.2213 46.5911L43.9121 44.676ZM55.3571 36.3513C54.7838 36.9493 53.8342 36.9693 53.2362 36.396C52.6382 35.8227 52.6182 34.8732 53.1915 34.2752L55.3571 36.3513ZM63.1816 24.562C63.7953 24.0056 64.7439 24.0519 65.3004 24.6656C65.8569 25.2793 65.8105 26.2279 65.1968 26.7844L63.1816 24.562ZM75.6712 17.9149C75.0214 18.4287 74.0781 18.3186 73.5642 17.6688C73.0504 17.019 73.1605 16.0757 73.8103 15.5618L75.6712 17.9149ZM85.0044 7.28623C85.686 6.81535 86.6202 6.98615 87.0911 7.66774C87.562 8.34933 87.3912 9.28359 86.7096 9.75447L85.0044 7.28623ZM98.2439 2.30303C97.5347 2.73117 96.6127 2.50331 96.1846 1.7941C95.7564 1.08488 95.9843 0.162871 96.6935 -0.265268L98.2439 2.30303ZM918.118 468.091C915.894 467.391 913.662 466.696 911.422 466.006L912.305 463.139C914.551 463.83 916.789 464.527 919.019 465.229L918.118 468.091ZM897.893 461.93C893.392 460.603 888.863 459.295 884.308 458.007L885.124 455.121C889.69 456.411 894.229 457.722 898.741 459.052L897.893 461.93ZM870.692 454.234C866.158 453.003 861.6 451.789 857.022 450.593L857.78 447.69C862.368 448.889 866.935 450.105 871.479 451.339L870.692 454.234ZM843.339 447.085C838.776 445.936 834.195 444.805 829.598 443.689L830.306 440.774C834.911 441.891 839.5 443.025 844.071 444.175L843.339 447.085ZM815.859 440.412C811.274 439.337 806.675 438.278 802.063 437.232L802.726 434.307C807.345 435.353 811.951 436.415 816.544 437.491L815.859 440.412ZM788.277 434.157C783.674 433.147 779.06 432.15 774.439 431.167L775.063 428.233C779.691 429.217 784.31 430.215 788.92 431.227L788.277 434.157ZM760.61 428.267C755.993 427.314 751.37 426.372 746.744 425.443L747.334 422.502C751.966 423.432 756.594 424.375 761.217 425.329L760.61 428.267ZM732.873 422.695C728.247 421.79 723.618 420.897 718.989 420.015L719.55 417.068C724.184 417.951 728.818 418.845 733.449 419.751L732.873 422.695ZM705.081 417.397C700.445 416.534 695.81 415.682 691.178 414.84L691.715 411.888C696.35 412.731 700.989 413.584 705.63 414.447L705.081 417.397ZM677.244 412.332C672.598 411.505 667.957 410.687 663.323 409.878L663.839 406.922C668.476 407.732 673.121 408.551 677.77 409.379L677.244 412.332ZM649.373 407.463C644.716 406.664 640.069 405.874 635.432 405.091L635.932 402.133C640.57 402.916 645.221 403.707 649.88 404.507L649.373 407.463ZM621.475 402.752C616.807 401.975 612.153 401.205 607.515 400.443L608.002 397.482C612.642 398.245 617.298 399.015 621.967 399.792L621.475 402.752ZM593.556 398.159C588.878 397.398 584.219 396.643 579.58 395.893L580.058 392.932C584.698 393.681 589.359 394.436 594.038 395.198L593.556 398.159ZM565.621 393.645C560.935 392.892 556.271 392.145 551.634 391.402L552.108 388.44C556.746 389.183 561.41 389.93 566.097 390.683L565.621 393.645ZM537.675 389.167C532.982 388.416 528.318 387.668 523.686 386.924L524.161 383.962C528.793 384.706 533.457 385.453 538.15 386.205L537.675 389.167ZM509.722 384.676C505.027 383.918 500.367 383.162 495.747 382.409L496.229 379.448C500.848 380.201 505.506 380.956 510.201 381.715L509.722 384.676ZM481.769 380.116C477.079 379.342 472.433 378.569 467.834 377.796L468.331 374.837C472.927 375.609 477.57 376.382 482.258 377.156L481.769 380.116ZM453.829 375.419C449.156 374.617 444.537 373.815 439.975 373.011L440.495 370.057C445.052 370.86 449.667 371.661 454.337 372.462L453.829 375.419ZM425.93 370.499C421.245 369.648 416.628 368.793 412.082 367.935L412.639 364.988C417.177 365.844 421.788 366.697 426.467 367.548L425.93 370.499ZM398.128 365.245C393.399 364.312 388.758 363.373 384.21 362.428L384.82 359.491C389.358 360.434 393.989 361.37 398.709 362.301L398.128 365.245ZM370.482 359.49C365.724 358.44 361.082 357.38 356.562 356.308L357.254 353.389C361.758 354.457 366.385 355.514 371.129 356.561L370.482 359.49ZM342.75 352.893C338.04 351.676 333.486 350.443 329.098 349.189L329.922 346.305C334.283 347.55 338.812 348.777 343.5 349.988L342.75 352.893ZM315.594 345.097C310.889 343.579 306.421 342.029 302.204 340.444L303.26 337.636C307.426 339.202 311.849 340.736 316.516 342.242L315.594 345.097ZM289.042 334.997C284.334 332.837 280.066 330.605 276.271 328.292L277.832 325.73C281.508 327.971 285.67 330.149 290.293 332.271L289.042 334.997ZM264.669 319.55C260.78 315.779 257.991 311.753 256.489 307.436L259.322 306.45C260.633 310.219 263.113 313.862 266.758 317.396L264.669 319.55ZM256.32 292.671C256.996 290.41 257.98 288.111 259.274 285.774L261.899 287.226C260.696 289.4 259.801 291.5 259.195 293.53L256.32 292.671ZM259.274 285.774C260.647 283.294 262.477 281.356 264.645 279.936L266.289 282.445C264.533 283.596 263.038 285.17 261.899 287.226L259.274 285.774ZM279.704 277.241C284.377 277.909 289.253 279.675 293.847 282.321L292.349 284.92C288.039 282.437 283.523 280.818 279.279 280.211L279.704 277.241ZM305.481 291.74C308.797 295.437 311.563 299.728 313.413 304.483L310.617 305.571C308.912 301.188 306.35 297.202 303.248 293.744L305.481 291.74ZM315.876 319.335C315.662 324.023 314.531 328.92 312.283 333.939L309.545 332.713C311.646 328.021 312.684 323.492 312.88 319.198L315.876 319.335ZM304.362 346.526C302.86 348.365 301.197 350.209 299.364 352.057L297.234 349.943C299.003 348.161 300.601 346.388 302.038 344.628L304.362 346.526ZM299.364 352.057C297.756 353.677 296.029 355.219 294.193 356.683L292.322 354.338C294.073 352.941 295.713 351.477 297.234 349.943L299.364 352.057ZM282.588 364.211C278.665 366.287 274.449 368.132 269.99 369.749L268.967 366.928C273.31 365.354 277.397 363.564 281.184 361.559L282.588 364.211ZM256.855 373.697C252.528 374.757 248.04 375.643 243.423 376.357L242.965 373.392C247.502 372.691 251.904 371.821 256.141 370.783L256.855 373.697ZM229.838 377.934C225.366 378.291 220.808 378.503 216.189 378.571L216.145 375.571C220.701 375.504 225.194 375.295 229.599 374.943L229.838 377.934ZM202.533 378.362C198.021 378.161 193.475 377.83 188.917 377.369L189.218 374.385C193.722 374.839 198.212 375.167 202.667 375.365L202.533 378.362ZM175.382 375.628C170.893 374.925 166.413 374.099 161.962 373.151L162.587 370.217C166.984 371.154 171.411 371.97 175.846 372.664L175.382 375.628ZM148.695 369.933C144.284 368.729 139.922 367.401 135.633 365.951L136.594 363.109C140.825 364.54 145.129 365.85 149.485 367.039L148.695 369.933ZM122.839 361.166C118.583 359.413 114.426 357.53 110.392 355.518L111.731 352.833C115.698 354.812 119.789 356.665 123.981 358.392L122.839 361.166ZM98.4029 348.926C96.4356 347.735 94.5085 346.508 92.6251 345.246L94.2949 342.754C96.1391 343.989 98.0276 345.192 99.957 346.36L98.4029 348.926ZM92.6251 345.246C90.6896 343.949 88.7804 342.619 86.8981 341.257L88.6568 338.827C90.5101 340.168 92.3895 341.477 94.2949 342.754L92.6251 345.246ZM75.9054 332.687C72.3397 329.698 68.8853 326.588 65.5455 323.365L67.6287 321.206C70.9188 324.381 74.3212 327.445 77.8328 330.389L75.9054 332.687ZM55.8555 313.35C52.7396 309.902 49.7421 306.35 46.8661 302.704L49.2217 300.846C52.0565 304.44 55.0108 307.941 58.0814 311.339L55.8555 313.35ZM38.6036 291.485C35.9734 287.657 33.468 283.744 31.0906 279.754L33.6678 278.218C36.0123 282.153 38.4829 286.012 41.0762 289.786L38.6036 291.485ZM24.3468 267.565C22.2293 263.432 20.2429 259.232 18.3907 254.974L21.1418 253.777C22.9689 257.978 24.9282 262.121 27.0167 266.197L24.3468 267.565ZM13.2405 242.032C11.66 237.665 10.2169 233.249 8.91443 228.792L11.794 227.95C13.0788 232.347 14.5023 236.703 16.0615 241.011L13.2405 242.032ZM5.43134 215.305C4.41278 210.773 3.53821 206.21 2.81085 201.624L5.77386 201.154C6.49115 205.677 7.3537 210.177 8.35834 214.647L5.43134 215.305ZM1.0733 187.802C0.643494 183.177 0.364319 178.538 0.239136 173.894L3.23804 173.813C3.36145 178.391 3.63666 182.964 4.06042 187.524L1.0733 187.802ZM0.328369 159.96C0.514099 155.32 0.856689 150.685 1.3595 146.063L4.34192 146.387C3.84656 150.941 3.50897 155.508 3.32599 160.08L0.328369 159.96ZM3.34784 132.268C4.17004 127.703 5.15436 123.159 6.30389 118.647L9.211 119.388C8.07928 123.83 7.11011 128.304 6.30029 132.8L3.34784 132.268ZM10.2317 105.272C11.6975 100.879 13.3282 96.5248 15.1268 92.2189L17.895 93.3752C16.1251 97.6125 14.5203 101.898 13.0775 106.222L10.2317 105.272ZM20.9745 79.5621C23.0673 75.4424 25.3245 71.3773 27.7487 67.3751L30.3147 68.9294C27.9293 72.8674 25.7084 76.8672 23.6492 80.9208L20.9745 79.5621ZM35.4111 55.7262C38.0842 51.9735 40.917 48.2876 43.9121 44.676L46.2213 46.5911C43.2731 50.1461 40.4852 53.7737 37.8547 57.4667L35.4111 55.7262ZM53.1915 34.2752C56.3694 30.9602 59.6988 27.7203 63.1816 24.562L65.1968 26.7844C61.7656 29.8959 58.4865 33.087 55.3571 36.3513L53.1915 34.2752ZM73.8103 15.5618C77.401 12.7221 81.1317 9.96173 85.0044 7.28623L86.7096 9.75447C82.8896 12.3936 79.2108 15.1156 75.6712 17.9149L73.8103 15.5618ZM96.6935 -0.265268C98.6837 -1.46671 100.707 -2.64738 102.763 -3.80668L104.237 -1.19332C102.206 -0.0485663 100.208 1.11709 98.2439 2.30303L96.6935 -0.265268Z" fill="#E3E3E3"/>
</svg>
