<svg width="1066" height="465" viewBox="0 0 1066 465" fill="none" xmlns="http://www.w3.org/2000/svg">
<path d="M1043.13 235L1041.76 234.389L1043.13 235ZM394.83 209L395.422 207.621L394.83 209ZM993.966 2.93523C993.327 2.40728 993.238 1.46177 993.766 0.823361C994.294 0.184956 995.239 0.0954126 995.878 0.623361L993.966 2.93523ZM1001.41 5.31639C1002.03 5.86087 1002.09 6.80841 1001.55 7.43277C1001.01 8.05713 1000.06 8.12188 999.433 7.57739L1001.41 5.31639ZM1009.97 17.2939C1009.37 16.7148 1009.36 15.7651 1009.94 15.1727C1010.52 14.5803 1011.47 14.5695 1012.06 15.1486L1009.97 17.2939ZM1022.12 25.6053C1022.67 26.2207 1022.62 27.1691 1022.01 27.7238C1021.39 28.2784 1020.44 28.2292 1019.89 27.6138L1022.12 25.6053ZM1029.09 38.561C1028.58 37.9084 1028.7 36.9657 1029.35 36.4554C1030 35.9451 1030.95 36.0605 1031.46 36.7131L1029.09 38.561ZM1039.96 48.4826C1040.42 49.1724 1040.23 50.1035 1039.54 50.5622C1038.85 51.021 1037.92 50.8337 1037.46 50.1439L1039.96 48.4826ZM1044.88 62.3495C1044.48 61.6241 1044.74 60.7117 1045.47 60.3116C1046.19 59.9116 1047.11 60.1753 1047.51 60.9008L1044.88 62.3495ZM1053.96 73.9256C1054.3 74.6834 1053.95 75.5691 1053.2 75.9037C1052.44 76.2384 1051.55 75.8953 1051.22 75.1375L1053.96 73.9256ZM1056.38 88.4389C1056.12 87.6536 1056.54 86.8031 1057.33 86.5392C1058.11 86.2752 1058.96 86.6979 1059.23 87.4831L1056.38 88.4389ZM1063.21 101.471C1063.4 102.277 1062.9 103.085 1062.1 103.275C1061.29 103.465 1060.48 102.965 1060.29 102.159L1063.21 101.471ZM1062.92 116.186C1062.81 115.365 1063.38 114.607 1064.2 114.492C1065.02 114.376 1065.78 114.948 1065.89 115.768L1062.92 116.186ZM1067.28 130.244C1067.32 131.072 1066.68 131.777 1065.85 131.819C1065.03 131.862 1064.32 131.225 1064.28 130.398L1067.28 130.244ZM1064.41 144.671C1064.44 143.843 1065.13 143.193 1065.96 143.219C1066.79 143.246 1067.44 143.938 1067.41 144.766L1064.41 144.671ZM1066.38 159.245C1066.29 160.068 1065.55 160.663 1064.73 160.573C1063.9 160.483 1063.31 159.742 1063.4 158.918L1066.38 159.245ZM1061.33 173.078C1061.48 172.262 1062.26 171.721 1063.08 171.869C1063.89 172.017 1064.43 172.798 1064.29 173.613L1061.33 173.078ZM1061.24 187.798C1061.04 188.602 1060.22 189.092 1059.42 188.893C1058.62 188.693 1058.12 187.88 1058.32 187.076L1061.24 187.798ZM1054.48 200.857C1054.72 200.066 1055.56 199.623 1056.35 199.868C1057.15 200.113 1057.59 200.953 1057.34 201.745L1054.48 200.857ZM1052.69 215.484C1052.4 216.261 1051.54 216.66 1050.76 216.375C1049.99 216.089 1049.59 215.227 1049.87 214.45L1052.69 215.484ZM1044.62 227.775C1044.94 227.012 1045.82 226.653 1046.59 226.974C1047.35 227.295 1047.71 228.175 1047.39 228.938L1044.62 227.775ZM1041.42 241.994C1041.03 242.729 1040.13 243.014 1039.39 242.632C1038.66 242.249 1038.37 241.343 1038.75 240.609L1041.42 241.994ZM1031.71 252.335C1032.18 251.652 1033.11 251.48 1033.79 251.949C1034.48 252.418 1034.65 253.352 1034.18 254.035L1031.71 252.335ZM1025.52 265.102C1024.98 265.723 1024.03 265.781 1023.41 265.232C1022.79 264.683 1022.73 263.735 1023.28 263.114L1025.52 265.102ZM1013.61 272.822C1014.23 272.269 1015.18 272.322 1015.73 272.939C1016.28 273.557 1016.23 274.505 1015.61 275.057L1013.61 272.822ZM1004.65 283.839C1003.98 284.322 1003.04 284.168 1002.56 283.496C1002.08 282.823 1002.23 281.885 1002.9 281.402L1004.65 283.839ZM991.353 288.865C992.069 288.449 992.987 288.692 993.403 289.409C993.82 290.125 993.577 291.043 992.86 291.459L991.353 288.865ZM980.423 297.981C979.674 298.335 978.78 298.015 978.426 297.266C978.073 296.517 978.393 295.623 979.142 295.269L980.423 297.981ZM966.476 300.674C967.249 300.377 968.117 300.763 968.414 301.536C968.711 302.309 968.326 303.177 967.552 303.474L966.476 300.674ZM954.375 308.046C953.584 308.293 952.743 307.852 952.496 307.061C952.249 306.27 952.69 305.429 953.481 305.182L954.375 308.046ZM940.208 308.904C941.012 308.702 941.826 309.19 942.028 309.994C942.229 310.797 941.741 311.612 940.937 311.814L940.208 308.904ZM927.295 314.866C926.482 315.027 925.693 314.499 925.531 313.686C925.37 312.874 925.899 312.084 926.711 311.923L927.295 314.866ZM913.032 314.316C913.851 314.191 914.616 314.753 914.741 315.572C914.866 316.391 914.303 317.156 913.484 317.281L913.032 314.316ZM899.696 319.107C898.872 319.2 898.13 318.608 898.037 317.785C897.944 316.962 898.536 316.219 899.359 316.126L899.696 319.107ZM885.61 317.433C886.436 317.369 887.157 317.986 887.221 318.812C887.286 319.638 886.668 320.36 885.842 320.424L885.61 317.433ZM871.888 321.285C871.061 321.324 870.359 320.684 870.321 319.856C870.282 319.029 870.922 318.327 871.75 318.288L871.888 321.285ZM857.898 318.728C858.726 318.713 859.409 319.373 859.424 320.201C859.439 321.029 858.779 321.713 857.951 321.727L857.898 318.728ZM844.061 321.791C843.233 321.785 842.567 321.108 842.573 320.279C842.58 319.451 843.257 318.785 844.085 318.792L844.061 321.791ZM830.185 318.512C831.013 318.538 831.663 319.231 831.637 320.059C831.61 320.887 830.918 321.536 830.09 321.51L830.185 318.512ZM816.191 320.914C815.364 320.87 814.729 320.163 814.774 319.336C814.818 318.508 815.525 317.874 816.352 317.918L816.191 320.914ZM802.535 317.036C803.361 317.097 803.982 317.816 803.921 318.642C803.86 319.468 803.14 320.089 802.314 320.028L802.535 317.036ZM788.367 318.864C787.542 318.787 786.936 318.057 787.012 317.232C787.089 316.407 787.82 315.8 788.645 315.877L788.367 318.864ZM774.917 314.481C775.74 314.572 776.334 315.313 776.243 316.137C776.152 316.96 775.411 317.554 774.588 317.463L774.917 314.481ZM760.739 315.819C759.917 315.715 759.336 314.964 759.44 314.142C759.544 313.32 760.295 312.739 761.117 312.843L760.739 315.819ZM747.376 310.99C748.196 311.107 748.767 311.867 748.65 312.687C748.533 313.507 747.773 314.077 746.953 313.96L747.376 310.99ZM733.2 311.896C732.382 311.767 731.823 311 731.952 310.181C732.081 309.363 732.848 308.804 733.667 308.933L733.2 311.896ZM719.943 306.674C720.759 306.814 721.308 307.59 721.168 308.406C721.027 309.223 720.252 309.771 719.435 309.631L719.943 306.674ZM705.773 307.194C704.959 307.044 704.421 306.261 704.571 305.447C704.722 304.632 705.505 304.094 706.319 304.245L705.773 307.194ZM692.645 301.625C693.458 301.786 693.986 302.575 693.825 303.388C693.664 304.201 692.875 304.729 692.063 304.568L692.645 301.625ZM678.472 301.793C677.662 301.622 677.143 300.827 677.313 300.016C677.484 299.206 678.279 298.687 679.09 298.857L678.472 301.793ZM665.501 295.917C666.31 296.097 666.819 296.898 666.64 297.707C666.46 298.515 665.658 299.025 664.85 298.845L665.501 295.917ZM651.306 295.755C650.499 295.566 649.998 294.76 650.187 293.953C650.375 293.146 651.182 292.645 651.989 292.834L651.306 295.755ZM638.481 289.598C639.285 289.795 639.778 290.608 639.58 291.412C639.383 292.217 638.571 292.709 637.766 292.512L638.481 289.598ZM624.278 289.132C623.475 288.926 622.991 288.109 623.197 287.306C623.402 286.504 624.219 286.02 625.022 286.225L624.278 289.132ZM611.591 282.715C612.392 282.928 612.867 283.75 612.654 284.551C612.441 285.351 611.619 285.827 610.818 285.614L611.591 282.715ZM597.393 281.964C596.595 281.742 596.127 280.916 596.348 280.117C596.569 279.319 597.396 278.851 598.194 279.072L597.393 281.964ZM584.837 275.303C585.634 275.532 586.094 276.363 585.865 277.159C585.636 277.956 584.805 278.416 584.009 278.187L584.837 275.303ZM570.653 274.283C569.859 274.047 569.407 273.212 569.643 272.418C569.879 271.624 570.714 271.171 571.508 271.407L570.653 274.283ZM558.224 267.393C559.016 267.636 559.461 268.475 559.217 269.267C558.974 270.059 558.135 270.504 557.343 270.26L558.224 267.393ZM544.062 266.116C543.272 265.866 542.835 265.023 543.085 264.233C543.335 263.443 544.178 263.006 544.968 263.256L544.062 266.116ZM531.755 259.005C532.542 259.262 532.972 260.109 532.715 260.896C532.458 261.684 531.611 262.114 530.823 261.856L531.755 259.005ZM517.622 257.482C516.836 257.218 516.414 256.367 516.678 255.582C516.942 254.797 517.792 254.374 518.578 254.638L517.622 257.482ZM505.434 250.157C506.217 250.428 506.633 251.282 506.362 252.065C506.091 252.848 505.237 253.263 504.454 252.992L505.434 250.157ZM491.336 248.394C490.556 248.117 490.148 247.259 490.425 246.479C490.702 245.698 491.56 245.29 492.341 245.567L491.336 248.394ZM479.269 240.861C480.047 241.145 480.448 242.006 480.164 242.784C479.88 243.562 479.019 243.963 478.24 243.679L479.269 240.861ZM465.206 238.861C464.43 238.571 464.037 237.706 464.327 236.93C464.617 236.155 465.482 235.761 466.258 236.052L465.206 238.861ZM453.264 231.124C454.038 231.421 454.424 232.289 454.127 233.062C453.83 233.835 452.962 234.221 452.189 233.924L453.264 231.124ZM439.237 228.887C438.466 228.583 438.088 227.712 438.391 226.941C438.695 226.171 439.566 225.792 440.337 226.095L439.237 228.887ZM427.43 220.948C428.198 221.259 428.569 222.133 428.259 222.901C427.949 223.669 427.075 224.04 426.307 223.73L427.43 220.948ZM413.439 218.47C412.673 218.154 412.31 217.276 412.626 216.511C412.943 215.745 413.82 215.382 414.586 215.698L413.439 218.47ZM401.777 210.333C402.54 210.656 402.896 211.537 402.573 212.299C402.249 213.062 401.369 213.418 400.606 213.095L401.777 210.333ZM387.667 207.589C386.903 207.268 386.544 206.389 386.864 205.625C387.185 204.861 388.064 204.502 388.828 204.822L387.667 207.589ZM376.051 199.586C376.82 199.893 377.195 200.766 376.887 201.535C376.58 202.305 375.707 202.679 374.938 202.372L376.051 199.586ZM362.325 197.47C361.55 197.178 361.159 196.312 361.451 195.537C361.743 194.762 362.609 194.371 363.384 194.663L362.325 197.47ZM350.329 189.906C351.11 190.18 351.522 191.036 351.247 191.818C350.973 192.599 350.117 193.011 349.335 192.736L350.329 189.906ZM336.488 188.412C335.7 188.158 335.266 187.313 335.519 186.525C335.773 185.736 336.618 185.302 337.406 185.556L336.488 188.412ZM324.204 181.536C325 181.764 325.461 182.595 325.233 183.391C325.004 184.188 324.174 184.648 323.377 184.42L324.204 181.536ZM310.132 180.89C309.328 180.693 308.835 179.881 309.033 179.076C309.23 178.272 310.042 177.779 310.847 177.977L310.132 180.89ZM297.659 175.051C298.472 175.211 299.001 176 298.841 176.813C298.681 177.626 297.892 178.155 297.079 177.995L297.659 175.051ZM283.449 175.71C282.628 175.598 282.053 174.842 282.165 174.022C282.277 173.201 283.033 172.626 283.854 172.738L283.449 175.71ZM270.062 171.357C270.889 171.408 271.518 172.119 271.467 172.946C271.416 173.773 270.705 174.402 269.878 174.351L270.062 171.357ZM256.352 174.132C255.523 174.159 254.83 173.51 254.803 172.682C254.776 171.854 255.425 171.161 256.253 171.134L256.352 174.132ZM242.465 172.382C243.284 172.256 244.049 172.818 244.175 173.637C244.301 174.456 243.739 175.221 242.92 175.347L242.465 172.382ZM229.804 178.34C229.013 178.585 228.172 178.143 227.927 177.352C227.681 176.56 228.123 175.72 228.915 175.474L229.804 178.34ZM216.011 180.71C216.748 180.333 217.652 180.625 218.029 181.362C218.406 182.1 218.114 183.004 217.377 183.381L216.011 180.71ZM206.038 190.519C205.379 191.021 204.438 190.892 203.936 190.233C203.435 189.573 203.563 188.632 204.222 188.131L206.038 190.519ZM193.863 197.448C194.433 196.847 195.383 196.824 195.983 197.394C196.583 197.965 196.607 198.915 196.036 199.515L193.863 197.448ZM187.402 209.915C186.913 210.584 185.975 210.729 185.306 210.241C184.637 209.752 184.491 208.813 184.98 208.144L187.402 209.915ZM177.389 219.708C177.812 218.995 178.732 218.761 179.445 219.184C180.157 219.606 180.392 220.527 179.969 221.239L177.389 219.708ZM173.445 233.175C173.071 233.914 172.168 234.21 171.429 233.836C170.69 233.461 170.394 232.559 170.769 231.82L173.445 233.175ZM164.835 244.257C165.176 243.502 166.065 243.167 166.819 243.508C167.574 243.85 167.909 244.738 167.568 245.493L164.835 244.257ZM162.111 258.04C161.789 258.803 160.91 259.162 160.146 258.84C159.383 258.519 159.024 257.639 159.346 256.876L162.111 258.04ZM154.105 269.584C154.417 268.816 155.292 268.447 156.059 268.759C156.827 269.071 157.196 269.946 156.884 270.713L154.105 269.584ZM151.732 283.442C151.421 284.21 150.546 284.58 149.778 284.269C149.011 283.958 148.64 283.083 148.951 282.315L151.732 283.442ZM143.753 295.02C144.07 294.255 144.948 293.892 145.713 294.21C146.479 294.527 146.841 295.405 146.524 296.17L143.753 295.02ZM141.172 308.8C140.842 309.56 139.959 309.908 139.199 309.578C138.439 309.248 138.091 308.365 138.42 307.605L141.172 308.8ZM132.84 320.078C133.188 319.326 134.079 318.998 134.831 319.346C135.583 319.693 135.911 320.585 135.563 321.337L132.84 320.078ZM129.617 333.737C129.248 334.479 128.347 334.78 127.606 334.411C126.864 334.041 126.563 333.141 126.932 332.399L129.617 333.737ZM120.629 344.526C121.024 343.798 121.935 343.528 122.663 343.923C123.391 344.319 123.661 345.229 123.266 345.957L120.629 344.526ZM116.45 357.952C116.026 358.664 115.105 358.897 114.393 358.473C113.682 358.05 113.448 357.129 113.872 356.417L116.45 357.952ZM106.628 368.007C107.083 367.314 108.013 367.121 108.706 367.576C109.398 368.03 109.591 368.96 109.136 369.653L106.628 368.007ZM101.329 380.967C100.842 381.638 99.9043 381.787 99.2338 381.3C98.5634 380.814 98.4142 379.876 98.9008 379.205L101.329 380.967ZM90.6304 390.031C91.1495 389.386 92.0938 389.283 92.7393 389.802C93.3848 390.322 93.4873 391.266 92.9681 391.911L90.6304 390.031ZM84.0347 402.455C83.483 403.073 82.5348 403.126 81.9168 402.575C81.2988 402.023 81.245 401.075 81.7967 400.457L84.0347 402.455ZM72.4413 410.402C73.0246 409.813 73.9743 409.809 74.5626 410.392C75.1509 410.976 75.1551 411.925 74.5718 412.514L72.4413 410.402ZM64.6575 422.006C64.0444 422.563 63.0957 422.518 62.5386 421.905C61.9814 421.292 62.0267 420.343 62.6398 419.786L64.6575 422.006ZM52.3004 428.703C52.9415 428.179 53.8865 428.273 54.4112 428.914C54.9359 429.555 54.8415 430.5 54.2004 431.025L52.3004 428.703ZM43.2702 439.515C42.6034 440.007 41.6643 439.865 41.1727 439.198C40.6813 438.531 40.8234 437.592 41.4902 437.1L43.2702 439.515ZM30.3984 444.866C31.0883 444.408 32.0194 444.595 32.478 445.285C32.9368 445.975 32.7494 446.906 32.0596 447.364L30.3984 444.866ZM20.3345 454.767C19.6239 455.193 18.7026 454.962 18.2769 454.251C17.851 453.54 18.0819 452.619 18.7925 452.193L20.3345 454.767ZM6.99133 458.912C7.71997 458.518 8.63013 458.79 9.02429 459.518C9.41833 460.247 9.14697 461.157 8.41833 461.551L6.99133 458.912ZM995.878 0.623361C997.751 2.17283 999.594 3.7371 1001.41 5.31639L999.433 7.57739C997.642 6.01569 995.82 4.46837 993.966 2.93523L995.878 0.623361ZM1012.06 15.1486C1015.56 18.5665 1018.91 22.0515 1022.12 25.6053L1019.89 27.6138C1016.73 24.1089 1013.42 20.6694 1009.97 17.2939L1012.06 15.1486ZM1031.46 36.7131C1034.46 40.5589 1037.3 44.4814 1039.96 48.4826L1037.46 50.1439C1034.85 46.2088 1032.05 42.3485 1029.09 38.561L1031.46 36.7131ZM1047.51 60.9008C1049.85 65.1575 1052.01 69.4985 1053.96 73.9256L1051.22 75.1375C1049.3 70.7928 1047.18 66.5308 1044.88 62.3495L1047.51 60.9008ZM1059.23 87.4831C1060.76 92.0585 1062.1 96.7205 1063.21 101.471L1060.29 102.159C1059.2 97.4993 1057.89 92.9267 1056.38 88.4389L1059.23 87.4831ZM1065.89 115.768C1066.56 120.51 1067.02 125.335 1067.28 130.244L1064.28 130.398C1064.03 125.576 1063.58 120.839 1062.92 116.186L1065.89 115.768ZM1067.41 144.766C1067.26 149.517 1066.92 154.342 1066.38 159.245L1063.4 158.918C1063.93 154.091 1064.26 149.342 1064.41 144.671L1067.41 144.766ZM1064.29 173.613C1063.44 178.274 1062.43 183.002 1061.24 187.798L1058.32 187.076C1059.5 182.34 1060.5 177.675 1061.33 173.078L1064.29 173.613ZM1057.34 201.745C1055.94 206.266 1054.39 210.846 1052.69 215.484L1049.87 214.45C1051.56 209.858 1053.09 205.328 1054.48 200.857L1057.34 201.745ZM1047.39 228.938C1046.46 231.149 1045.49 233.374 1044.5 235.611L1041.76 234.389C1042.74 232.171 1043.7 229.966 1044.62 227.775L1047.39 228.938ZM1044.5 235.611C1043.53 237.784 1042.5 239.911 1041.42 241.994L1038.75 240.609C1039.81 238.58 1040.81 236.507 1041.76 234.389L1044.5 235.611ZM1034.18 254.035C1031.52 257.907 1028.63 261.594 1025.52 265.102L1023.28 263.114C1026.3 259.696 1029.12 256.104 1031.71 252.335L1034.18 254.035ZM1015.61 275.057C1012.15 278.153 1008.5 281.078 1004.65 283.839L1002.9 281.402C1006.66 278.702 1010.24 275.843 1013.61 272.822L1015.61 275.057ZM992.86 291.459C988.873 293.776 984.725 295.949 980.423 297.981L979.142 295.269C983.37 293.271 987.443 291.138 991.353 288.865L992.86 291.459ZM967.552 303.474C963.284 305.115 958.889 306.638 954.375 308.046L953.481 305.182C957.937 303.793 962.271 302.291 966.476 300.674L967.552 303.474ZM940.937 311.814C936.489 312.929 931.94 313.945 927.295 314.866L926.711 311.923C931.31 311.012 935.81 310.006 940.208 308.904L940.937 311.814ZM913.484 317.281C908.967 317.971 904.369 318.579 899.696 319.107L899.359 316.126C903.995 315.602 908.554 314.999 913.032 314.316L913.484 317.281ZM885.842 320.424C881.255 320.781 876.603 321.068 871.888 321.285L871.75 318.288C876.434 318.072 881.055 317.788 885.61 317.433L885.842 320.424ZM857.951 321.727C853.372 321.808 848.742 321.829 844.061 321.791L844.085 318.792C848.741 318.829 853.346 318.808 857.898 318.728L857.951 321.727ZM830.09 321.51C825.499 321.364 820.866 321.165 816.191 320.914L816.352 317.918C821.005 318.168 825.617 318.366 830.185 318.512L830.09 321.51ZM802.314 320.028C797.7 319.687 793.051 319.299 788.367 318.864L788.645 315.877C793.31 316.31 797.941 316.696 802.535 317.036L802.314 320.028ZM774.588 317.463C770 316.957 765.383 316.409 760.739 315.819L761.117 312.843C765.745 313.43 770.346 313.977 774.917 314.481L774.588 317.463ZM746.953 313.96C742.391 313.31 737.807 312.621 733.2 311.896L733.667 308.933C738.259 309.656 742.83 310.342 747.376 310.99L746.953 313.96ZM719.435 309.631C714.899 308.853 710.345 308.04 705.773 307.194L706.319 304.245C710.878 305.088 715.42 305.898 719.943 306.674L719.435 309.631ZM692.063 304.568C687.546 303.674 683.016 302.749 678.472 301.793L679.09 298.857C683.622 299.811 688.141 300.734 692.645 301.625L692.063 304.568ZM664.85 298.845C660.345 297.844 655.83 296.813 651.306 295.755L651.989 292.834C656.503 293.89 661.007 294.918 665.501 295.917L664.85 298.845ZM637.766 292.512C633.277 291.411 628.78 290.284 624.278 289.132L625.022 286.225C629.514 287.376 634.001 288.5 638.481 289.598L637.766 292.512ZM610.818 285.614C606.346 284.421 601.871 283.204 597.393 281.964L598.194 279.072C602.663 280.311 607.129 281.525 611.591 282.715L610.818 285.614ZM584.009 278.187C579.557 276.908 575.105 275.607 570.653 274.283L571.508 271.407C575.951 272.728 580.395 274.027 584.837 275.303L584.009 278.187ZM557.343 270.26C552.913 268.9 548.485 267.518 544.062 266.116L544.968 263.256C549.383 264.655 553.802 266.034 558.224 267.393L557.343 270.26ZM530.823 261.856C526.417 260.417 522.016 258.959 517.622 257.482L518.578 254.638C522.963 256.113 527.356 257.568 531.755 259.005L530.823 261.856ZM504.454 252.992C500.072 251.477 495.699 249.944 491.336 248.394L492.341 245.567C496.696 247.115 501.061 248.645 505.434 250.157L504.454 252.992ZM478.24 243.679C473.883 242.089 469.538 240.483 465.206 238.861L466.258 236.052C470.582 237.671 474.919 239.274 479.269 240.861L478.24 243.679ZM452.189 233.924C447.856 232.26 443.538 230.581 439.237 228.887L440.337 226.095C444.63 227.786 448.94 229.463 453.264 231.124L452.189 233.924ZM426.307 223.73C421.998 221.991 417.709 220.237 413.439 218.47L414.586 215.698C418.848 217.462 423.13 219.212 427.43 220.948L426.307 223.73ZM400.606 213.095C398.478 212.192 396.355 211.287 394.238 210.378L395.422 207.621C397.535 208.528 399.653 209.432 401.777 210.333L400.606 213.095ZM394.238 210.378C392.025 209.428 389.834 208.498 387.667 207.589L388.828 204.822C391.003 205.735 393.201 206.668 395.422 207.621L394.238 210.378ZM374.938 202.372C370.638 200.653 366.435 199.02 362.325 197.47L363.384 194.663C367.512 196.22 371.734 197.861 376.051 199.586L374.938 202.372ZM349.335 192.736C344.939 191.193 340.658 189.752 336.488 188.412L337.406 185.556C341.603 186.905 345.909 188.354 350.329 189.906L349.335 192.736ZM323.377 184.42C318.82 183.114 314.407 181.939 310.132 180.89L310.847 177.977C315.161 179.035 319.612 180.22 324.204 181.536L323.377 184.42ZM297.079 177.995C292.353 177.064 287.813 176.304 283.449 175.71L283.854 172.738C288.281 173.34 292.879 174.109 297.659 175.051L297.079 177.995ZM269.878 174.351C265.142 174.061 260.639 173.992 256.352 174.132L256.253 171.134C260.641 170.99 265.239 171.061 270.062 171.357L269.878 174.351ZM242.92 175.347C238.268 176.062 233.907 177.066 229.804 178.34L228.915 175.474C233.166 174.155 237.674 173.118 242.465 172.382L242.92 175.347ZM217.377 183.381C213.33 185.45 209.565 187.838 206.038 190.519L204.222 188.131C207.886 185.346 211.801 182.862 216.011 180.71L217.377 183.381ZM196.036 199.515C192.983 202.726 190.118 206.2 187.402 209.915L184.98 208.144C187.763 204.338 190.71 200.762 193.863 197.448L196.036 199.515ZM179.969 221.239C177.71 225.045 175.545 229.03 173.445 233.175L170.769 231.82C172.894 227.625 175.09 223.58 177.389 219.708L179.969 221.239ZM167.568 245.493C165.727 249.563 163.916 253.75 162.111 258.04L159.346 256.876C161.158 252.569 162.98 248.357 164.835 244.257L167.568 245.493ZM156.884 270.713C155.187 274.889 153.479 279.13 151.732 283.442L148.951 282.315C150.694 278.013 152.408 273.759 154.105 269.584L156.884 270.713ZM146.524 296.17C144.794 300.34 143.016 304.554 141.172 308.8L138.42 307.605C140.256 303.378 142.028 299.179 143.753 295.02L146.524 296.17ZM135.563 321.337C133.661 325.454 131.684 329.591 129.617 333.737L126.932 332.399C128.984 328.282 130.949 324.172 132.84 320.078L135.563 321.337ZM123.266 345.957C121.094 349.958 118.826 353.959 116.45 357.952L113.872 356.417C116.227 352.461 118.475 348.495 120.629 344.526L123.266 345.957ZM109.136 369.653C106.649 373.443 104.05 377.217 101.329 380.967L98.9008 379.205C101.594 375.494 104.166 371.759 106.628 368.007L109.136 369.653ZM92.9681 391.911C90.1169 395.457 87.1425 398.973 84.0347 402.455L81.7967 400.457C84.8693 397.015 87.8105 393.537 90.6304 390.031L92.9681 391.911ZM74.5718 412.514C71.3962 415.717 68.0942 418.883 64.6575 422.006L62.6398 419.786C66.0376 416.698 69.302 413.568 72.4413 410.402L74.5718 412.514ZM54.2004 431.025C50.6875 433.9 47.0464 436.732 43.2702 439.515L41.4902 437.1C45.2256 434.347 48.8266 431.546 52.3004 428.703L54.2004 431.025ZM32.0596 447.364C28.2773 449.879 24.371 452.348 20.3345 454.767L18.7925 452.193C22.7889 449.799 26.6555 447.355 30.3984 444.866L32.0596 447.364ZM8.41833 461.551C6.37146 462.658 4.29382 463.753 2.18469 464.835L0.815308 462.165C2.90527 461.093 4.96375 460.009 6.99133 458.912L8.41833 461.551Z" fill="#E3E3E3"/>
</svg>
