<svg width="76" height="54" viewBox="0 0 76 54" fill="none" xmlns="http://www.w3.org/2000/svg">
  <path d="M52.2157 0C49.1777 0.00143574 46.1897 0.771241 43.5318 2.2373C40.8739 3.70336 38.6329 5.81769 37.0189 8.38222C35.4049 10.9467 34.4706 13.8775 34.3036 16.9C34.1366 19.9225 34.7423 22.9378 36.064 25.6634C36.1933 25.539 36.327 25.4191 36.4696 25.2992C37.5497 24.4131 38.8706 23.8682 40.2633 23.7345C41.6559 23.6008 43.0569 23.8843 44.2869 24.5487C44.5053 24.6731 44.5232 24.753 44.3315 24.9173C43.8975 25.3051 43.5034 25.735 43.1549 26.2007C41.9576 27.6993 41.1576 29.4737 40.8284 31.3609C40.8205 31.4563 40.7849 31.5473 40.7259 31.6229C41.2567 32.0639 41.8133 32.4732 42.3928 32.8486C42.5131 30.715 43.3322 28.6795 44.7245 27.0541C46.1168 25.4287 48.0056 24.303 50.1014 23.8494C52.1973 23.3959 54.3846 23.6396 56.3281 24.5431C58.2717 25.4466 59.8643 26.9602 60.862 28.8518C61.5302 30.088 61.9082 31.4591 61.9673 32.8619C62.5708 32.4743 63.1498 32.0502 63.701 31.5918C63.6457 31.5142 63.6105 31.4242 63.5985 31.3298C63.2641 29.4545 62.466 27.6917 61.2765 26.2007C60.9243 25.7449 60.5305 25.3227 60.0999 24.9395C59.9082 24.7752 59.9261 24.6953 60.1444 24.5709C61.3736 23.9053 62.7741 23.6203 64.1667 23.7525C65.5594 23.8846 66.8808 24.4278 67.9618 25.3125C68.1044 25.428 68.2336 25.5523 68.3629 25.6767C69.6875 22.9509 70.2957 19.9346 70.1304 16.9106C69.9651 13.8866 69.0318 10.9539 67.4179 8.38764C65.8041 5.82133 63.5625 3.70544 60.9035 2.23837C58.2445 0.771292 55.2551 0.00109724 52.2157 0V0ZM40.971 22.6481C40.1762 22.6551 39.3972 22.4267 38.7329 21.9918C38.0686 21.557 37.5489 20.9352 37.2399 20.2056C36.9308 19.4759 36.8463 18.6712 36.997 17.8936C37.1477 17.116 37.5269 16.4005 38.0864 15.838C38.6459 15.2755 39.3606 14.8913 40.1396 14.7342C40.9187 14.5771 41.727 14.6541 42.462 14.9556C43.1971 15.257 43.8256 15.7692 44.268 16.4272C44.7103 17.0852 44.9465 17.8594 44.9466 18.6513C44.9519 19.1747 44.8529 19.6939 44.6554 20.1788C44.458 20.6638 44.1659 21.1049 43.7962 21.4766C43.4264 21.8484 42.9863 22.1433 42.5014 22.3444C42.0164 22.5454 41.4963 22.6487 40.971 22.6481ZM52.1399 22.204C51.077 22.197 50.04 21.8766 49.1595 21.2833C48.279 20.69 47.5945 19.8503 47.1922 18.8699C46.7899 17.8896 46.6878 16.8126 46.8989 15.7746C47.1099 14.7366 47.6246 13.784 48.378 13.037C49.1315 12.2899 50.09 11.7818 51.1328 11.5767C52.1756 11.3716 53.256 11.4786 54.2379 11.8843C55.2197 12.29 56.0591 12.9762 56.6502 13.8564C57.2413 14.7366 57.5577 15.7715 57.5595 16.8306C57.5655 17.5402 57.4292 18.2438 57.1586 18.9001C56.888 19.5565 56.4886 20.1524 55.9838 20.6529C55.479 21.1534 54.879 21.5485 54.2189 21.8148C53.5588 22.0811 52.852 22.2135 52.1399 22.204ZM63.4559 22.6481C62.6635 22.6437 61.8902 22.4055 61.2335 21.9637C60.5768 21.5219 60.0662 20.8962 59.766 20.1655C59.4658 19.4348 59.3895 18.6319 59.5468 17.8581C59.7041 17.0843 60.0879 16.3742 60.6497 15.8175C61.2116 15.2607 61.9263 14.8823 62.7038 14.7299C63.4813 14.5774 64.2866 14.6579 65.0183 14.961C65.7499 15.2642 66.3751 15.7764 66.8149 16.4332C67.2546 17.09 67.4893 17.8618 67.4893 18.6513C67.4948 19.1796 67.394 19.7035 67.1929 20.1923C66.9918 20.6811 66.6946 21.1249 66.3187 21.4974C65.9427 21.8699 65.4958 22.1636 65.0041 22.3612C64.5124 22.5589 63.986 22.6564 63.4559 22.6481Z" fill="url(#paint0_linear_0_1)"/>
  <path d="M75.8326 38.6349C75.8186 36.9995 75.5169 35.3792 74.9412 33.8477C74.2086 32.0645 73.2273 30.3931 72.0264 28.8829C71.9765 28.8221 71.9125 28.7744 71.84 28.7438C71.7674 28.7131 71.6885 28.7006 71.6099 28.7071C71.5314 28.7137 71.4557 28.7392 71.3893 28.7814C71.3228 28.8236 71.2677 28.8813 71.2286 28.9495C70.4154 30.314 69.4527 31.5844 68.3584 32.7375C68.2832 32.818 68.2375 32.9214 68.2286 33.031C68.2197 33.1406 68.2482 33.25 68.3094 33.3414C69.2498 34.7447 70.2036 36.9207 70.3328 38.4617C70.4386 39.721 70.2818 40.9885 69.8722 42.1846C69.4627 43.3806 68.8092 44.4793 67.9528 45.4115C67.1238 46.3275 66.1113 47.06 64.9804 47.5618C63.8496 48.0636 62.6258 48.3235 61.3879 48.3247C56.2001 48.3247 50.9232 48.3247 45.8201 48.3247H17.2026C11.48 48.3247 7.00531 44.7054 5.7975 39.11C5.49821 37.6199 5.50913 36.0845 5.82959 34.5988C6.15004 33.113 6.77319 31.7087 7.66047 30.4727C8.53726 29.2078 9.66599 28.1363 10.9764 27.325C12.2868 26.5136 13.7508 25.9797 15.2772 25.7565C16.7797 25.5477 18.3077 25.6108 19.7876 25.9431C21.7753 26.3871 22.9564 25.7121 23.6205 23.7804C24.4049 21.4845 27.5693 17.9718 29.7353 17.0837C30.1538 16.9115 30.5862 16.7748 31.0278 16.6751C31.1318 16.6543 31.2257 16.5991 31.2945 16.5185C31.3632 16.438 31.4027 16.3367 31.4066 16.231C31.5417 14.6427 31.8541 13.0743 32.3381 11.5549C32.3634 11.4768 32.3686 11.3937 32.3531 11.3131C32.3377 11.2325 32.3021 11.1571 32.2497 11.0938C32.1973 11.0306 32.1298 10.9815 32.0533 10.9511C31.9768 10.9206 31.8939 10.9099 31.8122 10.9199C26.6021 11.546 21.4411 15.6449 19.0789 20.1301C17.4041 19.92 15.7068 19.9694 14.0471 20.2766C11.8504 20.6587 9.75219 21.4733 7.87505 22.6727C5.99791 23.8721 4.37952 25.4322 3.11447 27.262C1.82079 29.0677 0.901762 31.1125 0.411207 33.2766C-0.0793482 35.4406 -0.131562 37.6805 0.257624 39.8649C0.954421 43.7988 3.01407 47.3644 6.07784 49.9408C9.1416 52.5172 13.0153 53.9411 17.0243 53.9645C25.0066 53.9911 32.3158 54 39.1749 54C47.0413 54 54.3282 54 61.2898 53.9556C66.3127 53.9289 70.5334 51.6863 73.4838 47.4587C73.9623 46.7755 74.3714 46.0466 74.705 45.2827C75.5182 43.3939 75.9076 41.3509 75.8459 39.2965L75.8326 38.6349Z" fill="url(#paint1_linear_0_1)"/>
  <defs>
    <linearGradient id="paint0_linear_0_1" x1="21.0266" y1="16.3688" x2="64.0175" y2="16.4493" gradientUnits="userSpaceOnUse">
      <stop stop-color="#00BAF4"/>
      <stop offset="1" stop-color="#00A1EF"/>
    </linearGradient>
    <linearGradient id="paint1_linear_0_1" x1="-0.00533019" y1="32.4666" x2="75.8504" y2="32.4666" gradientUnits="userSpaceOnUse">
      <stop stop-color="#00BAF4"/>
      <stop offset="1" stop-color="#00A1EF"/>
    </linearGradient>
  </defs>
</svg>
