<svg width="163" height="115" viewBox="0 0 163 115" fill="none" xmlns="http://www.w3.org/2000/svg">
<path d="M162.67 81.25C162.632 77.7271 161.979 74.238 160.74 70.94C159.166 67.1025 157.062 63.5043 154.49 60.25C154.389 60.1095 154.254 59.9974 154.097 59.9248C153.941 59.8522 153.768 59.8214 153.595 59.8355C153.423 59.8496 153.257 59.9081 153.115 60.0053C152.972 60.1024 152.856 60.235 152.78 60.39C151.036 63.3304 148.97 66.0673 146.62 68.55C146.449 68.7176 146.344 68.941 146.324 69.1796C146.304 69.4181 146.37 69.656 146.51 69.85C148.51 72.85 150.57 77.55 150.85 80.85C151.084 83.5671 150.752 86.3033 149.874 88.8853C148.996 91.4673 147.592 93.8389 145.75 95.85C143.971 97.8238 141.798 99.4026 139.371 100.484C136.944 101.566 134.317 102.127 131.66 102.13C120.54 102.13 109.22 102.13 98.28 102.13H36.91C24.63 102.13 15.03 94.34 12.45 82.3C11.8029 79.0864 11.8241 75.774 12.5122 72.5689C13.2004 69.3639 14.5408 66.3347 16.45 63.67C18.3294 60.946 20.7489 58.6375 23.5581 56.888C26.3674 55.1385 29.5063 53.9852 32.78 53.5C36.0052 53.0567 39.2838 53.1956 42.46 53.91C46.72 54.85 49.25 53.41 50.67 49.25C52.36 44.31 59.15 36.75 63.79 34.83C64.6921 34.477 65.622 34.1994 66.57 34C66.7879 33.9583 66.9858 33.8452 67.1325 33.6786C67.2791 33.5121 67.3662 33.3015 67.38 33.08C67.6637 29.6585 68.3346 26.2802 69.38 23.01C69.4493 22.8419 69.4715 22.658 69.4442 22.4782C69.4168 22.2984 69.3409 22.1294 69.2247 21.9896C69.1085 21.8497 68.9563 21.7441 68.7846 21.6843C68.6128 21.6245 68.428 21.6126 68.25 21.65C57.07 22.93 46 31.74 40.94 41.39C37.3448 40.9432 33.7024 41.0512 30.14 41.71C20.6558 43.435 12.233 48.8273 6.69642 56.7185C1.1598 64.6098 -1.04487 74.3647 0.559994 83.87C2.05626 92.3449 6.47931 100.026 13.0581 105.574C19.6369 111.122 27.9542 114.185 36.56 114.23C53.68 114.23 69.36 114.31 84.07 114.31C100.94 114.31 116.53 114.31 131.5 114.2C142.28 114.2 151.33 109.32 157.66 100.2C158.684 98.7293 159.562 97.1618 160.28 95.52C162.022 91.4555 162.858 87.0603 162.73 82.64L162.67 81.25Z" fill="url(#paint0_linear_1_4)"/>
<path d="M113.09 0C105.711 0 98.4973 2.18819 92.3617 6.28787C86.2261 10.3875 81.4439 16.2146 78.62 23.0321C75.7961 29.8496 75.0573 37.3514 76.4969 44.5888C77.9365 51.8263 81.4899 58.4743 86.7078 63.6922C91.9257 68.9101 98.5737 72.4635 105.811 73.9031C113.049 75.3427 120.55 74.6039 127.368 71.7799C134.185 68.956 140.012 64.1739 144.112 58.0383C148.212 51.9027 150.4 44.6892 150.4 37.31C150.4 32.4104 149.435 27.5587 147.56 23.0321C145.685 18.5054 142.937 14.3924 139.472 10.9278C136.008 7.46329 131.895 4.71506 127.368 2.84005C122.841 0.965052 117.99 0 113.09 0ZM133.83 32.38C135.28 32.3919 136.695 32.8332 137.894 33.6482C139.094 34.4632 140.026 35.6155 140.571 36.9594C141.117 38.3034 141.252 39.7788 140.959 41.1994C140.667 42.6201 139.96 43.9223 138.928 44.9416C137.896 45.9609 136.586 46.6516 135.162 46.9266C133.737 47.2016 132.264 47.0485 130.927 46.4867C129.589 45.9248 128.449 44.9794 127.648 43.7697C126.848 42.5601 126.424 41.1404 126.43 39.69C126.424 38.7209 126.613 37.7605 126.984 36.8652C127.355 35.9699 127.901 35.1579 128.591 34.4768C129.28 33.7957 130.099 33.2594 130.999 32.8993C131.898 32.5392 132.861 32.3627 133.83 32.38ZM113 26.46C114.954 26.4541 116.867 27.028 118.495 28.1091C120.123 29.1902 121.394 30.73 122.147 32.5337C122.9 34.3373 123.101 36.3237 122.725 38.2417C122.349 40.1596 121.412 41.9229 120.034 43.3085C118.655 44.694 116.897 45.6395 114.981 46.0254C113.065 46.4114 111.077 46.2203 109.27 45.4765C107.462 44.7326 105.916 43.4694 104.827 41.8467C103.738 40.2239 103.154 38.3145 103.15 36.36C103.158 33.7454 104.196 31.2394 106.041 29.3859C107.885 27.5324 110.385 26.4811 113 26.46ZM92.36 32.38C93.8125 32.3701 95.2353 32.7914 96.4483 33.5906C97.6612 34.3898 98.6098 35.5309 99.1738 36.8694C99.7379 38.208 99.8922 39.6838 99.6171 41.1101C99.3419 42.5363 98.6498 43.8489 97.6283 44.8816C96.6068 45.9143 95.3019 46.6207 93.8787 46.9114C92.4556 47.202 90.9781 47.0639 89.6335 46.5145C88.2889 45.965 87.1375 45.029 86.3251 43.8248C85.5128 42.6207 85.076 41.2025 85.07 39.75C85.0581 38.7856 85.2379 37.8284 85.599 36.9341C85.9602 36.0398 86.4954 35.2261 87.1737 34.5404C87.8519 33.8547 88.6597 33.3106 89.55 32.9397C90.4404 32.5689 91.3955 32.3786 92.36 32.38ZM92.15 63.26C88.578 60.2923 85.6802 56.5967 83.65 52.42L84.2 51.93C86.1823 50.3001 88.606 49.2989 91.1607 49.0549C93.7155 48.8108 96.2849 49.3349 98.54 50.56C98.94 50.78 98.98 50.92 98.62 51.23C97.8293 51.9344 97.1062 52.7111 96.46 53.55C94.2695 56.3116 92.805 59.5775 92.2 63.05C92.1904 63.1215 92.1736 63.1918 92.15 63.26ZM113.09 70.83C106.69 70.8472 100.427 68.9719 95.09 65.44C95.3952 61.5524 96.9546 57.869 99.5336 54.9441C102.113 52.0192 105.572 50.0109 109.391 49.2214C113.209 48.432 117.181 48.904 120.709 50.5665C124.236 52.229 127.128 54.9921 128.95 58.44C130.118 60.6215 130.8 63.0299 130.95 65.5C125.641 68.9737 119.435 70.8258 113.09 70.83ZM134 63.26C133.973 63.1923 133.953 63.1219 133.94 63.05C133.335 59.5775 131.87 56.3116 129.68 53.55C129.037 52.7111 128.318 51.9344 127.53 51.23C127.18 50.92 127.21 50.78 127.61 50.56C129.872 49.3267 132.45 48.7981 135.015 49.0422C137.579 49.2863 140.012 50.2921 142 51.93C142.19 52.09 142.37 52.26 142.54 52.42C140.498 56.6005 137.586 60.2964 134 63.26Z" fill="url(#paint1_linear_1_4)"/>
<defs>
<linearGradient id="paint0_linear_1_4" x1="30.62" y1="112.37" x2="177.84" y2="15.37" gradientUnits="userSpaceOnUse">
<stop stop-color="#00BAF4"/>
<stop offset="1" stop-color="#00A1EF"/>
</linearGradient>
<linearGradient id="paint1_linear_1_4" x1="39.94" y1="14.56" x2="167.18" y2="54.14" gradientUnits="userSpaceOnUse">
<stop stop-color="#00BAF4"/>
<stop offset="1" stop-color="#00A1EF"/>
</linearGradient>
</defs>
</svg>
