<svg width="237" height="54" viewBox="0 0 237 54" xmlns="http://www.w3.org/2000/svg">
<path d="M104.673 33.1373C103.819 34.1859 102.737 35.0272 101.508 35.5975C100.275 36.1369 98.9452 36.425 97.5981 36.4448C96.251 36.4646 94.9136 36.2158 93.6644 35.713C92.5405 35.2521 91.5193 34.5742 90.6595 33.7183C89.7998 32.8623 89.1185 31.8454 88.6549 30.726C87.9156 28.9824 87.7116 27.0597 88.0685 25.2007C88.4255 23.3416 89.3275 21.6297 90.6605 20.2812C91.5225 19.4287 92.5427 18.7515 93.6644 18.2873C94.8555 17.7919 96.1353 17.5426 97.426 17.5546C98.7466 17.528 100.057 17.7871 101.268 18.314C102.394 18.8349 103.398 19.5835 104.218 20.5122L101.812 22.8347C101.288 22.227 100.657 21.7211 99.9486 21.3426C99.1749 20.9565 98.3178 20.7658 97.4527 20.7875C96.6366 20.7812 95.827 20.932 95.0683 21.2316C94.3488 21.5141 93.6939 21.9386 93.1429 22.4794C92.571 23.032 92.1163 23.6934 91.8059 24.4245C91.1661 26.0732 91.1661 27.9004 91.8059 29.5492C92.111 30.2935 92.566 30.9676 93.1429 31.5298C93.6988 32.072 94.358 32.4978 95.0817 32.7821C95.841 33.0797 96.6502 33.2304 97.4661 33.2262C98.4022 33.2447 99.3284 33.0327 100.163 32.6089C100.978 32.169 101.691 31.5639 102.257 30.8326L104.673 33.1373Z" fill="#00A1EF"/>
<path d="M97.426 36.6275C96.1094 36.64 94.8039 36.3862 93.5886 35.8814C92.4418 35.4131 91.3997 34.7224 90.523 33.8496C89.6462 32.9767 88.9521 31.939 88.4811 30.7967C87.4829 28.3632 87.4829 25.6365 88.4811 23.203C88.9544 22.0621 89.6493 21.0256 90.5258 20.153C91.4023 19.2804 92.4432 18.5889 93.5886 18.1183C94.8031 17.616 96.1066 17.3623 97.4215 17.3722C98.7678 17.3475 100.104 17.611 101.339 18.1449C102.485 18.6715 103.511 19.4273 104.352 20.3653L104.468 20.4985L101.794 23.0786L101.669 22.9321C101.161 22.3423 100.547 21.8514 99.8594 21.4844C99.1116 21.1129 98.2836 20.9299 97.4483 20.9515C96.6559 20.9518 95.8709 21.1025 95.1351 21.3956C94.433 21.67 93.7934 22.0823 93.2544 22.6079C92.7095 23.1493 92.2791 23.7941 91.9886 24.5041C91.3706 26.1079 91.3706 27.8829 91.9886 29.4867C92.2795 30.1978 92.7098 30.844 93.2544 31.3873C93.7937 31.9115 94.4333 32.3223 95.1351 32.5952C95.8707 32.889 96.6558 33.0397 97.4483 33.0393C98.3583 33.049 99.2567 32.8355 100.064 32.4176C100.852 31.9943 101.544 31.4138 102.097 30.7123L102.222 30.5569L104.927 33.1104L104.815 33.2392C103.941 34.3078 102.837 35.1669 101.584 35.7526C100.279 36.3445 98.8597 36.6432 97.426 36.6275ZM97.426 17.7408C96.1602 17.7298 94.9051 17.973 93.7357 18.4558C92.0439 19.1596 90.5989 20.3465 89.5825 21.8668C88.5661 23.3871 88.0238 25.1731 88.0238 26.9998C88.0238 28.8266 88.5661 30.6125 89.5825 32.1329C90.5989 33.6532 92.0439 34.84 93.7357 35.5439C94.9606 36.0372 96.2722 36.2815 97.5932 36.2624C98.9143 36.2433 100.218 35.9613 101.428 35.4329C102.58 34.8967 103.602 34.1179 104.423 33.1503L102.257 31.1076C101.698 31.7827 101.013 32.3424 100.238 32.7551C99.3764 33.1925 98.4198 33.4121 97.4527 33.3946C96.6147 33.4029 95.7828 33.2522 95.0014 32.9505C94.2553 32.6578 93.575 32.22 93.0003 31.6627C92.424 31.0846 91.9694 30.3977 91.6633 29.6421C91.0039 27.948 91.0039 26.0695 91.6633 24.3753C91.9694 23.6211 92.424 22.9356 93.0003 22.3592C93.5736 21.7991 94.2542 21.3596 95.0014 21.0669C95.7828 20.7652 96.6147 20.6145 97.4527 20.6229C98.3473 20.602 99.2334 20.8003 100.033 21.2002C100.702 21.5578 101.305 22.0263 101.816 22.5857L103.96 20.5207C103.177 19.6699 102.234 18.9817 101.183 18.4957C99.9978 17.9864 98.7165 17.7366 97.426 17.763V17.7408Z" fill="#00A1EF"/>
<path d="M106.754 23.6652H109.874V25.3837H110.079C110.234 25.0754 110.438 24.7947 110.685 24.5533C110.941 24.2989 111.227 24.0766 111.536 23.8916C111.856 23.7055 112.195 23.5565 112.548 23.4476C112.896 23.3335 113.26 23.2735 113.627 23.2699C114.008 23.2631 114.387 23.311 114.754 23.412C115.037 23.4929 115.306 23.6157 115.552 23.7762L114.661 26.7337C114.447 26.6273 114.221 26.5468 113.988 26.4939C113.695 26.4287 113.396 26.3989 113.096 26.4051C112.672 26.3915 112.25 26.4734 111.862 26.6449C111.492 26.8181 111.168 27.0733 110.913 27.391C110.642 27.7283 110.435 28.1121 110.302 28.5234C110.156 28.9783 110.083 29.4535 110.088 29.9311V36.0416H106.768L106.754 23.6652Z" fill="#00A1EF"/>
<path d="M110.257 36.2233H106.572V23.4826H110.052V25.0413C110.196 24.8167 110.363 24.6083 110.552 24.4196C110.819 24.1558 111.119 23.9261 111.443 23.7357C111.776 23.5373 112.13 23.3779 112.499 23.2606C113.251 23.0264 114.055 23.0156 114.812 23.2295C115.113 23.3131 115.399 23.4435 115.659 23.6158L115.771 23.6913L114.786 26.9864L114.59 26.8887C114.389 26.7874 114.176 26.7114 113.957 26.6622C113.674 26.6002 113.386 26.5718 113.096 26.5778C112.696 26.5733 112.3 26.6583 111.938 26.8265C111.591 26.9884 111.286 27.2269 111.046 27.5237C110.79 27.8445 110.594 28.2085 110.467 28.5984C110.33 29.0292 110.261 29.4787 110.262 29.9306L110.257 36.2233ZM106.959 35.8591H109.91V29.9484C109.905 29.4509 109.982 28.9559 110.137 28.4829C110.275 28.0499 110.493 27.6463 110.779 27.2928C111.052 26.9542 111.398 26.6811 111.791 26.4935C112.209 26.2994 112.666 26.2022 113.128 26.2093C113.626 26.1908 114.123 26.2787 114.585 26.4668L115.374 23.8468C115.173 23.7328 114.959 23.6433 114.737 23.5803C114.05 23.3865 113.322 23.3973 112.642 23.6114C112.301 23.7219 111.973 23.8709 111.666 24.0555C111.37 24.2342 111.096 24.4474 110.85 24.6905C110.619 24.9203 110.426 25.1857 110.28 25.4765L110.226 25.5742H109.727V23.8512H106.959V35.8591Z" fill="#00A1EF"/>
<path d="M122.188 23.2607C123.095 23.2502 123.994 23.4177 124.836 23.7537C125.618 24.062 126.328 24.5274 126.921 25.1211C127.515 25.7147 127.979 26.4238 128.285 27.2041C128.939 28.9116 128.939 30.799 128.285 32.5065C127.98 33.289 127.516 34.0004 126.923 34.5964C126.329 35.1923 125.619 35.66 124.836 35.9703C123.132 36.6275 121.244 36.6275 119.541 35.9703C118.76 35.662 118.05 35.197 117.457 34.6042C116.864 34.0114 116.399 33.3035 116.091 32.5242C115.432 30.8179 115.432 28.9283 116.091 27.2219C116.398 26.4416 116.862 25.7325 117.456 25.1389C118.049 24.5452 118.759 24.0797 119.541 23.7714C120.381 23.4293 121.281 23.2558 122.188 23.2607ZM122.188 33.3902C122.61 33.3906 123.028 33.3091 123.418 33.1504C123.814 32.9928 124.172 32.7554 124.47 32.4532C124.784 32.1357 125.03 31.758 125.192 31.343C125.378 30.8691 125.468 30.3638 125.46 29.8553C125.468 29.3454 125.377 28.8387 125.192 28.3632C125.029 27.9487 124.783 27.5712 124.47 27.253C124.171 26.9532 123.813 26.7174 123.418 26.5602C122.625 26.2405 121.738 26.2405 120.945 26.5602C120.556 26.7203 120.203 26.9558 119.906 27.253C119.594 27.5712 119.348 27.9487 119.184 28.3632C119 28.8387 118.909 29.3454 118.917 29.8553C118.908 30.3638 118.999 30.8691 119.184 31.343C119.347 31.758 119.593 32.1357 119.906 32.4532C120.202 32.7531 120.555 32.9903 120.945 33.1504C121.339 33.3111 121.762 33.3926 122.188 33.3902Z" fill="#00A1EF"/>
<path d="M122.188 36.6278C121.258 36.6383 120.334 36.4663 119.47 36.1216C118.662 35.8052 117.929 35.3264 117.316 34.7152C116.702 34.104 116.222 33.3734 115.904 32.5689C115.226 30.8186 115.226 28.8793 115.904 27.129C116.222 26.3245 116.702 25.5939 117.316 24.9827C117.929 24.3715 118.662 23.8927 119.47 23.5763C121.219 22.9013 123.158 22.9013 124.907 23.5763C125.714 23.8927 126.448 24.3715 127.061 24.9827C127.674 25.5939 128.155 26.3245 128.472 27.129C129.151 28.8793 129.151 30.8186 128.472 32.5689C128.152 33.3709 127.673 34.1004 127.064 34.7138C126.451 35.3178 125.724 35.7948 124.925 36.1171C124.055 36.4656 123.125 36.6392 122.188 36.6278ZM122.188 23.4475C121.305 23.4372 120.428 23.6002 119.608 23.9271C118.851 24.2277 118.164 24.6794 117.589 25.2545C117.014 25.8296 116.564 26.5159 116.265 27.2711C115.623 28.9332 115.623 30.7736 116.265 32.4357C116.567 33.1946 117.022 33.8838 117.602 34.4607C118.179 35.0332 118.863 35.4861 119.617 35.7929C121.277 36.4324 123.117 36.4324 124.778 35.7929C125.531 35.4861 126.216 35.0332 126.792 34.4607C127.372 33.8838 127.827 33.1946 128.129 32.4357C128.771 30.7736 128.771 28.9332 128.129 27.2711C127.831 26.5159 127.38 25.8296 126.805 25.2545C126.23 24.6794 125.543 24.2277 124.787 23.9271C123.961 23.5979 123.078 23.4349 122.188 23.4475ZM122.188 33.5726C121.739 33.5757 121.294 33.4897 120.878 33.3194C120.454 33.1451 120.069 32.8862 119.749 32.5586C119.429 32.231 119.179 31.8416 119.015 31.4143C118.643 30.4113 118.643 29.3088 119.015 28.3058C119.187 27.8676 119.446 27.4687 119.777 27.1334C120.092 26.8175 120.466 26.567 120.878 26.3962C121.715 26.0611 122.649 26.0611 123.485 26.3962C123.903 26.5645 124.282 26.8153 124.599 27.1334C124.931 27.4687 125.19 27.8676 125.362 28.3058C125.734 29.3088 125.734 30.4113 125.362 31.4143C125.19 31.8528 124.931 32.2518 124.599 32.5867C124.282 32.9035 123.903 33.1528 123.485 33.3194C123.074 33.4872 122.633 33.5732 122.188 33.5726ZM122.188 26.5028C121.788 26.5005 121.392 26.5779 121.022 26.7305C120.652 26.883 120.317 27.1075 120.036 27.391C119.744 27.6876 119.513 28.0374 119.354 28.4212C119.021 29.3396 119.021 30.345 119.354 31.2633C119.508 31.6546 119.74 32.011 120.036 32.3114C120.316 32.5927 120.649 32.8161 121.016 32.9686C121.764 33.2687 122.599 33.2687 123.347 32.9686C123.718 32.8224 124.056 32.6034 124.341 32.3247C124.636 32.0243 124.868 31.6679 125.023 31.2767C125.356 30.3583 125.356 29.3529 125.023 28.4346C124.867 28.0428 124.635 27.6853 124.341 27.3821C124.057 27.0998 123.719 26.8778 123.347 26.7293C122.979 26.5797 122.586 26.5028 122.188 26.5028Z" fill="#00A1EF"/>
<path d="M129.337 23.6648H133.063L135.113 31.4184H135.292L137.752 23.6648H141.17L143.657 31.4184H143.831L145.859 23.6648H149.536L145.556 36.0413H141.99L139.494 28.2388H139.316L136.82 36.0413H133.295L129.337 23.6648Z" fill="#00A1EF"/>
<path d="M145.689 36.2233H141.848L139.41 28.5674L136.972 36.2233H133.179L129.083 23.4827H133.201L135.211 31.0853L137.614 23.5049H141.304L143.733 31.0853L145.734 23.4827H149.803L145.689 36.2233ZM142.124 35.8592H145.426L149.286 23.869H146.001L143.973 31.6226H143.528L141.045 23.869H137.894L135.434 31.6226H134.988L132.938 23.869H129.605L133.464 35.8592H136.722L139.205 28.0567H139.65L142.124 35.8592Z" fill="#00A1EF"/>
<path d="M160.054 34.5493H159.849C159.503 35.1106 159.014 35.5704 158.432 35.8815C157.703 36.2724 156.883 36.464 156.056 36.4366C155.361 36.4403 154.673 36.3091 154.028 36.0503C153.213 35.7219 152.48 35.2203 151.88 34.5804C151.316 33.9752 150.873 33.2683 150.574 32.4977C149.931 30.7884 149.931 28.9046 150.574 27.1953C150.873 26.4234 151.316 25.715 151.88 25.1082C152.482 24.4685 153.217 23.9669 154.033 23.6383C154.676 23.3815 155.363 23.2504 156.056 23.2519C156.884 23.226 157.703 23.419 158.432 23.8115C159.013 24.1236 159.502 24.5832 159.849 25.1437H160.054L159.849 23.3674V17.9585H163.169V36.0414H160.049L160.054 34.5493ZM156.733 33.3903C157.163 33.3918 157.588 33.3104 157.986 33.1505C158.381 32.9929 158.739 32.7555 159.038 32.4532C159.356 32.1364 159.606 31.7588 159.773 31.343C160.147 30.3848 160.147 29.3215 159.773 28.3633C159.605 27.9481 159.355 27.5706 159.038 27.2531C158.738 26.9532 158.38 26.7175 157.986 26.5603C157.588 26.4004 157.163 26.319 156.733 26.3205C156.302 26.3193 155.875 26.4039 155.477 26.5692C155.083 26.7361 154.726 26.9774 154.425 27.2797C154.11 27.5988 153.86 27.9759 153.689 28.3899C153.321 29.3324 153.321 30.3784 153.689 31.3208C153.863 31.7296 154.112 32.1018 154.425 32.4177C154.727 32.7174 155.084 32.957 155.477 33.1238C155.873 33.2972 156.301 33.3879 156.733 33.3903Z" fill="#00A1EF"/>
<path d="M156.052 36.6274C155.336 36.629 154.627 36.4948 153.961 36.2322C153.117 35.8929 152.356 35.3747 151.733 34.7135C151.153 34.0926 150.699 33.3657 150.396 32.573C149.736 30.8192 149.736 28.8868 150.396 27.133C150.7 26.3408 151.154 25.6141 151.733 24.9926C152.357 24.3337 153.118 23.8171 153.961 23.4782C154.626 23.2121 155.335 23.0764 156.052 23.0786C156.912 23.0516 157.764 23.2523 158.521 23.6603C159.028 23.9405 159.472 24.3231 159.822 24.7838L159.662 23.4116V17.7629H163.352V36.2233H159.867V34.8644C159.512 35.3507 159.056 35.7551 158.53 36.0501C157.772 36.455 156.92 36.6541 156.061 36.6274H156.052ZM156.052 23.4472C155.383 23.4463 154.721 23.5713 154.099 23.8157C153.309 24.1367 152.597 24.6245 152.014 25.2457C151.465 25.8344 151.034 26.5216 150.743 27.2707C150.119 28.9376 150.119 30.7729 150.743 32.4398C151.035 33.1883 151.466 33.8753 152.014 34.4648C152.598 35.0833 153.31 35.5694 154.099 35.8903C154.72 36.1386 155.383 36.2653 156.052 36.2633C156.846 36.2862 157.632 36.1025 158.333 35.7304C158.881 35.4283 159.342 34.9909 159.671 34.4603L159.724 34.3671H160.214V35.8592H162.964V18.1448H160.014V23.3894L160.237 25.3389H159.724L159.671 25.2501C159.342 24.7182 158.881 24.2793 158.333 23.9756C157.633 23.6029 156.846 23.4206 156.052 23.4472ZM156.733 33.5722C156.274 33.5751 155.819 33.4844 155.396 33.3057C154.982 33.1298 154.606 32.8765 154.287 32.5597C153.956 32.2228 153.693 31.8264 153.511 31.3917C153.125 30.4036 153.125 29.3069 153.511 28.3187C153.691 27.8828 153.954 27.4861 154.287 27.1508C154.767 26.666 155.381 26.3345 156.051 26.1985C156.721 26.0624 157.416 26.1281 158.048 26.387C158.466 26.5553 158.845 26.806 159.162 27.1241C159.492 27.4609 159.754 27.8573 159.934 28.2921C160.322 29.292 160.322 30.4006 159.934 31.4006C159.754 31.837 159.492 32.235 159.162 32.573C158.843 32.8883 158.465 33.1373 158.048 33.3057C157.631 33.4778 157.185 33.5683 156.733 33.5722ZM156.733 26.5024C156.327 26.5015 155.923 26.5815 155.548 26.7378C155.179 26.8971 154.843 27.1247 154.559 27.4083C154.259 27.7106 154.021 28.0681 153.859 28.4608C153.508 29.356 153.508 30.35 153.859 31.2452C154.022 31.6387 154.26 31.9974 154.559 32.3021C154.989 32.7335 155.537 33.0282 156.135 33.1492C156.734 33.2701 157.354 33.2118 157.919 32.9815C158.289 32.8302 158.626 32.6068 158.908 32.3243C159.207 32.0218 159.443 31.6643 159.604 31.2718C159.96 30.3593 159.96 29.3467 159.604 28.4342C159.443 28.0417 159.207 27.6842 158.908 27.3817C158.626 27.0996 158.29 26.8775 157.919 26.7289C157.542 26.578 157.14 26.5011 156.733 26.5024Z" fill="#00A1EF"/>
<path d="M187.348 33.1373C186.493 34.1849 185.411 35.026 184.183 35.5975C182.95 36.1369 181.62 36.425 180.273 36.4448C178.926 36.4646 177.588 36.2158 176.339 35.713C175.215 35.2521 174.194 34.5742 173.334 33.7183C172.475 32.8623 171.793 31.8454 171.33 30.726C170.59 28.9824 170.386 27.0597 170.743 25.2007C171.1 23.3416 172.002 21.6297 173.335 20.2812C174.197 19.4287 175.218 18.7515 176.339 18.2873C177.53 17.7919 178.81 17.5426 180.101 17.5546C181.421 17.528 182.732 17.7871 183.943 18.314C185.068 18.8349 186.073 19.5835 186.893 20.5122L184.509 22.8347C183.984 22.228 183.353 21.7223 182.646 21.3426C181.872 20.957 181.015 20.7664 180.15 20.7875C179.334 20.7812 178.524 20.932 177.765 21.2316C177.041 21.5126 176.382 21.9371 175.827 22.4794C175.258 23.0328 174.806 23.6942 174.499 24.4245C173.859 26.0732 173.859 27.9004 174.499 29.5492C174.794 30.2908 175.239 30.9647 175.804 31.5298C176.36 32.072 177.019 32.4978 177.743 32.7821C178.502 33.0797 179.312 33.2304 180.128 33.2262C181.064 33.2447 181.99 33.0327 182.824 32.6089C183.638 32.1701 184.351 31.5647 184.914 30.8326L187.348 33.1373Z" fill="#00A1EF"/>
<path d="M180.101 36.6277C178.784 36.6392 177.479 36.3854 176.263 35.8816C175.118 35.4117 174.077 34.7204 173.201 33.8477C172.326 32.975 171.632 31.9381 171.16 30.7969C170.649 29.632 170.375 28.3773 170.355 27.106C170.336 25.8347 170.57 24.5721 171.045 23.392C171.52 22.2119 172.226 21.1378 173.122 20.2324C174.018 19.327 175.086 18.6084 176.263 18.1184C177.48 17.6168 178.784 17.3631 180.101 17.3724C181.447 17.3482 182.783 17.6117 184.018 18.1451C185.165 18.6717 186.19 19.4275 187.031 20.3655L187.147 20.4987L184.473 23.0788L184.348 22.9323C183.839 22.3413 183.224 21.8503 182.534 21.4846C181.788 21.1126 180.961 20.9295 180.127 20.9517C179.334 20.9514 178.547 21.1022 177.81 21.3957C177.11 21.6714 176.472 22.0836 175.934 22.6081C175.389 23.1495 174.958 23.7943 174.668 24.5043C174.044 26.107 174.044 27.8842 174.668 29.4869C174.959 30.198 175.389 30.8442 175.934 31.3875C176.476 31.9137 177.118 32.326 177.823 32.5999C178.56 32.8934 179.347 33.0442 180.141 33.0439C181.041 33.0472 181.928 32.8323 182.726 32.4178C183.514 31.9945 184.205 31.414 184.758 30.7125L184.883 30.5571L187.588 33.1105L187.477 33.2393C186.603 34.308 185.498 35.167 184.246 35.7528C182.945 36.3428 181.53 36.6414 180.101 36.6277ZM180.101 17.741C178.835 17.73 177.58 17.9731 176.41 18.4559C175.311 18.9094 174.313 19.5742 173.471 20.4124C172.63 21.2506 171.963 22.2456 171.508 23.3408C170.551 25.6841 170.551 28.3071 171.508 30.6503C171.961 31.7466 172.628 32.7427 173.469 33.5811C174.311 34.4195 175.31 35.0836 176.41 35.5352C177.635 36.0285 178.947 36.2727 180.268 36.2537C181.589 36.2346 182.893 35.9526 184.103 35.4242C185.255 34.888 186.277 34.1092 187.098 33.1416L184.954 31.1078C184.396 31.7828 183.71 32.3425 182.935 32.7553C182.073 33.1927 181.117 33.4123 180.15 33.3948C179.312 33.4036 178.48 33.2528 177.698 32.9507C176.952 32.6579 176.272 32.2202 175.697 31.6629C175.121 31.0848 174.666 30.3978 174.36 29.6423C173.701 27.9482 173.701 26.0696 174.36 24.3755C174.666 23.6213 175.121 22.9357 175.697 22.3594C176.271 21.7993 176.951 21.3598 177.698 21.0671C178.48 20.7654 179.312 20.6147 180.15 20.623C181.041 20.598 181.926 20.79 182.726 21.1826C183.395 21.5402 183.998 22.0088 184.509 22.5681L186.648 20.5031C185.868 19.6515 184.925 18.9631 183.876 18.4781C182.683 17.9724 181.396 17.7286 180.101 17.7632V17.741Z" fill="#00A1EF"/>
<path d="M189.411 36.0414V17.9585H192.731V36.0414H189.411Z" fill="#00A1EF"/>
<path d="M192.932 36.2233H189.242V17.7629H192.932V36.2233ZM189.612 35.8592H192.562V18.1448H189.612V35.8592Z" fill="#00A1EF"/>
<path d="M201.338 23.2608C202.246 23.2497 203.147 23.4172 203.99 23.7537C204.765 24.067 205.471 24.5304 206.066 25.117C206.659 25.7136 207.125 26.4236 207.435 27.2042C208.094 28.9105 208.094 30.8002 207.435 32.5065C207.129 33.2883 206.666 33.9993 206.073 34.5951C205.481 35.191 204.771 35.6591 203.99 35.9703C202.285 36.6274 200.395 36.6274 198.69 35.9703C197.91 35.6611 197.202 35.1957 196.609 34.603C196.017 34.0103 195.553 33.3028 195.245 32.5243C194.586 30.8179 194.586 28.9283 195.245 27.222C195.555 26.4413 196.021 25.7313 196.613 25.1348C197.209 24.5481 197.914 24.0848 198.69 23.7715C199.53 23.4294 200.43 23.2558 201.338 23.2608ZM201.338 33.3902C201.759 33.3906 202.177 33.3091 202.568 33.1504C202.963 32.9928 203.321 32.7554 203.62 32.4532C203.935 32.1369 204.181 31.7589 204.342 31.343C204.527 30.8692 204.618 30.3638 204.609 29.8553C204.617 29.3454 204.527 28.8388 204.342 28.3632C204.18 27.9479 203.934 27.5701 203.62 27.253C203.32 26.9532 202.962 26.7175 202.568 26.5603C202.177 26.4015 201.759 26.3201 201.338 26.3205C200.913 26.318 200.492 26.3995 200.099 26.5603C199.71 26.7203 199.357 26.9558 199.06 27.253C198.745 27.5689 198.499 27.9471 198.338 28.3632C198.153 28.8388 198.063 29.3454 198.071 29.8553C198.062 30.3638 198.153 30.8692 198.338 31.343C198.498 31.7597 198.744 32.1381 199.06 32.4532C199.358 32.7541 199.715 32.9914 200.108 33.1504C200.498 33.31 200.916 33.3915 201.338 33.3902Z" fill="#00A1EF"/>
<path d="M201.338 36.6279C200.408 36.6384 199.486 36.4664 198.623 36.1217C197.816 35.8053 197.083 35.3265 196.469 34.7153C195.856 34.1041 195.375 33.3735 195.058 32.569C194.379 30.8187 194.379 28.8794 195.058 27.1291C195.375 26.3246 195.856 25.594 196.469 24.9828C197.083 24.3716 197.816 23.8928 198.623 23.5764C200.371 22.9013 202.309 22.9013 204.056 23.5764C204.864 23.8928 205.597 24.3716 206.21 24.9828C206.824 25.594 207.304 26.3246 207.622 27.1291C208.3 28.8794 208.3 30.8187 207.622 32.569C207.303 33.3719 206.824 34.1017 206.213 34.7139C205.601 35.319 204.874 35.796 204.074 36.1172C203.205 36.4662 202.275 36.6398 201.338 36.6279ZM201.338 23.4476C200.459 23.4385 199.586 23.6014 198.77 23.9273C198.014 24.2307 197.327 24.684 196.752 25.2595C196.175 25.8371 195.72 26.5242 195.414 27.2801C194.772 28.9422 194.772 30.7826 195.414 32.4447C195.714 33.2009 196.167 33.8875 196.744 34.462C197.321 35.0365 198.011 35.4866 198.77 35.7842C200.429 36.4251 202.268 36.4251 203.927 35.7842C204.686 35.4816 205.374 35.0265 205.948 34.4474C206.522 33.8682 206.971 33.1774 207.265 32.418C207.907 30.7559 207.907 28.9155 207.265 27.2534C206.96 26.4976 206.505 25.8105 205.928 25.2328C205.353 24.6573 204.666 24.2041 203.909 23.9006C203.09 23.5835 202.216 23.4296 201.338 23.4476ZM201.338 33.5727C200.89 33.5763 200.446 33.4911 200.032 33.3218C199.618 33.1525 199.242 32.9026 198.926 32.5868C198.596 32.2507 198.337 31.8521 198.164 31.4144C197.798 30.4103 197.798 29.31 198.164 28.3059C198.338 27.8674 198.598 27.4686 198.931 27.1335C199.244 26.8182 199.617 26.5677 200.027 26.3963C200.865 26.0609 201.801 26.0609 202.639 26.3963C203.056 26.5636 203.434 26.8146 203.749 27.1335C204.081 27.4686 204.342 27.8674 204.515 28.3059C204.881 29.31 204.881 30.4103 204.515 31.4144C204.341 31.8523 204.08 32.251 203.749 32.5868C203.432 32.8997 203.054 33.1445 202.639 33.3062C202.227 33.4781 201.785 33.5686 201.338 33.5727ZM201.338 26.5029C200.938 26.5002 200.542 26.5775 200.173 26.73C199.804 26.8826 199.47 27.1074 199.189 27.3911C198.895 27.6856 198.663 28.036 198.508 28.4213C198.169 29.3387 198.169 30.3461 198.508 31.2634C198.661 31.6556 198.893 32.0122 199.189 32.3115C199.47 32.5928 199.803 32.8162 200.17 32.9687C200.918 33.2688 201.753 33.2688 202.501 32.9687C202.871 32.8174 203.208 32.594 203.49 32.3115C203.787 32.0122 204.019 31.6556 204.172 31.2634C204.511 30.3461 204.511 29.3387 204.172 28.4213C204.018 28.0288 203.786 27.6709 203.49 27.3689C203.207 27.0877 202.871 26.8657 202.501 26.7161C202.131 26.571 201.736 26.4986 201.338 26.5029Z" fill="#00A1EF"/>
<path d="M218.523 34.4248H218.323C217.935 35.0443 217.393 35.5536 216.75 35.9036C216.056 36.2721 215.28 36.4586 214.494 36.4454C212.921 36.4454 211.753 35.9658 210.982 35.0066C210.167 33.8959 209.761 32.5393 209.833 31.1653V23.6648H213.148V30.7701C213.091 31.4829 213.305 32.1911 213.746 32.7551C213.972 32.9805 214.244 33.1547 214.544 33.2658C214.844 33.3769 215.165 33.4223 215.484 33.399C215.904 33.4076 216.319 33.3066 216.687 33.1059C217.037 32.9118 217.341 32.6453 217.579 32.3243C217.833 31.9744 218.021 31.5818 218.136 31.1653C218.264 30.6995 218.329 30.2185 218.327 29.7354V23.6648H221.648V36.0413H218.528L218.523 34.4248Z" fill="#00A1EF"/>
<path d="M214.494 36.6274C212.872 36.6274 211.642 36.1212 210.84 35.122C209.998 33.9788 209.576 32.5817 209.645 31.1652V23.4827H213.336V30.7611C213.28 31.427 213.473 32.09 213.879 32.6218C214.09 32.8264 214.342 32.9844 214.619 33.0854C214.895 33.1864 215.19 33.2282 215.484 33.208C215.872 33.2143 216.256 33.121 216.598 32.9371C216.922 32.754 217.204 32.506 217.427 32.2088C217.662 31.8673 217.834 31.4869 217.935 31.0853C218.059 30.6369 218.12 30.1737 218.118 29.7087V23.4827H221.808V36.2233H218.323V34.7268C217.932 35.2805 217.418 35.7366 216.821 36.059C216.105 36.4397 215.305 36.6352 214.494 36.6274ZM210.038 23.8513V31.1652C209.97 32.497 210.362 33.8116 211.147 34.8911C211.878 35.8014 213.01 36.2633 214.517 36.2633C215.271 36.2756 216.016 36.0968 216.683 35.7437C217.298 35.4094 217.816 34.9212 218.185 34.3271L218.243 34.2427H218.728V35.8592H221.478V23.869H218.528V29.7264C218.53 30.2259 218.464 30.7234 218.332 31.2052C218.204 31.6429 217.997 32.0537 217.721 32.4175C217.467 32.7579 217.146 33.0421 216.776 33.2524C216.379 33.4628 215.934 33.5697 215.484 33.5633C215.14 33.5854 214.795 33.5343 214.472 33.4133C214.149 33.2923 213.856 33.1043 213.612 32.8616C213.139 32.2642 212.908 31.5113 212.966 30.7522V23.8513H210.038Z" fill="#00A1EF"/>
<path d="M233.605 34.5493H233.4C233.055 35.1106 232.566 35.5704 231.983 35.8815C231.254 36.2718 230.435 36.4633 229.608 36.4366C228.913 36.4403 228.224 36.3091 227.58 36.0503C226.765 35.7219 226.032 35.2203 225.431 34.5804C224.866 33.9763 224.422 33.2691 224.126 32.4977C223.482 30.7884 223.482 28.9046 224.126 27.1953C224.422 26.4225 224.866 25.7139 225.431 25.1082C226.033 24.4697 226.766 23.9683 227.58 23.6383C228.225 23.3819 228.913 23.2508 229.608 23.2519C230.435 23.2266 231.255 23.4196 231.983 23.8115C232.565 24.1236 233.054 24.5832 233.4 25.1437H233.605L233.4 23.3674V17.9585H236.721V36.0414H233.601L233.605 34.5493ZM230.285 33.3903C230.714 33.3918 231.139 33.3104 231.537 33.1505C231.933 32.9929 232.291 32.7555 232.589 32.4532C232.904 32.1341 233.154 31.7571 233.325 31.3431C233.699 30.3848 233.699 29.3215 233.325 28.3633C233.153 27.9498 232.903 27.573 232.589 27.2531C232.29 26.9532 231.932 26.7175 231.537 26.5603C231.139 26.4004 230.714 26.319 230.285 26.3205C229.855 26.3185 229.43 26.4024 229.033 26.5671C228.637 26.7319 228.277 26.9742 227.976 27.2797C227.661 27.5988 227.412 27.9759 227.241 28.3899C226.872 29.3324 226.872 30.3784 227.241 31.3208C227.413 31.7343 227.662 32.1112 227.976 32.431C228.278 32.7316 228.635 32.9714 229.028 33.1371C229.425 33.306 229.853 33.3921 230.285 33.3903Z" fill="#00A1EF"/>
<path d="M229.603 36.6274C228.887 36.629 228.178 36.4948 227.513 36.2322C226.668 35.8941 225.907 35.3757 225.284 34.7134C224.706 34.0913 224.252 33.3648 223.947 32.573C223.288 30.8192 223.288 28.8868 223.947 27.133C224.253 26.3418 224.707 25.6155 225.284 24.9926C225.908 24.3327 226.669 23.816 227.513 23.4782C228.178 23.2095 228.89 23.0738 229.608 23.0786C230.466 23.0509 231.317 23.2517 232.072 23.6603C232.581 23.938 233.025 24.3211 233.374 24.7838L233.218 23.4116V17.7629H236.903V36.2233H233.418V34.8644C233.065 35.3528 232.609 35.7576 232.081 36.0501C231.324 36.4543 230.475 36.6533 229.616 36.6274H229.603ZM229.603 23.4472C228.935 23.4459 228.272 23.5709 227.651 23.8157C226.86 24.1367 226.149 24.6245 225.565 25.2457C225.017 25.8344 224.586 26.5216 224.295 27.2707C223.671 28.9376 223.671 30.7729 224.295 32.4398C224.587 33.1883 225.018 33.8753 225.565 34.4648C226.15 35.0833 226.861 35.5694 227.651 35.8903C228.27 36.1474 228.937 36.2744 229.608 36.2633C230.402 36.2862 231.188 36.1025 231.889 35.7304C232.438 35.4301 232.899 34.9923 233.227 34.4603L233.28 34.3671H233.775V35.8592H236.525V18.1448H233.57V23.3894L233.797 25.3389H233.28L233.227 25.2501C232.9 24.7168 232.439 24.2775 231.889 23.9756C231.189 23.6029 230.402 23.4206 229.608 23.4472H229.603ZM230.285 33.5722C229.826 33.5751 229.371 33.4844 228.948 33.3057C228.534 33.1297 228.157 32.8765 227.838 32.5597C227.507 32.2236 227.244 31.8271 227.063 31.3917C226.671 30.4047 226.671 29.3058 227.063 28.3187C227.242 27.8828 227.506 27.4861 227.838 27.1508C228.156 26.8316 228.533 26.5768 228.948 26.4003C229.799 26.0606 230.749 26.0606 231.6 26.4003C232.017 26.5676 232.394 26.8185 232.71 27.1375C233.042 27.4727 233.305 27.8695 233.485 28.3054C233.874 29.3054 233.874 30.414 233.485 31.4139C233.304 31.8506 233.041 32.2486 232.71 32.5863C232.394 32.8963 232.02 33.1408 231.609 33.3057C231.189 33.4789 230.739 33.5694 230.285 33.5722ZM230.285 26.5024C229.878 26.5015 229.475 26.5815 229.099 26.7378C228.729 26.8982 228.392 27.1256 228.106 27.4083C227.809 27.712 227.573 28.0692 227.41 28.4608C227.06 29.356 227.06 30.35 227.41 31.2452C227.573 31.6381 227.809 31.9968 228.106 32.3021C228.393 32.5835 228.73 32.8094 229.099 32.9682C229.86 33.2744 230.71 33.2744 231.471 32.9682C231.841 32.8169 232.177 32.5935 232.46 32.311C232.758 32.0085 232.994 31.651 233.155 31.2585C233.506 30.3448 233.506 29.3345 233.155 28.4208C232.993 28.0292 232.757 27.6721 232.46 27.3684C232.177 27.0872 231.841 26.8652 231.471 26.7156C231.093 26.5692 230.69 26.4968 230.285 26.5024Z" fill="#00A1EF"/>
<path d="M52.2156 0C49.1776 0.00143574 46.1897 0.771241 43.5317 2.2373C40.8738 3.70336 38.6328 5.81769 37.0188 8.38222C35.4048 10.9467 34.4705 13.8775 34.3035 16.9C34.1365 19.9225 34.7422 22.9378 36.064 25.6634C36.1932 25.539 36.3269 25.4191 36.4695 25.2992C37.5496 24.4131 38.8705 23.8682 40.2632 23.7345C41.6559 23.6008 43.0569 23.8843 44.2869 24.5487C44.5053 24.6731 44.5231 24.753 44.3314 24.9173C43.8975 25.3051 43.5033 25.735 43.1548 26.2007C41.9575 27.6993 41.1575 29.4737 40.8284 31.3609C40.8204 31.4563 40.7848 31.5473 40.7258 31.6229C41.2566 32.0639 41.8132 32.4732 42.3927 32.8486C42.513 30.715 43.3321 28.6795 44.7244 27.0541C46.1168 25.4287 48.0056 24.303 50.1014 23.8494C52.1972 23.3959 54.3845 23.6396 56.328 24.5431C58.2716 25.4466 59.8642 26.9602 60.8619 28.8518C61.5302 30.088 61.9081 31.4591 61.9672 32.8619C62.5707 32.4743 63.1497 32.0502 63.701 31.5918C63.6456 31.5142 63.6104 31.4242 63.5984 31.3298C63.264 29.4545 62.466 27.6917 61.2764 26.2007C60.9243 25.7449 60.5304 25.3227 60.0998 24.9395C59.9082 24.7752 59.926 24.6953 60.1444 24.5709C61.3735 23.9053 62.774 23.6203 64.1667 23.7525C65.5593 23.8846 66.8807 24.4278 67.9617 25.3125C68.1043 25.428 68.2336 25.5523 68.3628 25.6767C69.6874 22.9509 70.2956 19.9346 70.1303 16.9106C69.9651 13.8866 69.0317 10.9539 67.4179 8.38764C65.804 5.82133 63.5625 3.70544 60.9035 2.23837C58.2445 0.771292 55.2551 0.00109724 52.2156 0V0ZM40.971 22.6481C40.1762 22.6551 39.3972 22.4267 38.7329 21.9918C38.0685 21.557 37.5489 20.9352 37.2398 20.2056C36.9307 19.4759 36.8462 18.6712 36.9969 17.8936C37.1476 17.116 37.5268 16.4005 38.0864 15.838C38.6459 15.2755 39.3605 14.8913 40.1396 14.7342C40.9186 14.5771 41.727 14.6541 42.462 14.9556C43.197 15.257 43.8256 15.7692 44.2679 16.4272C44.7103 17.0852 44.9465 17.8594 44.9465 18.6513C44.9518 19.1747 44.8529 19.6939 44.6554 20.1788C44.4579 20.6638 44.1659 21.1049 43.7961 21.4766C43.4264 21.8484 42.9863 22.1433 42.5013 22.3444C42.0164 22.5454 41.4962 22.6487 40.971 22.6481ZM52.1399 22.204C51.077 22.197 50.0399 21.8766 49.1594 21.2833C48.279 20.69 47.5944 19.8503 47.1921 18.8699C46.7898 17.8896 46.6878 16.8126 46.8988 15.7746C47.1098 14.7366 47.6245 13.784 48.378 13.037C49.1314 12.2899 50.09 11.7818 51.1328 11.5767C52.1756 11.3716 53.256 11.4786 54.2378 11.8843C55.2197 12.29 56.059 12.9762 56.6501 13.8564C57.2412 14.7366 57.5576 15.7715 57.5594 16.8306C57.5654 17.5402 57.4291 18.2438 57.1585 18.9001C56.888 19.5565 56.4886 20.1524 55.9838 20.6529C55.479 21.1534 54.8789 21.5485 54.2188 21.8148C53.5588 22.0811 52.8519 22.2135 52.1399 22.204ZM63.4558 22.6481C62.6635 22.6437 61.8901 22.4055 61.2334 21.9637C60.5767 21.5219 60.0661 20.8962 59.7659 20.1655C59.4657 19.4348 59.3895 18.6319 59.5467 17.8581C59.704 17.0843 60.0878 16.3742 60.6496 15.8175C61.2115 15.2607 61.9263 14.8823 62.7037 14.7299C63.4812 14.5774 64.2866 14.6579 65.0182 14.961C65.7499 15.2642 66.375 15.7764 66.8148 16.4332C67.2546 17.09 67.4893 17.8618 67.4893 18.6513C67.4947 19.1796 67.3939 19.7035 67.1928 20.1923C66.9918 20.6811 66.6945 21.1249 66.3186 21.4974C65.9427 21.8699 65.4957 22.1636 65.004 22.3612C64.5123 22.5589 63.9859 22.6564 63.4558 22.6481Z" fill="url(#paint0_linear_732_2627)"/>
<path d="M75.8326 38.6349C75.8186 36.9995 75.5169 35.3792 74.9412 33.8477C74.2086 32.0645 73.2273 30.3931 72.0264 28.8829C71.9765 28.8221 71.9125 28.7744 71.84 28.7438C71.7674 28.7131 71.6885 28.7006 71.6099 28.7071C71.5314 28.7137 71.4557 28.7392 71.3893 28.7814C71.3228 28.8236 71.2677 28.8813 71.2286 28.9495C70.4154 30.314 69.4527 31.5844 68.3584 32.7375C68.2832 32.818 68.2375 32.9214 68.2286 33.031C68.2197 33.1406 68.2482 33.25 68.3094 33.3414C69.2498 34.7447 70.2036 36.9207 70.3328 38.4617C70.4386 39.721 70.2818 40.9885 69.8722 42.1846C69.4627 43.3806 68.8092 44.4793 67.9528 45.4115C67.1238 46.3275 66.1113 47.06 64.9804 47.5618C63.8496 48.0636 62.6258 48.3235 61.3879 48.3247C56.2001 48.3247 50.9232 48.3247 45.8201 48.3247H17.2026C11.48 48.3247 7.00531 44.7054 5.7975 39.11C5.49821 37.6199 5.50913 36.0845 5.82959 34.5988C6.15004 33.113 6.77319 31.7087 7.66047 30.4727C8.53726 29.2078 9.66599 28.1363 10.9764 27.325C12.2868 26.5136 13.7508 25.9797 15.2772 25.7565C16.7797 25.5477 18.3077 25.6108 19.7876 25.9431C21.7753 26.3871 22.9564 25.7121 23.6205 23.7804C24.4049 21.4845 27.5693 17.9718 29.7353 17.0837C30.1538 16.9115 30.5862 16.7748 31.0278 16.6751C31.1318 16.6543 31.2257 16.5991 31.2945 16.5185C31.3632 16.438 31.4027 16.3367 31.4066 16.231C31.5417 14.6427 31.8541 13.0743 32.3381 11.5549C32.3634 11.4768 32.3686 11.3937 32.3531 11.3131C32.3377 11.2325 32.3021 11.1571 32.2497 11.0938C32.1973 11.0306 32.1298 10.9815 32.0533 10.9511C31.9768 10.9206 31.8939 10.9099 31.8122 10.9199C26.6021 11.546 21.4411 15.6449 19.0789 20.1301C17.4041 19.92 15.7068 19.9694 14.0471 20.2766C11.8504 20.6587 9.75219 21.4733 7.87505 22.6727C5.99791 23.8721 4.37952 25.4322 3.11447 27.262C1.82079 29.0677 0.901762 31.1125 0.411207 33.2766C-0.0793482 35.4406 -0.131562 37.6805 0.257624 39.8649C0.954421 43.7988 3.01407 47.3644 6.07784 49.9408C9.1416 52.5172 13.0153 53.9411 17.0243 53.9645C25.0066 53.9911 32.3158 54 39.1749 54C47.0413 54 54.3282 54 61.2898 53.9556C66.3127 53.9289 70.5334 51.6863 73.4838 47.4587C73.9623 46.7755 74.3714 46.0466 74.705 45.2827C75.5182 43.3939 75.9076 41.3509 75.8459 39.2965L75.8326 38.6349Z" fill="url(#paint1_linear_732_2627)"/>
<defs>
<linearGradient id="paint0_linear_732_2627" x1="21.0265" y1="16.3688" x2="64.0174" y2="16.4493" gradientUnits="userSpaceOnUse">
<stop stop-color="#00BAF4"/>
<stop offset="1" stop-color="#00A1EF"/>
</linearGradient>
<linearGradient id="paint1_linear_732_2627" x1="-0.00533019" y1="32.4666" x2="75.8504" y2="32.4666" gradientUnits="userSpaceOnUse">
<stop stop-color="#00BAF4"/>
<stop offset="1" stop-color="#00A1EF"/>
</linearGradient>
</defs>
</svg>
