<svg width="237" height="54" viewBox="0 0 237 54" fill="none" xmlns="http://www.w3.org/2000/svg">
<path d="M104.673 33.1373C103.819 34.1859 102.737 35.0272 101.508 35.5975C100.275 36.1369 98.9452 36.425 97.5981 36.4448C96.251 36.4646 94.9136 36.2158 93.6644 35.713C92.5405 35.2521 91.5193 34.5742 90.6595 33.7183C89.7998 32.8623 89.1185 31.8454 88.6549 30.726C87.9156 28.9824 87.7116 27.0597 88.0685 25.2007C88.4255 23.3416 89.3275 21.6297 90.6605 20.2812C91.5225 19.4287 92.5427 18.7515 93.6644 18.2873C94.8555 17.7919 96.1353 17.5426 97.426 17.5546C98.7466 17.528 100.057 17.7871 101.268 18.314C102.394 18.8349 103.398 19.5835 104.218 20.5122L101.812 22.8347C101.288 22.227 100.657 21.7211 99.9486 21.3426C99.1749 20.9565 98.3178 20.7658 97.4527 20.7875C96.6366 20.7812 95.827 20.932 95.0683 21.2316C94.3488 21.5141 93.6939 21.9386 93.1429 22.4794C92.571 23.032 92.1163 23.6934 91.8059 24.4245C91.1661 26.0732 91.1661 27.9004 91.8059 29.5492C92.111 30.2935 92.566 30.9676 93.1429 31.5298C93.6988 32.072 94.358 32.4978 95.0817 32.7821C95.841 33.0797 96.6502 33.2304 97.4661 33.2262C98.4022 33.2447 99.3284 33.0327 100.163 32.6089C100.978 32.169 101.691 31.5639 102.257 30.8326L104.673 33.1373Z" fill="white"/>
<path d="M97.426 36.6275C96.1094 36.64 94.8039 36.3862 93.5886 35.8814C92.4418 35.4131 91.3997 34.7224 90.523 33.8496C89.6462 32.9767 88.9521 31.939 88.4811 30.7967C87.4829 28.3632 87.4829 25.6365 88.4811 23.203C88.9544 22.0621 89.6493 21.0256 90.5258 20.153C91.4023 19.2804 92.4432 18.5889 93.5886 18.1183C94.8031 17.616 96.1066 17.3623 97.4215 17.3722C98.7678 17.3475 100.104 17.611 101.339 18.1449C102.485 18.6715 103.511 19.4273 104.352 20.3653L104.468 20.4985L101.794 23.0786L101.669 22.9321C101.161 22.3423 100.547 21.8514 99.8594 21.4844C99.1116 21.1129 98.2836 20.9299 97.4483 20.9515C96.6559 20.9518 95.8709 21.1025 95.1351 21.3956C94.433 21.67 93.7934 22.0823 93.2544 22.6079C92.7095 23.1493 92.2791 23.7941 91.9886 24.5041C91.3706 26.1079 91.3706 27.8829 91.9886 29.4867C92.2795 30.1978 92.7098 30.844 93.2544 31.3873C93.7937 31.9115 94.4333 32.3223 95.1351 32.5952C95.8707 32.889 96.6558 33.0397 97.4483 33.0393C98.3583 33.049 99.2567 32.8355 100.064 32.4176C100.852 31.9943 101.544 31.4138 102.097 30.7123L102.222 30.5569L104.927 33.1104L104.815 33.2392C103.941 34.3078 102.837 35.1669 101.584 35.7526C100.279 36.3445 98.8597 36.6432 97.426 36.6275ZM97.426 17.7408C96.1602 17.7298 94.9051 17.973 93.7357 18.4558C92.0439 19.1596 90.5989 20.3465 89.5825 21.8668C88.5661 23.3871 88.0238 25.1731 88.0238 26.9998C88.0238 28.8266 88.5661 30.6125 89.5825 32.1329C90.5989 33.6532 92.0439 34.84 93.7357 35.5439C94.9606 36.0372 96.2722 36.2815 97.5932 36.2624C98.9143 36.2433 100.218 35.9613 101.428 35.4329C102.58 34.8967 103.602 34.1179 104.423 33.1503L102.257 31.1076C101.698 31.7827 101.013 32.3424 100.238 32.7551C99.3764 33.1925 98.4198 33.4121 97.4527 33.3946C96.6147 33.4029 95.7828 33.2522 95.0014 32.9505C94.2553 32.6578 93.575 32.22 93.0003 31.6627C92.424 31.0846 91.9694 30.3977 91.6633 29.6421C91.0039 27.948 91.0039 26.0695 91.6633 24.3753C91.9694 23.6211 92.424 22.9356 93.0003 22.3592C93.5736 21.7991 94.2542 21.3596 95.0014 21.0669C95.7828 20.7652 96.6147 20.6145 97.4527 20.6229C98.3473 20.602 99.2334 20.8003 100.033 21.2002C100.702 21.5578 101.305 22.0263 101.816 22.5857L103.96 20.5207C103.177 19.6699 102.234 18.9817 101.183 18.4957C99.9978 17.9864 98.7165 17.7366 97.426 17.763V17.7408Z" fill="white"/>
<path d="M106.754 23.6654H109.874V25.384H110.079C110.234 25.0756 110.438 24.795 110.685 24.5536C110.941 24.2991 111.227 24.0769 111.536 23.8919C111.856 23.7058 112.195 23.5568 112.548 23.4478C112.896 23.3337 113.26 23.2738 113.627 23.2702C114.008 23.2634 114.387 23.3112 114.754 23.4123C115.037 23.4932 115.306 23.6159 115.552 23.7764L114.661 26.734C114.447 26.6276 114.221 26.5471 113.988 26.4942C113.695 26.4289 113.396 26.3991 113.096 26.4054C112.672 26.3917 112.25 26.4737 111.862 26.6452C111.492 26.8184 111.168 27.0736 110.913 27.3912C110.642 27.7286 110.435 28.1123 110.302 28.5236C110.156 28.9785 110.083 29.4537 110.088 29.9314V36.0419H106.768L106.754 23.6654Z" fill="white"/>
<path d="M110.257 36.2233H106.572V23.4826H110.052V25.0413C110.196 24.8167 110.363 24.6083 110.552 24.4196C110.819 24.1558 111.119 23.9261 111.443 23.7357C111.776 23.5373 112.13 23.3779 112.499 23.2606C113.251 23.0264 114.055 23.0156 114.812 23.2295C115.113 23.3131 115.399 23.4435 115.659 23.6158L115.771 23.6913L114.786 26.9864L114.59 26.8887C114.389 26.7874 114.176 26.7114 113.957 26.6622C113.674 26.6002 113.386 26.5718 113.096 26.5778C112.696 26.5733 112.3 26.6583 111.938 26.8265C111.591 26.9884 111.286 27.2269 111.046 27.5237C110.79 27.8445 110.594 28.2085 110.467 28.5984C110.33 29.0292 110.261 29.4787 110.262 29.9306L110.257 36.2233ZM106.959 35.8591H109.91V29.9484C109.905 29.4509 109.982 28.9559 110.137 28.4829C110.275 28.0499 110.493 27.6463 110.779 27.2928C111.052 26.9542 111.398 26.6811 111.791 26.4935C112.209 26.2994 112.666 26.2022 113.128 26.2093C113.626 26.1908 114.123 26.2787 114.585 26.4668L115.374 23.8468C115.173 23.7328 114.959 23.6433 114.737 23.5803C114.05 23.3865 113.322 23.3973 112.642 23.6114C112.301 23.7219 111.973 23.8709 111.666 24.0555C111.37 24.2342 111.096 24.4474 110.85 24.6905C110.619 24.9203 110.426 25.1857 110.28 25.4765L110.226 25.5742H109.727V23.8512H106.959V35.8591Z" fill="white"/>
<path d="M122.188 23.2607C123.095 23.2502 123.994 23.4177 124.836 23.7537C125.618 24.062 126.328 24.5274 126.921 25.1211C127.515 25.7147 127.979 26.4238 128.285 27.2041C128.939 28.9116 128.939 30.799 128.285 32.5065C127.98 33.289 127.516 34.0004 126.923 34.5964C126.329 35.1923 125.619 35.66 124.836 35.9703C123.132 36.6275 121.244 36.6275 119.541 35.9703C118.76 35.662 118.05 35.197 117.457 34.6042C116.864 34.0114 116.399 33.3035 116.091 32.5242C115.432 30.8179 115.432 28.9283 116.091 27.2219C116.398 26.4416 116.862 25.7325 117.456 25.1389C118.049 24.5452 118.759 24.0797 119.541 23.7714C120.381 23.4293 121.281 23.2558 122.188 23.2607ZM122.188 33.3902C122.61 33.3906 123.028 33.3091 123.418 33.1504C123.814 32.9928 124.172 32.7554 124.47 32.4532C124.784 32.1357 125.03 31.758 125.192 31.343C125.378 30.8691 125.468 30.3638 125.46 29.8553C125.468 29.3454 125.377 28.8387 125.192 28.3632C125.029 27.9487 124.783 27.5712 124.47 27.253C124.171 26.9532 123.813 26.7174 123.418 26.5602C122.625 26.2405 121.738 26.2405 120.945 26.5602C120.556 26.7203 120.203 26.9558 119.906 27.253C119.594 27.5712 119.348 27.9487 119.184 28.3632C119 28.8387 118.909 29.3454 118.917 29.8553C118.908 30.3638 118.999 30.8691 119.184 31.343C119.347 31.758 119.593 32.1357 119.906 32.4532C120.202 32.7531 120.555 32.9903 120.945 33.1504C121.339 33.3111 121.762 33.3926 122.188 33.3902Z" fill="white"/>
<path d="M122.188 36.6276C121.258 36.638 120.334 36.466 119.47 36.1213C118.662 35.8049 117.929 35.3262 117.316 34.7149C116.702 34.1037 116.222 33.3731 115.904 32.5687C115.226 30.8184 115.226 28.879 115.904 27.1287C116.222 26.3243 116.702 25.5937 117.316 24.9825C117.929 24.3712 118.662 23.8925 119.47 23.5761C121.219 22.9011 123.158 22.9011 124.907 23.5761C125.714 23.8925 126.448 24.3712 127.061 24.9825C127.674 25.5937 128.155 26.3243 128.472 27.1287C129.151 28.879 129.151 30.8184 128.472 32.5687C128.152 33.3707 127.673 34.1002 127.064 34.7136C126.451 35.3176 125.724 35.7945 124.925 36.1169C124.055 36.4654 123.125 36.639 122.188 36.6276ZM122.188 23.4473C121.305 23.437 120.428 23.5999 119.608 23.9269C118.851 24.2274 118.164 24.6792 117.589 25.2543C117.014 25.8294 116.564 26.5156 116.265 27.2708C115.623 28.9329 115.623 30.7733 116.265 32.4355C116.567 33.1944 117.022 33.8835 117.602 34.4605C118.179 35.033 118.863 35.4858 119.617 35.7927C121.277 36.4322 123.117 36.4322 124.778 35.7927C125.531 35.4858 126.216 35.033 126.792 34.4605C127.372 33.8835 127.827 33.1944 128.129 32.4355C128.771 30.7733 128.771 28.9329 128.129 27.2708C127.831 26.5156 127.38 25.8294 126.805 25.2543C126.23 24.6792 125.543 24.2274 124.787 23.9269C123.961 23.5976 123.078 23.4346 122.188 23.4473ZM122.188 33.5723C121.739 33.5755 121.294 33.4894 120.878 33.3192C120.454 33.1448 120.069 32.8859 119.749 32.5583C119.429 32.2307 119.179 31.8413 119.015 31.4141C118.643 30.4111 118.643 29.3085 119.015 28.3055C119.187 27.8673 119.446 27.4685 119.777 27.1332C120.092 26.8173 120.466 26.5667 120.878 26.396C121.715 26.0608 122.649 26.0608 123.485 26.396C123.903 26.5643 124.282 26.8151 124.599 27.1332C124.931 27.4685 125.19 27.8673 125.362 28.3055C125.734 29.3085 125.734 30.4111 125.362 31.4141C125.19 31.8526 124.931 32.2515 124.599 32.5865C124.282 32.9032 123.903 33.1525 123.485 33.3192C123.074 33.4869 122.633 33.5729 122.188 33.5723ZM122.188 26.5026C121.788 26.5003 121.392 26.5777 121.022 26.7302C120.652 26.8827 120.317 27.1073 120.036 27.3907C119.744 27.6873 119.513 28.0371 119.354 28.421C119.021 29.3393 119.021 30.3448 119.354 31.2631C119.508 31.6544 119.74 32.0107 120.036 32.3111C120.316 32.5925 120.649 32.8158 121.016 32.9684C121.764 33.2684 122.599 33.2684 123.347 32.9684C123.718 32.8222 124.056 32.6032 124.341 32.3244C124.636 32.0241 124.868 31.6677 125.023 31.2764C125.356 30.3581 125.356 29.3526 125.023 28.4343C124.867 28.0425 124.635 27.685 124.341 27.3818C124.057 27.0996 123.719 26.8775 123.347 26.729C122.979 26.5795 122.586 26.5025 122.188 26.5026Z" fill="white"/>
<path d="M129.337 23.665H133.063L135.113 31.4187H135.292L137.752 23.665H141.17L143.657 31.4187H143.831L145.859 23.665H149.536L145.556 36.0415H141.99L139.494 28.2391H139.316L136.82 36.0415H133.295L129.337 23.665Z" fill="white"/>
<path d="M145.689 36.2231H141.848L139.41 28.5671L136.972 36.2231H133.179L129.083 23.4824H133.201L135.211 31.0851L137.614 23.5046H141.304L143.733 31.0851L145.734 23.4824H149.803L145.689 36.2231ZM142.124 35.8589H145.426L149.286 23.8688H146.001L143.973 31.6224H143.528L141.045 23.8688H137.894L135.434 31.6224H134.988L132.938 23.8688H129.605L133.464 35.8589H136.722L139.205 28.0564H139.65L142.124 35.8589Z" fill="white"/>
<path d="M160.054 34.5493H159.849C159.503 35.1106 159.014 35.5704 158.432 35.8815C157.703 36.2724 156.883 36.464 156.056 36.4366C155.361 36.4403 154.673 36.3091 154.028 36.0503C153.213 35.7219 152.48 35.2203 151.88 34.5804C151.316 33.9752 150.873 33.2683 150.574 32.4977C149.931 30.7884 149.931 28.9046 150.574 27.1953C150.873 26.4234 151.316 25.715 151.88 25.1082C152.482 24.4685 153.217 23.9669 154.033 23.6383C154.676 23.3815 155.363 23.2504 156.056 23.2519C156.884 23.226 157.703 23.419 158.432 23.8115C159.013 24.1236 159.502 24.5832 159.849 25.1437H160.054L159.849 23.3674V17.9585H163.169V36.0414H160.049L160.054 34.5493ZM156.733 33.3903C157.163 33.3918 157.588 33.3104 157.986 33.1505C158.381 32.9929 158.739 32.7555 159.038 32.4532C159.356 32.1364 159.606 31.7588 159.773 31.343C160.147 30.3848 160.147 29.3215 159.773 28.3633C159.605 27.9481 159.355 27.5706 159.038 27.2531C158.738 26.9532 158.38 26.7175 157.986 26.5603C157.588 26.4004 157.163 26.319 156.733 26.3205C156.302 26.3193 155.875 26.4039 155.477 26.5692C155.083 26.7361 154.726 26.9774 154.425 27.2797C154.11 27.5988 153.86 27.9759 153.689 28.3899C153.321 29.3324 153.321 30.3784 153.689 31.3208C153.863 31.7296 154.112 32.1018 154.425 32.4177C154.727 32.7174 155.084 32.957 155.477 33.1238C155.873 33.2972 156.301 33.3879 156.733 33.3903Z" fill="white"/>
<path d="M156.052 36.6277C155.336 36.6292 154.627 36.4951 153.961 36.2324C153.117 35.8932 152.356 35.3749 151.733 34.7137C151.153 34.0928 150.699 33.366 150.396 32.5732C149.736 30.8195 149.736 28.887 150.396 27.1333C150.7 26.341 151.154 25.6144 151.733 24.9928C152.357 24.3339 153.118 23.8173 153.961 23.4785C154.626 23.2123 155.335 23.0766 156.052 23.0788C156.912 23.0518 157.764 23.2525 158.521 23.6606C159.028 23.9407 159.472 24.3234 159.822 24.7841L159.662 23.4119V17.7632H163.352V36.2236H159.867V34.8647C159.512 35.351 159.056 35.7554 158.53 36.0504C157.772 36.4553 156.92 36.6544 156.061 36.6277H156.052ZM156.052 23.4474C155.383 23.4465 154.721 23.5716 154.099 23.816C153.309 24.1369 152.597 24.6247 152.014 25.2459C151.465 25.8347 151.034 26.5219 150.743 27.2709C150.119 28.9378 150.119 30.7731 150.743 32.44C151.035 33.1885 151.466 33.8755 152.014 34.465C152.598 35.0835 153.31 35.5697 154.099 35.8905C154.72 36.1388 155.383 36.2655 156.052 36.2635C156.846 36.2864 157.632 36.1028 158.333 35.7306C158.881 35.4285 159.342 34.9912 159.671 34.4606L159.724 34.3673H160.214V35.8594H162.964V18.1451H160.014V23.3897L160.237 25.3392H159.724L159.671 25.2504C159.342 24.7184 158.881 24.2795 158.333 23.9759C157.633 23.6031 156.846 23.4208 156.052 23.4474ZM156.733 33.5724C156.274 33.5753 155.819 33.4846 155.396 33.306C154.982 33.13 154.606 32.8768 154.287 32.5599C153.956 32.223 153.693 31.8267 153.511 31.392C153.125 30.4038 153.125 29.3071 153.511 28.319C153.691 27.883 153.954 27.4863 154.287 27.151C154.767 26.6662 155.381 26.3347 156.051 26.1987C156.721 26.0627 157.416 26.1283 158.048 26.3872C158.466 26.5555 158.845 26.8063 159.162 27.1244C159.492 27.4611 159.754 27.8576 159.934 28.2923C160.322 29.2923 160.322 30.4009 159.934 31.4009C159.754 31.8372 159.492 32.2352 159.162 32.5732C158.843 32.8885 158.465 33.1376 158.048 33.306C157.631 33.478 157.185 33.5685 156.733 33.5724ZM156.733 26.5027C156.327 26.5017 155.923 26.5817 155.548 26.738C155.179 26.8974 154.843 27.1249 154.559 27.4086C154.259 27.7108 154.021 28.0683 153.859 28.4611C153.508 29.3563 153.508 30.3502 153.859 31.2454C154.022 31.6389 154.26 31.9977 154.559 32.3023C154.989 32.7337 155.537 33.0285 156.135 33.1494C156.734 33.2703 157.354 33.212 157.919 32.9818C158.289 32.8305 158.626 32.607 158.908 32.3245C159.207 32.022 159.443 31.6646 159.604 31.2721C159.96 30.3595 159.96 29.347 159.604 28.4344C159.443 28.0419 159.207 27.6844 158.908 27.3819C158.626 27.0998 158.29 26.8777 157.919 26.7291C157.542 26.5782 157.14 26.5013 156.733 26.5027Z" fill="white"/>
<path d="M187.348 33.1373C186.493 34.1849 185.411 35.026 184.183 35.5975C182.95 36.1369 181.62 36.425 180.273 36.4448C178.926 36.4646 177.588 36.2158 176.339 35.713C175.215 35.2521 174.194 34.5742 173.334 33.7183C172.475 32.8623 171.793 31.8454 171.33 30.726C170.59 28.9824 170.386 27.0597 170.743 25.2007C171.1 23.3416 172.002 21.6297 173.335 20.2812C174.197 19.4287 175.218 18.7515 176.339 18.2873C177.53 17.7919 178.81 17.5426 180.101 17.5546C181.421 17.528 182.732 17.7871 183.943 18.314C185.068 18.8349 186.073 19.5835 186.893 20.5122L184.509 22.8347C183.984 22.228 183.353 21.7223 182.646 21.3426C181.872 20.957 181.015 20.7664 180.15 20.7875C179.334 20.7812 178.524 20.932 177.765 21.2316C177.041 21.5126 176.382 21.9371 175.827 22.4794C175.258 23.0328 174.806 23.6942 174.499 24.4245C173.859 26.0732 173.859 27.9004 174.499 29.5492C174.794 30.2908 175.239 30.9647 175.804 31.5298C176.36 32.072 177.019 32.4978 177.743 32.7821C178.502 33.0797 179.312 33.2304 180.128 33.2262C181.064 33.2447 181.99 33.0327 182.824 32.6089C183.638 32.1701 184.351 31.5647 184.914 30.8326L187.348 33.1373Z" fill="white"/>
<path d="M180.101 36.6274C178.784 36.6389 177.479 36.3851 176.263 35.8814C175.118 35.4115 174.077 34.7202 173.201 33.8475C172.326 32.9748 171.632 31.9379 171.16 30.7967C170.649 29.6318 170.375 28.3771 170.355 27.1058C170.336 25.8344 170.57 24.5719 171.045 23.3918C171.52 22.2117 172.226 21.1376 173.122 20.2322C174.018 19.3268 175.086 18.6081 176.263 18.1182C177.48 17.6165 178.784 17.3628 180.101 17.3721C181.447 17.3479 182.783 17.6114 184.018 18.1448C185.165 18.6715 186.19 19.4272 187.031 20.3652L187.147 20.4985L184.473 23.0786L184.348 22.932C183.839 22.341 183.224 21.85 182.534 21.4843C181.788 21.1123 180.961 20.9293 180.127 20.9514C179.334 20.9512 178.547 21.1019 177.81 21.3955C177.11 21.6711 176.472 22.0833 175.934 22.6078C175.389 23.1493 174.958 23.7941 174.668 24.504C174.044 26.1067 174.044 27.884 174.668 29.4866C174.959 30.1977 175.389 30.8439 175.934 31.3873C176.476 31.9135 177.118 32.3258 177.823 32.5996C178.56 32.8932 179.347 33.0439 180.141 33.0437C181.041 33.0469 181.928 32.832 182.726 32.4175C183.514 31.9942 184.205 31.4137 184.758 30.7123L184.883 30.5568L187.588 33.1103L187.477 33.2391C186.603 34.3078 185.498 35.1668 184.246 35.7526C182.945 36.3425 181.53 36.6411 180.101 36.6274ZM180.101 17.7407C178.835 17.7297 177.58 17.9729 176.41 18.4557C175.311 18.9092 174.313 19.574 173.471 20.4122C172.63 21.2503 171.963 22.2454 171.508 23.3406C170.551 25.6838 170.551 28.3068 171.508 30.6501C171.961 31.7464 172.628 32.7425 173.469 33.5809C174.311 34.4192 175.31 35.0834 176.41 35.535C177.635 36.0282 178.947 36.2725 180.268 36.2534C181.589 36.2344 182.893 35.9524 184.103 35.424C185.255 34.8877 186.277 34.109 187.098 33.1414L184.954 31.1075C184.396 31.7826 183.71 32.3423 182.935 32.755C182.073 33.1925 181.117 33.4121 180.15 33.3945C179.312 33.4033 178.48 33.2526 177.698 32.9504C176.952 32.6577 176.272 32.2199 175.697 31.6626C175.121 31.0846 174.666 30.3976 174.36 29.642C173.701 27.9479 173.701 26.0694 174.36 24.3753C174.666 23.621 175.121 22.9355 175.697 22.3591C176.271 21.799 176.951 21.3595 177.698 21.0669C178.48 20.7651 179.312 20.6144 180.15 20.6228C181.041 20.5977 181.926 20.7898 182.726 21.1823C183.395 21.54 183.998 22.0085 184.509 22.5679L186.648 20.5029C185.868 19.6513 184.925 18.9629 183.876 18.4779C182.683 17.9722 181.396 17.7283 180.101 17.7629V17.7407Z" fill="white"/>
<path d="M189.411 36.0414V17.9585H192.731V36.0414H189.411Z" fill="white"/>
<path d="M192.932 36.2236H189.242V17.7632H192.932V36.2236ZM189.612 35.8594H192.562V18.1451H189.612V35.8594Z" fill="white"/>
<path d="M201.338 23.2608C202.246 23.2497 203.147 23.4172 203.99 23.7537C204.765 24.067 205.471 24.5304 206.066 25.117C206.659 25.7136 207.125 26.4236 207.435 27.2042C208.094 28.9105 208.094 30.8002 207.435 32.5065C207.129 33.2883 206.666 33.9993 206.073 34.5951C205.481 35.191 204.771 35.6591 203.99 35.9703C202.285 36.6274 200.395 36.6274 198.69 35.9703C197.91 35.6611 197.202 35.1957 196.609 34.603C196.017 34.0103 195.553 33.3028 195.245 32.5243C194.586 30.8179 194.586 28.9283 195.245 27.222C195.555 26.4413 196.021 25.7313 196.613 25.1348C197.209 24.5481 197.914 24.0848 198.69 23.7715C199.53 23.4294 200.43 23.2558 201.338 23.2608ZM201.338 33.3902C201.759 33.3906 202.177 33.3091 202.568 33.1504C202.963 32.9928 203.321 32.7554 203.62 32.4532C203.935 32.1369 204.181 31.7589 204.342 31.343C204.527 30.8692 204.618 30.3638 204.609 29.8553C204.617 29.3454 204.527 28.8388 204.342 28.3632C204.18 27.9479 203.934 27.5701 203.62 27.253C203.32 26.9532 202.962 26.7175 202.568 26.5603C202.177 26.4015 201.759 26.3201 201.338 26.3205C200.913 26.318 200.492 26.3995 200.099 26.5603C199.71 26.7203 199.357 26.9558 199.06 27.253C198.745 27.5689 198.499 27.9471 198.338 28.3632C198.153 28.8388 198.063 29.3454 198.071 29.8553C198.062 30.3638 198.153 30.8692 198.338 31.343C198.498 31.7597 198.744 32.1381 199.06 32.4532C199.358 32.7541 199.715 32.9914 200.108 33.1504C200.498 33.31 200.916 33.3915 201.338 33.3902Z" fill="white"/>
<path d="M201.338 36.6277C200.408 36.6381 199.486 36.4661 198.623 36.1214C197.816 35.805 197.083 35.3263 196.469 34.7151C195.856 34.1038 195.375 33.3732 195.058 32.5688C194.379 30.8185 194.379 28.8791 195.058 27.1288C195.375 26.3244 195.856 25.5938 196.469 24.9826C197.083 24.3713 197.816 23.8926 198.623 23.5762C200.371 22.901 202.309 22.901 204.056 23.5762C204.864 23.8926 205.597 24.3713 206.21 24.9826C206.824 25.5938 207.304 26.3244 207.622 27.1288C208.3 28.8791 208.3 30.8185 207.622 32.5688C207.303 33.3717 206.824 34.1015 206.213 34.7137C205.601 35.3187 204.874 35.7958 204.074 36.117C203.205 36.466 202.275 36.6395 201.338 36.6277ZM201.338 23.4474C200.459 23.4382 199.586 23.6012 198.77 23.927C198.014 24.2305 197.327 24.6837 196.752 25.2592C196.175 25.8369 195.72 26.524 195.414 27.2798C194.772 28.9419 194.772 30.7823 195.414 32.4444C195.714 33.2006 196.167 33.8873 196.744 34.4618C197.321 35.0363 198.011 35.4863 198.77 35.7839C200.429 36.4248 202.268 36.4248 203.927 35.7839C204.686 35.4813 205.374 35.0263 205.948 34.4471C206.522 33.868 206.971 33.1772 207.265 32.4178C207.907 30.7557 207.907 28.9153 207.265 27.2532C206.96 26.4973 206.505 25.8103 205.928 25.2326C205.353 24.6571 204.666 24.2038 203.909 23.9004C203.09 23.5833 202.216 23.4294 201.338 23.4474ZM201.338 33.5724C200.89 33.5761 200.446 33.4908 200.032 33.3215C199.618 33.1522 199.242 32.9024 198.926 32.5866C198.596 32.2505 198.337 31.8518 198.164 31.4142C197.798 30.4101 197.798 29.3097 198.164 28.3056C198.338 27.8672 198.598 27.4683 198.931 27.1333C199.244 26.818 199.617 26.5674 200.027 26.3961C200.865 26.0606 201.801 26.0606 202.639 26.3961C203.056 26.5634 203.434 26.8143 203.749 27.1333C204.081 27.4683 204.342 27.8672 204.515 28.3056C204.881 29.3097 204.881 30.4101 204.515 31.4142C204.341 31.8521 204.08 32.2507 203.749 32.5866C203.432 32.8994 203.054 33.1443 202.639 33.306C202.227 33.4779 201.785 33.5683 201.338 33.5724ZM201.338 26.5027C200.938 26.5 200.542 26.5772 200.173 26.7298C199.804 26.8823 199.47 27.1071 199.189 27.3908C198.895 27.6854 198.663 28.0357 198.508 28.4211C198.169 29.3384 198.169 30.3459 198.508 31.2632C198.661 31.6553 198.893 32.012 199.189 32.3112C199.47 32.5926 199.803 32.8159 200.17 32.9685C200.918 33.2685 201.753 33.2685 202.501 32.9685C202.871 32.8172 203.208 32.5937 203.49 32.3112C203.787 32.012 204.019 31.6553 204.172 31.2632C204.511 30.3459 204.511 29.3384 204.172 28.4211C204.018 28.0285 203.786 27.6707 203.49 27.3686C203.207 27.0874 202.871 26.8655 202.501 26.7158C202.131 26.5708 201.736 26.4984 201.338 26.5027Z" fill="white"/>
<path d="M218.523 34.4251H218.323C217.935 35.0445 217.393 35.5538 216.75 35.9039C216.056 36.2724 215.28 36.4588 214.494 36.4456C212.921 36.4456 211.753 35.966 210.982 35.0068C210.167 33.8961 209.761 32.5396 209.833 31.1655V23.665H213.148V30.7703C213.091 31.4831 213.305 32.1913 213.746 32.7553C213.972 32.9807 214.244 33.1549 214.544 33.266C214.844 33.3771 215.165 33.4226 215.484 33.3993C215.904 33.4079 216.319 33.3068 216.687 33.1062C217.037 32.912 217.341 32.6455 217.579 32.3246C217.833 31.9746 218.021 31.582 218.136 31.1655C218.264 30.6998 218.329 30.2187 218.327 29.7356V23.665H221.648V36.0415H218.528L218.523 34.4251Z" fill="white"/>
<path d="M214.494 36.6272C212.872 36.6272 211.642 36.1209 210.84 35.1217C209.998 33.9785 209.576 32.5814 209.645 31.165V23.4824H213.336V30.7609C213.28 31.4268 213.473 32.0898 213.879 32.6216C214.09 32.8262 214.342 32.9841 214.619 33.0851C214.895 33.1861 215.19 33.2279 215.484 33.2078C215.872 33.214 216.256 33.1208 216.598 32.9369C216.922 32.7537 217.204 32.5058 217.427 32.2086C217.662 31.8671 217.834 31.4866 217.935 31.0851C218.059 30.6367 218.12 30.1735 218.118 29.7084V23.4824H221.808V36.2231H218.323V34.7265C217.932 35.2803 217.418 35.7363 216.821 36.0587C216.105 36.4395 215.305 36.6349 214.494 36.6272ZM210.038 23.851V31.165C209.97 32.4967 210.362 33.8114 211.147 34.8908C211.878 35.8012 213.01 36.263 214.517 36.263C215.271 36.2753 216.016 36.0966 216.683 35.7435C217.298 35.4092 217.816 34.921 218.185 34.3268L218.243 34.2425H218.728V35.8589H221.478V23.8688H218.528V29.7262C218.53 30.2257 218.464 30.7232 218.332 31.205C218.204 31.6426 217.997 32.0534 217.721 32.4173C217.467 32.7576 217.146 33.0419 216.776 33.2522C216.379 33.4626 215.934 33.5695 215.484 33.563C215.14 33.5852 214.795 33.534 214.472 33.4131C214.149 33.2921 213.856 33.104 213.612 32.8614C213.139 32.264 212.908 31.511 212.966 30.752V23.851H210.038Z" fill="white"/>
<path d="M233.605 34.5493H233.4C233.055 35.1106 232.566 35.5704 231.983 35.8815C231.254 36.2718 230.435 36.4633 229.608 36.4366C228.913 36.4403 228.224 36.3091 227.58 36.0503C226.765 35.7219 226.032 35.2203 225.431 34.5804C224.866 33.9763 224.422 33.2691 224.126 32.4977C223.482 30.7884 223.482 28.9046 224.126 27.1953C224.422 26.4225 224.866 25.7139 225.431 25.1082C226.033 24.4697 226.766 23.9683 227.58 23.6383C228.225 23.3819 228.913 23.2508 229.608 23.2519C230.435 23.2266 231.255 23.4196 231.983 23.8115C232.565 24.1236 233.054 24.5832 233.4 25.1437H233.605L233.4 23.3674V17.9585H236.721V36.0414H233.601L233.605 34.5493ZM230.285 33.3903C230.714 33.3918 231.139 33.3104 231.537 33.1505C231.933 32.9929 232.291 32.7555 232.589 32.4532C232.904 32.1341 233.154 31.7571 233.325 31.3431C233.699 30.3848 233.699 29.3215 233.325 28.3633C233.153 27.9498 232.903 27.573 232.589 27.2531C232.29 26.9532 231.932 26.7175 231.537 26.5603C231.139 26.4004 230.714 26.319 230.285 26.3205C229.855 26.3185 229.43 26.4024 229.033 26.5671C228.637 26.7319 228.277 26.9742 227.976 27.2797C227.661 27.5988 227.412 27.9759 227.241 28.3899C226.872 29.3324 226.872 30.3784 227.241 31.3208C227.413 31.7343 227.662 32.1112 227.976 32.431C228.278 32.7316 228.635 32.9714 229.028 33.1371C229.425 33.306 229.853 33.3921 230.285 33.3903Z" fill="white"/>
<path d="M229.603 36.6277C228.887 36.6292 228.178 36.4951 227.513 36.2324C226.668 35.8943 225.907 35.3759 225.284 34.7137C224.706 34.0915 224.252 33.365 223.947 32.5732C223.288 30.8195 223.288 28.887 223.947 27.1333C224.253 26.342 224.707 25.6157 225.284 24.9928C225.908 24.3329 226.669 23.8162 227.513 23.4785C228.178 23.2098 228.89 23.074 229.608 23.0788C230.466 23.0511 231.317 23.2519 232.072 23.6606C232.581 23.9383 233.025 24.3214 233.374 24.7841L233.218 23.4119V17.7632H236.903V36.2236H233.418V34.8647C233.065 35.353 232.609 35.7578 232.081 36.0504C231.324 36.4545 230.475 36.6536 229.616 36.6277H229.603ZM229.603 23.4474C228.935 23.4461 228.272 23.5712 227.651 23.816C226.86 24.1369 226.149 24.6247 225.565 25.2459C225.017 25.8347 224.586 26.5219 224.295 27.2709C223.671 28.9378 223.671 30.7731 224.295 32.44C224.587 33.1885 225.018 33.8755 225.565 34.465C226.15 35.0835 226.861 35.5697 227.651 35.8905C228.27 36.1477 228.937 36.2747 229.608 36.2635C230.402 36.2864 231.188 36.1028 231.889 35.7306C232.438 35.4303 232.899 34.9926 233.227 34.4606L233.28 34.3673H233.775V35.8594H236.525V18.1451H233.57V23.3897L233.797 25.3392H233.28L233.227 25.2504C232.9 24.717 232.439 24.2777 231.889 23.9759C231.189 23.6031 230.402 23.4208 229.608 23.4474H229.603ZM230.285 33.5724C229.826 33.5753 229.371 33.4846 228.948 33.306C228.534 33.13 228.157 32.8768 227.838 32.5599C227.507 32.2238 227.244 31.8273 227.063 31.392C226.671 30.4049 226.671 29.306 227.063 28.319C227.242 27.883 227.506 27.4863 227.838 27.151C228.156 26.8319 228.533 26.577 228.948 26.4005C229.799 26.0608 230.749 26.0608 231.6 26.4005C232.017 26.5678 232.394 26.8187 232.71 27.1377C233.042 27.473 233.305 27.8697 233.485 28.3056C233.874 29.3056 233.874 30.4142 233.485 31.4142C233.304 31.8508 233.041 32.2488 232.71 32.5866C232.394 32.8965 232.02 33.141 231.609 33.306C231.189 33.4792 230.739 33.5696 230.285 33.5724ZM230.285 26.5027C229.878 26.5017 229.475 26.5817 229.099 26.738C228.729 26.8985 228.392 27.1258 228.106 27.4086C227.809 27.7123 227.573 28.0695 227.41 28.4611C227.06 29.3563 227.06 30.3502 227.41 31.2454C227.573 31.6384 227.809 31.997 228.106 32.3023C228.393 32.5838 228.73 32.8096 229.099 32.9685C229.86 33.2746 230.71 33.2746 231.471 32.9685C231.841 32.8172 232.177 32.5937 232.46 32.3112C232.758 32.0087 232.994 31.6512 233.155 31.2588C233.506 30.3451 233.506 29.3348 233.155 28.4211C232.993 28.0295 232.757 27.6723 232.46 27.3686C232.177 27.0874 231.841 26.8655 231.471 26.7158C231.093 26.5695 230.69 26.4971 230.285 26.5027Z" fill="white"/>
<path d="M52.2156 0C49.1776 0.00143574 46.1897 0.771241 43.5317 2.2373C40.8738 3.70336 38.6328 5.81769 37.0188 8.38222C35.4048 10.9467 34.4705 13.8775 34.3035 16.9C34.1365 19.9225 34.7422 22.9378 36.064 25.6634C36.1932 25.539 36.3269 25.4191 36.4695 25.2992C37.5496 24.4131 38.8705 23.8682 40.2632 23.7345C41.6559 23.6008 43.0569 23.8843 44.2869 24.5487C44.5053 24.6731 44.5231 24.753 44.3314 24.9173C43.8975 25.3051 43.5033 25.735 43.1548 26.2007C41.9575 27.6993 41.1575 29.4737 40.8284 31.3609C40.8204 31.4563 40.7848 31.5473 40.7258 31.6229C41.2566 32.0639 41.8132 32.4732 42.3927 32.8486C42.513 30.715 43.3321 28.6795 44.7244 27.0541C46.1168 25.4287 48.0056 24.303 50.1014 23.8494C52.1972 23.3959 54.3845 23.6396 56.328 24.5431C58.2716 25.4466 59.8642 26.9602 60.8619 28.8518C61.5302 30.088 61.9081 31.4591 61.9672 32.8619C62.5707 32.4743 63.1497 32.0502 63.701 31.5918C63.6456 31.5142 63.6104 31.4242 63.5984 31.3298C63.264 29.4545 62.466 27.6917 61.2764 26.2007C60.9243 25.7449 60.5304 25.3227 60.0998 24.9395C59.9082 24.7752 59.926 24.6953 60.1444 24.5709C61.3735 23.9053 62.774 23.6203 64.1667 23.7525C65.5593 23.8846 66.8807 24.4278 67.9617 25.3125C68.1043 25.428 68.2336 25.5523 68.3628 25.6767C69.6874 22.9509 70.2956 19.9346 70.1303 16.9106C69.9651 13.8866 69.0317 10.9539 67.4179 8.38764C65.804 5.82133 63.5625 3.70544 60.9035 2.23837C58.2445 0.771292 55.2551 0.00109724 52.2156 0V0ZM40.971 22.6481C40.1762 22.6551 39.3972 22.4267 38.7329 21.9918C38.0685 21.557 37.5489 20.9352 37.2398 20.2056C36.9307 19.4759 36.8462 18.6712 36.9969 17.8936C37.1476 17.116 37.5268 16.4005 38.0864 15.838C38.6459 15.2755 39.3605 14.8913 40.1396 14.7342C40.9186 14.5771 41.727 14.6541 42.462 14.9556C43.197 15.257 43.8256 15.7692 44.2679 16.4272C44.7103 17.0852 44.9465 17.8594 44.9465 18.6513C44.9518 19.1747 44.8529 19.6939 44.6554 20.1788C44.4579 20.6638 44.1659 21.1049 43.7961 21.4766C43.4264 21.8484 42.9863 22.1433 42.5013 22.3444C42.0164 22.5454 41.4962 22.6487 40.971 22.6481ZM52.1399 22.204C51.077 22.197 50.0399 21.8766 49.1594 21.2833C48.279 20.69 47.5944 19.8503 47.1921 18.8699C46.7898 17.8896 46.6878 16.8126 46.8988 15.7746C47.1098 14.7366 47.6245 13.784 48.378 13.037C49.1314 12.2899 50.09 11.7818 51.1328 11.5767C52.1756 11.3716 53.256 11.4786 54.2378 11.8843C55.2197 12.29 56.059 12.9762 56.6501 13.8564C57.2412 14.7366 57.5576 15.7715 57.5594 16.8306C57.5654 17.5402 57.4291 18.2438 57.1585 18.9001C56.888 19.5565 56.4886 20.1524 55.9838 20.6529C55.479 21.1534 54.8789 21.5485 54.2188 21.8148C53.5588 22.0811 52.8519 22.2135 52.1399 22.204ZM63.4558 22.6481C62.6635 22.6437 61.8901 22.4055 61.2334 21.9637C60.5767 21.5219 60.0661 20.8962 59.7659 20.1655C59.4657 19.4348 59.3895 18.6319 59.5467 17.8581C59.704 17.0843 60.0878 16.3742 60.6496 15.8175C61.2115 15.2607 61.9263 14.8823 62.7037 14.7299C63.4812 14.5774 64.2866 14.6579 65.0182 14.961C65.7499 15.2642 66.375 15.7764 66.8148 16.4332C67.2546 17.09 67.4893 17.8618 67.4893 18.6513C67.4947 19.1796 67.3939 19.7035 67.1928 20.1923C66.9918 20.6811 66.6945 21.1249 66.3186 21.4974C65.9427 21.8699 65.4957 22.1636 65.004 22.3612C64.5123 22.5589 63.9859 22.6564 63.4558 22.6481Z" fill="white"/>
<path d="M75.8326 38.6351C75.8186 36.9997 75.5169 35.3795 74.9412 33.8479C74.2086 32.0647 73.2273 30.3934 72.0264 28.8831C71.9765 28.8224 71.9125 28.7746 71.84 28.744C71.7674 28.7134 71.6885 28.7008 71.6099 28.7074C71.5314 28.7139 71.4557 28.7394 71.3893 28.7816C71.3228 28.8239 71.2677 28.8815 71.2286 28.9497C70.4154 30.3142 69.4527 31.5846 68.3584 32.7377C68.2832 32.8182 68.2375 32.9216 68.2286 33.0312C68.2197 33.1408 68.2482 33.2502 68.3094 33.3417C69.2498 34.745 70.2036 36.9209 70.3328 38.4619C70.4386 39.7212 70.2818 40.9888 69.8722 42.1848C69.4627 43.3809 68.8092 44.4795 67.9528 45.4117C67.1238 46.3277 66.1113 47.0603 64.9804 47.5621C63.8496 48.0639 62.6258 48.3237 61.3879 48.3249C56.2001 48.3249 50.9232 48.3249 45.8201 48.3249H17.2026C11.48 48.3249 7.00531 44.7057 5.7975 39.1103C5.49821 37.6202 5.50913 36.0847 5.82959 34.599C6.15004 33.1133 6.77319 31.7089 7.66047 30.4729C8.53726 29.2081 9.66599 28.1366 10.9764 27.3252C12.2868 26.5139 13.7508 25.98 15.2772 25.7568C16.7797 25.5479 18.3077 25.6111 19.7876 25.9433C21.7753 26.3874 22.9564 25.7124 23.6205 23.7806C24.4049 21.4847 27.5693 17.9721 29.7353 17.0839C30.1538 16.9118 30.5862 16.7751 31.0278 16.6754C31.1318 16.6545 31.2257 16.5993 31.2945 16.5188C31.3632 16.4382 31.4027 16.3369 31.4066 16.2313C31.5417 14.6429 31.8541 13.0745 32.3381 11.5551C32.3634 11.4771 32.3686 11.3939 32.3531 11.3133C32.3377 11.2328 32.3021 11.1574 32.2497 11.0941C32.1973 11.0308 32.1298 10.9817 32.0533 10.9513C31.9768 10.9209 31.8939 10.9102 31.8122 10.9201C26.6021 11.5463 21.4411 15.6451 19.0789 20.1303C17.4041 19.9202 15.7068 19.9697 14.0471 20.2769C11.8504 20.659 9.75219 21.4735 7.87505 22.6729C5.99791 23.8723 4.37952 25.4325 3.11447 27.2622C1.82079 29.0679 0.901762 31.1127 0.411207 33.2768C-0.0793482 35.4409 -0.131562 37.6807 0.257624 39.8652C0.954421 43.799 3.01407 47.3646 6.07784 49.941C9.1416 52.5174 13.0153 53.9413 17.0243 53.9647C25.0066 53.9914 32.3158 54.0002 39.1749 54.0002C47.0413 54.0002 54.3282 54.0002 61.2898 53.9558C66.3127 53.9292 70.5334 51.6866 73.4838 47.459C73.9623 46.7758 74.3714 46.0469 74.705 45.283C75.5182 43.3942 75.9076 41.3511 75.8459 39.2968L75.8326 38.6351Z" fill="white"/>
</svg>
