<svg width="1440" height="1024" viewBox="0 0 1200 1023" fill="none" xmlns="http://www.w3.org/2000/svg">
  <path d="M472.5 1021.5C547 921 637 932 741.5 857C991 692.5 1407.88 139.06 1148 96.4999C946.5 63.4999 833.5 276.5 567.5 372C120.5 520.5 -16.9024 391.095 5.50005 236C6.8679 226.53 8.77271 217.199 11.1655 208" stroke="#C9EDFF" stroke-width="2" stroke-linecap="round" stroke-dasharray="14 14"/>
  <path d="M148 -1.5C125.389 21.7761 111.63 35.3815 92 60.5" stroke="#C9EDFF" stroke-width="2" stroke-linecap="round" stroke-dasharray="14 14"/>
  <path d="M73.604 70.3049C72.8906 70.7543 71.1336 72.4741 69.6541 74.1621C65.7059 78.6088 50.5711 90.7897 16.1327 117.236C6.70637 124.429 4.59064 126.48 4.79601 128.303C4.9361 129.573 6.72041 131.128 9.569 132.328C12.9052 133.714 29 141.02 30.272 141.686C32.2917 142.769 31.9943 143.867 27.9692 151.774C24.6368 158.316 14.022 175.256 3.39447 190.854C0.687877 194.887 -0.0302529 196.942 1.27272 197.295C2.37523 197.594 2.98452 197.331 4.87439 195.915C5.69206 195.279 9.19583 193.069 12.6455 191.058C16.0586 188.983 22.5515 184.476 27.0988 180.995C31.6461 177.514 41.4272 170.202 48.8825 164.724C68.7588 150.132 88.8339 135.005 90.4366 133.458C91.3083 132.623 91.8428 131.643 91.791 131.04C91.6565 130.147 91.1689 129.961 86.6777 129.065C72.4024 126.162 58.9504 122.999 55.3732 121.708L51.3083 120.232L51.9605 119.016C52.3637 118.322 54.1079 115.26 55.9523 112.225C62.2053 101.654 74.987 76.5174 76.0279 72.6755C76.1902 72.0768 76.0191 71.1199 75.6396 70.5351C75.004 69.506 74.8536 69.4652 73.604 70.3049ZM68.1809 82.9748C65.6661 88.8811 58.8127 101.271 52.7028 110.916C48.9408 116.859 46.014 121.904 46.0928 122.407C46.1771 123.287 47.667 123.744 64.6732 128.084C74.8233 130.727 83.6744 132.804 84.38 132.781C85.0354 132.744 85.5231 132.93 85.469 133.13C85.4014 133.379 77.865 139.157 68.7608 145.955C59.6567 152.754 48.7899 160.896 44.6013 164.046C30.8091 174.449 10.2384 189.816 9.39767 190.338C7.44812 191.578 8.38979 189.69 14.0018 181.088C24.0702 165.767 28.7412 157.66 33.5059 147.222C36.9449 139.692 37.5614 140.394 20.7148 132.884C10.2997 128.241 8.97761 127.562 9.21699 126.877C9.2981 126.577 14.7673 122.275 21.3818 117.319C36.9367 105.573 45.3313 99.0105 57.9495 88.772C63.6 84.1974 68.4153 80.5212 68.6659 80.589C68.9666 80.6705 68.7463 81.682 68.1809 82.9748Z" fill="#C9EDFF"/>
</svg>
