<svg width="1440" height="1024" viewBox="0 0 1440 1024" fill="none" xmlns="http://www.w3.org/2000/svg">
  <path d="M1417.13 791L1415.76 790.389L1417.13 791ZM768.83 765L769.422 763.622L768.83 765ZM1367.97 558.935C1367.33 558.408 1367.24 557.462 1367.77 556.824C1368.29 556.185 1369.24 556.096 1369.88 556.624L1367.97 558.935ZM1375.41 561.317C1376.03 561.861 1376.09 562.809 1375.55 563.433C1375.01 564.057 1374.06 564.122 1373.43 563.578L1375.41 561.317ZM1383.97 573.294C1383.37 572.715 1383.36 571.765 1383.94 571.173C1384.52 570.581 1385.47 570.57 1386.06 571.149L1383.97 573.294ZM1396.12 581.606C1396.67 582.221 1396.62 583.169 1396.01 583.724C1395.39 584.279 1394.44 584.229 1393.89 583.614L1396.12 581.606ZM1403.09 594.561C1402.58 593.909 1402.7 592.966 1403.35 592.456C1404 591.945 1404.95 592.061 1405.46 592.713L1403.09 594.561ZM1413.96 604.483C1414.42 605.173 1414.23 606.104 1413.54 606.562C1412.85 607.021 1411.92 606.834 1411.46 606.144L1413.96 604.483ZM1418.88 618.35C1418.48 617.624 1418.74 616.712 1419.47 616.312C1420.19 615.912 1421.11 616.176 1421.51 616.901L1418.88 618.35ZM1427.96 629.926C1428.3 630.684 1427.95 631.569 1427.2 631.904C1426.44 632.239 1425.55 631.896 1425.22 631.138L1427.96 629.926ZM1430.38 644.439C1430.12 643.654 1430.54 642.803 1431.33 642.539C1432.11 642.275 1432.96 642.698 1433.23 643.483L1430.38 644.439ZM1437.21 657.471C1437.4 658.278 1436.9 659.085 1436.1 659.275C1435.29 659.465 1434.48 658.965 1434.29 658.159L1437.21 657.471ZM1436.92 672.186C1436.81 671.366 1437.38 670.607 1438.2 670.492C1439.02 670.377 1439.78 670.948 1439.89 671.769L1436.92 672.186ZM1441.28 686.244C1441.32 687.072 1440.68 687.777 1439.85 687.819C1439.03 687.862 1438.32 687.226 1438.28 686.398L1441.28 686.244ZM1438.41 700.671C1438.44 699.843 1439.13 699.193 1439.96 699.219C1440.79 699.246 1441.44 699.939 1441.41 700.767L1438.41 700.671ZM1440.38 715.245C1440.29 716.068 1439.55 716.663 1438.73 716.573C1437.9 716.483 1437.31 715.742 1437.4 714.919L1440.38 715.245ZM1435.33 729.078C1435.48 728.263 1436.26 727.722 1437.08 727.869C1437.89 728.017 1438.43 728.798 1438.29 729.613L1435.33 729.078ZM1435.24 743.798C1435.04 744.602 1434.22 745.092 1433.42 744.893C1432.62 744.694 1432.12 743.88 1432.32 743.076L1435.24 743.798ZM1428.48 756.857C1428.72 756.066 1429.56 755.623 1430.35 755.868C1431.15 756.113 1431.59 756.953 1431.34 757.745L1428.48 756.857ZM1426.69 771.484C1426.4 772.262 1425.54 772.661 1424.76 772.375C1423.99 772.09 1423.59 771.228 1423.87 770.45L1426.69 771.484ZM1418.62 783.776C1418.94 783.012 1419.82 782.653 1420.59 782.974C1421.35 783.295 1421.71 784.175 1421.39 784.939L1418.62 783.776ZM1415.42 797.994C1415.03 798.729 1414.13 799.014 1413.39 798.632C1412.66 798.249 1412.37 797.344 1412.75 796.609L1415.42 797.994ZM1405.71 808.335C1406.18 807.652 1407.11 807.48 1407.79 807.949C1408.48 808.419 1408.65 809.353 1408.18 810.035L1405.71 808.335ZM1399.52 821.103C1398.98 821.723 1398.03 821.781 1397.41 821.232C1396.79 820.683 1396.73 819.735 1397.28 819.115L1399.52 821.103ZM1387.61 828.822C1388.23 828.27 1389.18 828.322 1389.73 828.94C1390.28 829.557 1390.23 830.505 1389.61 831.058L1387.61 828.822ZM1378.65 839.839C1377.98 840.322 1377.04 840.169 1376.56 839.496C1376.08 838.823 1376.23 837.886 1376.9 837.402L1378.65 839.839ZM1365.35 844.866C1366.07 844.449 1366.99 844.693 1367.4 845.409C1367.82 846.125 1367.58 847.043 1366.86 847.459L1365.35 844.866ZM1354.42 853.982C1353.67 854.335 1352.78 854.015 1352.43 853.266C1352.07 852.517 1352.39 851.623 1353.14 851.269L1354.42 853.982ZM1340.48 856.674C1341.25 856.377 1342.12 856.763 1342.41 857.536C1342.71 858.31 1342.33 859.177 1341.55 859.475L1340.48 856.674ZM1328.37 864.047C1327.58 864.293 1326.74 863.852 1326.5 863.061C1326.25 862.27 1326.69 861.429 1327.48 861.183L1328.37 864.047ZM1314.21 864.904C1315.01 864.702 1315.83 865.191 1316.03 865.994C1316.23 866.798 1315.74 867.612 1314.94 867.814L1314.21 864.904ZM1301.29 870.866C1300.48 871.027 1299.69 870.499 1299.53 869.687C1299.37 868.874 1299.9 868.085 1300.71 867.924L1301.29 870.866ZM1287.03 870.316C1287.85 870.191 1288.62 870.754 1288.74 871.572C1288.87 872.391 1288.3 873.157 1287.48 873.282L1287.03 870.316ZM1273.7 875.107C1272.87 875.2 1272.13 874.608 1272.04 873.785C1271.94 872.962 1272.54 872.219 1273.36 872.126L1273.7 875.107ZM1259.61 873.433C1260.44 873.369 1261.16 873.987 1261.22 874.812C1261.29 875.638 1260.67 876.36 1259.84 876.424L1259.61 873.433ZM1245.89 877.286C1245.06 877.324 1244.36 876.684 1244.32 875.856C1244.28 875.029 1244.92 874.327 1245.75 874.289L1245.89 877.286ZM1231.9 874.728C1232.73 874.713 1233.41 875.373 1233.42 876.201C1233.44 877.03 1232.78 877.713 1231.95 877.728L1231.9 874.728ZM1218.06 877.792C1217.23 877.785 1216.57 877.108 1216.57 876.28C1216.58 875.451 1217.26 874.785 1218.09 874.792L1218.06 877.792ZM1204.19 874.512C1205.01 874.538 1205.66 875.231 1205.64 876.059C1205.61 876.887 1204.92 877.537 1204.09 877.51L1204.19 874.512ZM1190.19 876.914C1189.36 876.87 1188.73 876.163 1188.77 875.336C1188.82 874.509 1189.52 873.874 1190.35 873.918L1190.19 876.914ZM1176.54 873.036C1177.36 873.097 1177.98 873.816 1177.92 874.642C1177.86 875.469 1177.14 876.089 1176.31 876.028L1176.54 873.036ZM1162.37 874.864C1161.54 874.788 1160.94 874.057 1161.01 873.232C1161.09 872.407 1161.82 871.8 1162.64 871.877L1162.37 874.864ZM1148.92 870.482C1149.74 870.572 1150.33 871.314 1150.24 872.137C1150.15 872.96 1149.41 873.554 1148.59 873.463L1148.92 870.482ZM1134.74 871.819C1133.92 871.715 1133.34 870.964 1133.44 870.142C1133.54 869.32 1134.29 868.739 1135.12 868.843L1134.74 871.819ZM1121.38 866.99C1122.2 867.107 1122.77 867.867 1122.65 868.687C1122.53 869.507 1121.77 870.077 1120.95 869.96L1121.38 866.99ZM1107.2 867.896C1106.38 867.768 1105.82 867 1105.95 866.181C1106.08 865.363 1106.85 864.804 1107.67 864.933L1107.2 867.896ZM1093.94 862.675C1094.76 862.815 1095.31 863.59 1095.17 864.407C1095.03 865.223 1094.25 865.771 1093.44 865.631L1093.94 862.675ZM1079.77 863.195C1078.96 863.044 1078.42 862.261 1078.57 861.447C1078.72 860.632 1079.5 860.094 1080.32 860.245L1079.77 863.195ZM1066.65 857.626C1067.46 857.786 1067.99 858.576 1067.83 859.388C1067.66 860.201 1066.88 860.729 1066.06 860.568L1066.65 857.626ZM1052.47 857.793C1051.66 857.623 1051.14 856.827 1051.31 856.017C1051.48 855.206 1052.28 854.687 1053.09 854.857L1052.47 857.793ZM1039.5 851.917C1040.31 852.097 1040.82 852.898 1040.64 853.707C1040.46 854.515 1039.66 855.025 1038.85 854.845L1039.5 851.917ZM1025.31 851.755C1024.5 851.567 1024 850.76 1024.19 849.953C1024.38 849.146 1025.18 848.645 1025.99 848.834L1025.31 851.755ZM1012.48 845.598C1013.29 845.796 1013.78 846.608 1013.58 847.412C1013.38 848.217 1012.57 848.709 1011.77 848.512L1012.48 845.598ZM998.278 845.132C997.475 844.926 996.991 844.109 997.197 843.307C997.402 842.504 998.219 842.02 999.022 842.226L998.278 845.132ZM985.591 838.715C986.392 838.929 986.867 839.751 986.654 840.551C986.441 841.352 985.619 841.827 984.818 841.614L985.591 838.715ZM971.393 837.964C970.594 837.743 970.127 836.916 970.348 836.118C970.569 835.319 971.396 834.851 972.194 835.073L971.393 837.964ZM958.837 831.304C959.634 831.532 960.094 832.363 959.865 833.16C959.636 833.956 958.805 834.416 958.009 834.187L958.837 831.304ZM944.653 830.283C943.859 830.047 943.407 829.212 943.643 828.418C943.879 827.624 944.714 827.172 945.508 827.408L944.653 830.283ZM932.224 823.393C933.016 823.636 933.461 824.475 933.217 825.267C932.974 826.059 932.135 826.504 931.343 826.261L932.224 823.393ZM918.062 822.116C917.272 821.866 916.835 821.023 917.085 820.233C917.335 819.443 918.178 819.006 918.968 819.256L918.062 822.116ZM905.755 815.005C906.542 815.262 906.972 816.109 906.715 816.896C906.458 817.684 905.611 818.114 904.823 817.857L905.755 815.005ZM891.622 813.482C890.836 813.218 890.414 812.367 890.678 811.582C890.942 810.797 891.792 810.374 892.578 810.638L891.622 813.482ZM879.434 806.157C880.217 806.428 880.633 807.282 880.362 808.065C880.091 808.848 879.237 809.263 878.454 808.992L879.434 806.157ZM865.336 804.395C864.556 804.117 864.148 803.26 864.425 802.479C864.702 801.698 865.56 801.29 866.341 801.568L865.336 804.395ZM853.269 796.861C854.047 797.145 854.448 798.006 854.164 798.784C853.88 799.563 853.019 799.963 852.24 799.679L853.269 796.861ZM839.206 794.861C838.43 794.571 838.037 793.706 838.327 792.931C838.618 792.155 839.482 791.761 840.258 792.052L839.206 794.861ZM827.264 787.124C828.038 787.421 828.424 788.289 828.127 789.062C827.83 789.835 826.962 790.222 826.189 789.925L827.264 787.124ZM813.237 784.887C812.466 784.583 812.088 783.712 812.391 782.942C812.695 782.171 813.566 781.792 814.337 782.096L813.237 784.887ZM801.43 776.949C802.198 777.259 802.569 778.133 802.259 778.901C801.949 779.669 801.075 780.041 800.307 779.73L801.43 776.949ZM787.439 774.471C786.673 774.154 786.31 773.277 786.626 772.511C786.943 771.746 787.82 771.382 788.586 771.699L787.439 774.471ZM775.777 766.333C776.54 766.657 776.896 767.537 776.573 768.3C776.249 769.062 775.369 769.418 774.606 769.095L775.777 766.333ZM761.596 763.583C760.83 763.267 760.466 762.39 760.782 761.624C761.097 760.858 761.974 760.494 762.74 760.81L761.596 763.583ZM749.499 755.568C750.273 755.862 750.663 756.728 750.37 757.503C750.076 758.277 749.21 758.667 748.436 758.374L749.499 755.568ZM735.232 753.593C734.449 753.323 734.033 752.469 734.303 751.686C734.573 750.903 735.427 750.487 736.21 750.757L735.232 753.593ZM722.629 746.311C723.421 746.556 723.863 747.396 723.618 748.187C723.373 748.978 722.533 749.421 721.742 749.176L722.629 746.311ZM708.286 745.249C707.487 745.03 707.017 744.205 707.235 743.406C707.454 742.607 708.28 742.136 709.079 742.355L708.286 745.249ZM695.22 738.815C696.026 739.006 696.525 739.814 696.334 740.62C696.143 741.426 695.335 741.925 694.529 741.734L695.22 738.815ZM680.823 738.743C680.011 738.581 679.483 737.791 679.645 736.979C679.807 736.167 680.597 735.639 681.41 735.801L680.823 738.743ZM667.35 733.269C668.168 733.401 668.724 734.17 668.593 734.988C668.462 735.806 667.692 736.363 666.874 736.231L667.35 733.269ZM652.953 734.267C652.131 734.167 651.545 733.419 651.645 732.597C651.745 731.775 652.492 731.189 653.315 731.289L652.953 734.267ZM639.14 729.852C639.966 729.919 640.581 730.643 640.514 731.468C640.447 732.294 639.723 732.909 638.897 732.842L639.14 729.852ZM624.826 731.986C623.999 731.953 623.355 731.255 623.388 730.427C623.422 729.599 624.12 728.955 624.947 728.989L624.826 731.986ZM610.75 728.71C611.579 728.709 612.251 729.38 612.252 730.208C612.253 731.036 611.582 731.709 610.754 731.71L610.75 728.71ZM596.624 732.024C595.796 732.06 595.096 731.418 595.06 730.59C595.024 729.763 595.666 729.063 596.494 729.027L596.624 732.024ZM582.367 729.94C583.192 729.869 583.919 730.48 583.99 731.306C584.061 732.131 583.449 732.858 582.624 732.929L582.367 729.94ZM568.543 734.443C567.722 734.549 566.969 733.969 566.863 733.147C566.757 732.326 567.337 731.574 568.159 731.468L568.543 734.443ZM554.114 733.587C554.93 733.446 555.706 733.994 555.847 734.81C555.988 735.626 555.441 736.402 554.624 736.543L554.114 733.587ZM540.78 739.236C539.971 739.412 539.172 738.897 538.997 738.088C538.822 737.278 539.336 736.48 540.146 736.304L540.78 739.236ZM526.298 739.605C527.1 739.396 527.919 739.877 528.128 740.679C528.336 741.481 527.856 742.3 527.054 742.508L526.298 739.605ZM513.509 746.332C512.716 746.573 511.878 746.126 511.637 745.333C511.396 744.541 511.843 743.703 512.635 743.462L513.509 746.332ZM499.089 747.88C499.872 747.608 500.727 748.021 500.999 748.803C501.272 749.586 500.858 750.441 500.076 750.713L499.089 747.88ZM486.851 755.607C486.079 755.909 485.209 755.529 484.907 754.758C484.605 753.986 484.985 753.116 485.756 752.814L486.851 755.607ZM472.62 758.247C473.38 757.916 474.264 758.264 474.594 759.023C474.925 759.783 474.577 760.667 473.818 760.997L472.62 758.247ZM460.974 766.866C460.227 767.223 459.331 766.907 458.974 766.16C458.616 765.413 458.932 764.517 459.679 764.159L460.974 766.866ZM446.968 770.512C447.703 770.129 448.609 770.415 448.992 771.149C449.375 771.884 449.089 772.79 448.355 773.173L446.968 770.512ZM435.942 779.903C435.22 780.309 434.305 780.054 433.898 779.332C433.492 778.61 433.747 777.695 434.469 777.289L435.942 779.903ZM422.194 784.457C422.902 784.029 423.825 784.256 424.253 784.965C424.682 785.674 424.455 786.596 423.746 787.024L422.194 784.457ZM411.776 794.506C411.08 794.955 410.152 794.755 409.703 794.059C409.253 793.363 409.453 792.435 410.149 791.986L411.776 794.506ZM398.314 799.861C398.998 799.392 399.932 799.567 400.4 800.25C400.868 800.933 400.694 801.867 400.01 802.335L398.314 799.861ZM388.462 810.476C387.791 810.962 386.853 810.812 386.367 810.141C385.881 809.47 386.031 808.533 386.702 808.047L388.462 810.476ZM375.31 816.516C375.969 816.013 376.91 816.14 377.413 816.799C377.915 817.458 377.788 818.399 377.129 818.901L375.31 816.516ZM365.98 827.608C365.333 828.125 364.39 828.02 363.872 827.373C363.355 826.726 363.46 825.782 364.107 825.264L365.98 827.608ZM353.114 834.25C353.75 833.719 354.696 833.804 355.227 834.439C355.758 835.075 355.673 836.021 355.037 836.552L353.114 834.25ZM344.283 845.719C343.658 846.262 342.711 846.196 342.167 845.571C341.623 844.946 341.689 843.998 342.315 843.455L344.283 845.719ZM331.678 852.881C332.293 852.326 333.241 852.374 333.796 852.989C334.351 853.604 334.303 854.553 333.688 855.108L331.678 852.881ZM323.277 864.669C322.672 865.234 321.723 865.202 321.157 864.596C320.592 863.991 320.624 863.042 321.23 862.476L323.277 864.669ZM310.939 872.242C311.535 871.667 312.485 871.684 313.06 872.281C313.635 872.877 313.617 873.827 313.021 874.402L310.939 872.242ZM302.89 884.307C302.302 884.89 301.352 884.886 300.769 884.298C300.185 883.709 300.189 882.76 300.778 882.176L302.89 884.307ZM290.777 892.221C291.358 891.631 292.308 891.623 292.898 892.203C293.489 892.784 293.497 893.734 292.916 894.325L290.777 892.221ZM283.059 904.467C282.485 905.064 281.536 905.083 280.939 904.509C280.341 903.935 280.323 902.985 280.897 902.388L283.059 904.467ZM271.098 912.685C271.666 912.082 272.615 912.054 273.218 912.623C273.821 913.191 273.849 914.14 273.281 914.743L271.098 912.685ZM263.621 925.079C263.058 925.687 262.109 925.723 261.501 925.159C260.894 924.596 260.858 923.647 261.421 923.04L263.621 925.079ZM251.846 933.437C252.405 932.826 253.354 932.784 253.965 933.343C254.576 933.902 254.618 934.851 254.059 935.462L251.846 933.437ZM244.488 945.972C243.932 946.586 242.983 946.632 242.369 946.075C241.755 945.519 241.709 944.57 242.266 943.957L244.488 945.972ZM232.749 954.482C233.304 953.867 234.253 953.818 234.868 954.373C235.483 954.928 235.532 955.876 234.977 956.491L232.749 954.482ZM225.504 966.995C224.949 967.61 224.001 967.659 223.386 967.104C222.771 966.549 222.722 965.601 223.277 964.985L225.504 966.995ZM213.817 975.447C214.374 974.833 215.322 974.787 215.936 975.344C216.549 975.901 216.595 976.849 216.039 977.463L213.817 975.447ZM206.443 987.978C205.882 988.588 204.933 988.628 204.323 988.068C203.713 987.507 203.673 986.558 204.234 985.948L206.443 987.978ZM194.581 996.345C195.149 995.741 196.098 995.711 196.702 996.279C197.305 996.846 197.335 997.795 196.768 998.399L194.581 996.345ZM186.955 1008.68C186.378 1009.27 185.428 1009.29 184.834 1008.71C184.24 1008.13 184.227 1007.18 184.804 1006.59L186.955 1008.68ZM174.83 1016.61C175.422 1016.03 176.372 1016.04 176.951 1016.63C177.53 1017.22 177.52 1018.17 176.927 1018.75L174.83 1016.61ZM1369.88 556.624C1371.75 558.173 1373.59 559.737 1375.41 561.317L1373.43 563.578C1371.64 562.016 1369.82 560.469 1367.97 558.935L1369.88 556.624ZM1386.06 571.149C1389.56 574.567 1392.91 578.052 1396.12 581.606L1393.89 583.614C1390.73 580.109 1387.42 576.67 1383.97 573.294L1386.06 571.149ZM1405.46 592.713C1408.46 596.559 1411.3 600.482 1413.96 604.483L1411.46 606.144C1408.85 602.209 1406.05 598.349 1403.09 594.561L1405.46 592.713ZM1421.51 616.901C1423.85 621.158 1426.01 625.499 1427.96 629.926L1425.22 631.138C1423.3 626.793 1421.18 622.531 1418.88 618.35L1421.51 616.901ZM1433.23 643.483C1434.76 648.059 1436.1 652.721 1437.21 657.471L1434.29 658.159C1433.2 653.5 1431.89 648.927 1430.38 644.439L1433.23 643.483ZM1439.89 671.769C1440.56 676.51 1441.02 681.335 1441.28 686.244L1438.28 686.398C1438.03 681.576 1437.58 676.839 1436.92 672.186L1439.89 671.769ZM1441.41 700.767C1441.26 705.517 1440.92 710.343 1440.38 715.245L1437.4 714.919C1437.93 710.091 1438.26 705.342 1438.41 700.671L1441.41 700.767ZM1438.29 729.613C1437.44 734.275 1436.43 739.003 1435.24 743.798L1432.32 743.076C1433.5 738.34 1434.5 733.675 1435.33 729.078L1438.29 729.613ZM1431.34 757.745C1429.94 762.266 1428.39 766.846 1426.69 771.484L1423.87 770.45C1425.56 765.859 1427.09 761.328 1428.48 756.857L1431.34 757.745ZM1421.39 784.939C1420.46 787.15 1419.49 789.374 1418.5 791.611L1415.76 790.389C1416.74 788.171 1417.7 785.967 1418.62 783.776L1421.39 784.939ZM1418.5 791.611C1417.53 793.784 1416.5 795.912 1415.42 797.994L1412.75 796.609C1413.81 794.58 1414.81 792.507 1415.76 790.389L1418.5 791.611ZM1408.18 810.035C1405.52 813.907 1402.63 817.595 1399.52 821.103L1397.28 819.115C1400.3 815.696 1403.12 812.105 1405.71 808.335L1408.18 810.035ZM1389.61 831.058C1386.15 834.153 1382.5 837.079 1378.65 839.839L1376.9 837.402C1380.66 834.702 1384.24 831.843 1387.61 828.822L1389.61 831.058ZM1366.86 847.459C1362.87 849.777 1358.72 851.949 1354.42 853.982L1353.14 851.269C1357.37 849.271 1361.44 847.138 1365.35 844.866L1366.86 847.459ZM1341.55 859.475C1337.28 861.116 1332.89 862.639 1328.37 864.047L1327.48 861.183C1331.94 859.793 1336.27 858.291 1340.48 856.674L1341.55 859.475ZM1314.94 867.814C1310.49 868.929 1305.94 869.946 1301.29 870.866L1300.71 867.924C1305.31 867.012 1309.81 866.006 1314.21 864.904L1314.94 867.814ZM1287.48 873.282C1282.97 873.971 1278.37 874.579 1273.7 875.107L1273.36 872.126C1278 871.602 1282.55 871 1287.03 870.316L1287.48 873.282ZM1259.84 876.424C1255.26 876.781 1250.6 877.068 1245.89 877.286L1245.75 874.289C1250.43 874.072 1255.06 873.788 1259.61 873.433L1259.84 876.424ZM1231.95 877.728C1227.37 877.809 1222.74 877.83 1218.06 877.792L1218.09 874.792C1222.74 874.829 1227.35 874.809 1231.9 874.728L1231.95 877.728ZM1204.09 877.51C1199.5 877.364 1194.87 877.165 1190.19 876.914L1190.35 873.918C1195.01 874.168 1199.62 874.366 1204.19 874.512L1204.09 877.51ZM1176.31 876.028C1171.7 875.687 1167.05 875.299 1162.37 874.864L1162.64 871.877C1167.31 872.31 1171.94 872.697 1176.54 873.036L1176.31 876.028ZM1148.59 873.463C1144 872.957 1139.38 872.409 1134.74 871.819L1135.12 868.843C1139.74 869.431 1144.35 869.977 1148.92 870.482L1148.59 873.463ZM1120.95 869.96C1116.39 869.31 1111.81 868.622 1107.2 867.896L1107.67 864.933C1112.26 865.656 1116.83 866.342 1121.38 866.99L1120.95 869.96ZM1093.44 865.631C1088.9 864.853 1084.34 864.041 1079.77 863.195L1080.32 860.245C1084.88 861.088 1089.42 861.898 1093.94 862.675L1093.44 865.631ZM1066.06 860.568C1061.55 859.674 1057.02 858.749 1052.47 857.793L1053.09 854.857C1057.62 855.811 1062.14 856.734 1066.65 857.626L1066.06 860.568ZM1038.85 854.845C1034.35 853.844 1029.83 852.814 1025.31 851.755L1025.99 848.834C1030.5 849.89 1035.01 850.918 1039.5 851.917L1038.85 854.845ZM1011.77 848.512C1007.28 847.412 1002.78 846.285 998.278 845.132L999.022 842.226C1003.51 843.376 1008 844.5 1012.48 845.598L1011.77 848.512ZM984.818 841.614C980.346 840.421 975.871 839.204 971.393 837.964L972.194 835.073C976.662 836.311 981.129 837.525 985.591 838.715L984.818 841.614ZM958.009 834.187C953.557 832.908 949.105 831.607 944.653 830.283L945.508 827.408C949.951 828.729 954.395 830.027 958.837 831.304L958.009 834.187ZM931.343 826.261C926.913 824.9 922.485 823.518 918.062 822.116L918.968 819.256C923.383 820.656 927.802 822.035 932.224 823.393L931.343 826.261ZM904.823 817.857C900.417 816.418 896.016 814.959 891.622 813.482L892.578 810.638C896.963 812.113 901.356 813.569 905.755 815.005L904.823 817.857ZM878.454 808.992C874.072 807.477 869.699 805.945 865.336 804.395L866.341 801.568C870.696 803.115 875.061 804.645 879.434 806.157L878.454 808.992ZM852.24 799.679C847.883 798.09 843.538 796.483 839.206 794.861L840.258 792.052C844.582 793.671 848.919 795.274 853.269 796.861L852.24 799.679ZM826.189 789.925C821.856 788.26 817.538 786.581 813.237 784.887L814.337 782.096C818.63 783.786 822.94 785.463 827.264 787.124L826.189 789.925ZM800.307 779.73C795.998 777.991 791.709 776.237 787.439 774.471L788.586 771.699C792.848 773.462 797.13 775.212 801.43 776.949L800.307 779.73ZM774.606 769.095C772.478 768.193 770.355 767.287 768.238 766.378L769.422 763.622C771.535 764.529 773.653 765.432 775.777 766.333L774.606 769.095ZM768.238 766.378C766.017 765.425 763.803 764.493 761.596 763.583L762.74 760.81C764.961 761.725 767.188 762.663 769.422 763.622L768.238 766.378ZM748.436 758.374C744.006 756.695 739.605 755.102 735.232 753.593L736.21 750.757C740.612 752.276 745.042 753.879 749.499 755.568L748.436 758.374ZM721.742 749.176C717.226 747.778 712.741 746.469 708.286 745.249L709.079 742.355C713.566 743.585 718.082 744.902 722.629 746.311L721.742 749.176ZM694.529 741.734C689.927 740.644 685.359 739.648 680.823 738.743L681.41 735.801C685.981 736.713 690.584 737.717 695.22 738.815L694.529 741.734ZM666.874 736.231C662.198 735.48 657.558 734.826 652.953 734.267L653.315 731.289C657.958 731.853 662.637 732.512 667.35 733.269L666.874 736.231ZM638.897 732.842C634.169 732.458 629.479 732.174 624.826 731.986L624.947 728.989C629.641 729.178 634.372 729.465 639.14 729.852L638.897 732.842ZM610.754 731.71C606.004 731.715 601.295 731.821 596.624 732.024L596.494 729.027C601.207 728.822 605.959 728.715 610.75 728.71L610.754 731.71ZM582.624 732.929C577.889 733.335 573.196 733.841 568.543 734.443L568.159 731.468C572.853 730.861 577.589 730.35 582.367 729.94L582.624 732.929ZM554.624 736.543C549.968 737.348 545.354 738.247 540.78 739.236L540.146 736.304C544.76 735.306 549.416 734.399 554.114 733.587L554.624 736.543ZM527.054 742.508C522.497 743.695 517.982 744.971 513.509 746.332L512.635 743.462C517.147 742.089 521.701 740.802 526.298 739.605L527.054 742.508ZM500.076 750.713C495.625 752.263 491.217 753.896 486.851 755.607L485.756 752.814C490.158 751.089 494.602 749.443 499.089 747.88L500.076 750.713ZM473.818 760.997C469.495 762.879 465.214 764.837 460.974 766.866L459.679 764.159C463.95 762.116 468.264 760.143 472.62 758.247L473.818 760.997ZM448.355 773.173C444.176 775.35 440.038 777.595 435.942 779.903L434.469 777.289C438.594 774.966 442.76 772.705 446.968 770.512L448.355 773.173ZM423.746 787.024C419.715 789.462 415.726 791.957 411.776 794.506L410.149 791.986C414.123 789.421 418.137 786.91 422.194 784.457L423.746 787.024ZM400.01 802.335C396.121 805.001 392.272 807.716 388.462 810.476L386.702 808.047C390.532 805.272 394.403 802.542 398.314 799.861L400.01 802.335ZM377.129 818.901C373.373 821.765 369.657 824.669 365.98 827.608L364.107 825.264C367.801 822.311 371.536 819.393 375.31 816.516L377.129 818.901ZM355.037 836.552C351.413 839.578 347.829 842.636 344.283 845.719L342.315 843.455C345.875 840.359 349.474 837.289 353.114 834.25L355.037 836.552ZM333.688 855.108C330.179 858.275 326.709 861.464 323.277 864.669L321.23 862.476C324.673 859.26 328.155 856.06 331.678 852.881L333.688 855.108ZM313.021 874.402C309.604 877.694 306.228 880.997 302.89 884.307L300.778 882.176C304.125 878.858 307.512 875.544 310.939 872.242L313.021 874.402ZM292.916 894.325C289.591 897.707 286.306 901.09 283.059 904.467L280.897 902.388C284.15 899.003 287.443 895.612 290.777 892.221L292.916 894.325ZM273.281 914.743C270.02 918.203 266.8 921.65 263.621 925.079L261.421 923.04C264.605 919.605 267.831 916.152 271.098 912.685L273.281 914.743ZM254.059 935.462C250.826 938.995 247.636 942.501 244.488 945.972L242.266 943.957C245.416 940.483 248.609 936.974 251.846 933.437L254.059 935.462ZM234.977 956.491C231.771 960.044 228.62 963.542 225.504 966.995L223.277 964.985C226.386 961.539 229.548 958.029 232.749 954.482L234.977 956.491ZM216.039 977.463C212.79 981.043 209.592 984.552 206.443 987.978L204.234 985.948C207.377 982.528 210.571 979.024 213.817 975.447L216.039 977.463ZM196.768 998.399C193.44 1001.94 190.17 1005.37 186.955 1008.68L184.804 1006.59C188.005 1003.29 191.264 999.876 194.581 996.345L196.768 998.399ZM176.927 1018.75C175.234 1020.41 173.557 1022.02 171.896 1023.59L169.835 1021.41C171.483 1019.85 173.148 1018.25 174.83 1016.61L176.927 1018.75Z" fill="#E3E3E3"/>
  <path d="M357.46 344L358.295 342.754L357.46 344ZM562.299 351L561.234 349.943L562.299 351ZM524.587 286.5L523.274 285.774L524.587 286.5ZM1183.02 465.229C1183.81 465.478 1184.25 466.32 1184 467.11C1183.75 467.901 1182.91 468.34 1182.12 468.091L1183.02 465.229ZM1175.42 466.006C1174.63 465.762 1174.19 464.923 1174.43 464.131C1174.67 463.339 1175.51 462.895 1176.3 463.139L1175.42 466.006ZM1162.74 459.052C1163.54 459.287 1163.99 460.121 1163.76 460.915C1163.52 461.71 1162.69 462.164 1161.89 461.93L1162.74 459.052ZM1148.31 458.007C1147.51 457.782 1147.05 456.953 1147.27 456.156C1147.5 455.359 1148.33 454.895 1149.12 455.121L1148.31 458.007ZM1135.48 451.339C1136.28 451.556 1136.75 452.38 1136.53 453.18C1136.32 453.979 1135.49 454.451 1134.69 454.234L1135.48 451.339ZM1121.02 450.593C1120.22 450.383 1119.74 449.564 1119.95 448.762C1120.16 447.961 1120.98 447.481 1121.78 447.69L1121.02 450.593ZM1108.07 444.175C1108.87 444.377 1109.36 445.193 1109.16 445.996C1108.96 446.799 1108.14 447.287 1107.34 447.085L1108.07 444.175ZM1093.6 443.689C1092.79 443.494 1092.3 442.683 1092.49 441.878C1092.69 441.073 1093.5 440.578 1094.31 440.774L1093.6 443.689ZM1080.54 437.491C1081.35 437.681 1081.85 438.488 1081.66 439.294C1081.47 440.101 1080.67 440.601 1079.86 440.412L1080.54 437.491ZM1066.06 437.232C1065.25 437.049 1064.75 436.246 1064.93 435.438C1065.11 434.63 1065.92 434.123 1066.73 434.307L1066.06 437.232ZM1052.92 431.227C1053.73 431.405 1054.24 432.205 1054.06 433.014C1053.89 433.823 1053.09 434.335 1052.28 434.157L1052.92 431.227ZM1038.44 431.167C1037.63 430.994 1037.11 430.198 1037.28 429.388C1037.46 428.577 1038.25 428.06 1039.06 428.233L1038.44 431.167ZM1025.22 425.329C1026.03 425.497 1026.55 426.291 1026.38 427.102C1026.21 427.913 1025.42 428.435 1024.61 428.267L1025.22 425.329ZM1010.74 425.443C1009.93 425.28 1009.4 424.489 1009.57 423.677C1009.73 422.865 1010.52 422.339 1011.33 422.502L1010.74 425.443ZM997.449 419.751C998.262 419.91 998.792 420.698 998.633 421.511C998.474 422.324 997.686 422.854 996.873 422.695L997.449 419.751ZM982.989 420.015C982.175 419.86 981.641 419.075 981.796 418.261C981.951 417.447 982.736 416.913 983.55 417.068L982.989 420.015ZM969.629 414.447C970.444 414.599 970.981 415.382 970.83 416.196C970.678 417.011 969.895 417.548 969.081 417.397L969.629 414.447ZM955.178 414.84C954.363 414.691 953.822 413.911 953.971 413.095C954.119 412.28 954.9 411.74 955.715 411.888L955.178 414.84ZM941.77 409.379C942.586 409.524 943.129 410.303 942.984 411.119C942.839 411.934 942.06 412.478 941.244 412.332L941.77 409.379ZM927.323 409.878C926.507 409.735 925.961 408.958 926.103 408.142C926.246 407.326 927.023 406.78 927.839 406.922L927.323 409.878ZM913.88 404.507C914.696 404.647 915.245 405.422 915.105 406.239C914.965 407.055 914.189 407.603 913.373 407.463L913.88 404.507ZM899.432 405.091C898.615 404.953 898.065 404.179 898.203 403.362C898.341 402.546 899.115 401.995 899.931 402.133L899.432 405.091ZM885.967 399.792C886.784 399.928 887.336 400.701 887.2 401.518C887.064 402.336 886.292 402.888 885.474 402.752L885.967 399.792ZM871.515 400.443C870.698 400.308 870.144 399.537 870.278 398.719C870.413 397.902 871.184 397.348 872.002 397.482L871.515 400.443ZM858.037 395.198C858.855 395.331 859.41 396.102 859.277 396.92C859.144 397.737 858.373 398.292 857.555 398.159L858.037 395.198ZM843.579 395.893C842.762 395.761 842.206 394.991 842.338 394.173C842.47 393.355 843.24 392.8 844.058 392.932L843.579 395.893ZM830.097 390.683C830.915 390.815 831.471 391.584 831.34 392.402C831.208 393.22 830.439 393.777 829.621 393.645L830.097 390.683ZM815.633 391.402C814.815 391.271 814.259 390.502 814.39 389.684C814.521 388.866 815.29 388.309 816.108 388.44L815.633 391.402ZM802.149 386.205C802.967 386.336 803.524 387.105 803.393 387.923C803.262 388.741 802.493 389.298 801.675 389.167L802.149 386.205ZM787.685 386.924C786.867 386.793 786.311 386.024 786.442 385.206C786.574 384.388 787.343 383.831 788.161 383.962L787.685 386.924ZM774.201 381.715C775.018 381.847 775.574 382.617 775.442 383.435C775.31 384.253 774.54 384.808 773.722 384.676L774.201 381.715ZM759.746 382.409C758.929 382.276 758.374 381.505 758.507 380.687C758.641 379.87 759.411 379.315 760.229 379.448L759.746 382.409ZM746.258 377.156C747.075 377.291 747.628 378.063 747.493 378.881C747.358 379.698 746.586 380.251 745.769 380.116L746.258 377.156ZM731.833 377.796C731.016 377.659 730.465 376.885 730.603 376.068C730.74 375.251 731.513 374.7 732.33 374.837L731.833 377.796ZM718.337 372.462C719.153 372.603 719.701 373.378 719.561 374.194C719.421 375.011 718.646 375.559 717.829 375.419L718.337 372.462ZM703.975 373.011C703.159 372.868 702.614 372.09 702.758 371.274C702.901 370.458 703.679 369.913 704.495 370.057L703.975 373.011ZM690.467 367.548C691.282 367.696 691.822 368.477 691.674 369.292C691.526 370.107 690.745 370.647 689.93 370.499L690.467 367.548ZM676.082 367.935C675.268 367.782 674.733 366.997 674.886 366.183C675.04 365.369 675.824 364.834 676.639 364.988L676.082 367.935ZM662.708 362.301C663.521 362.462 664.05 363.25 663.89 364.063C663.729 364.876 662.94 365.405 662.128 365.245L662.708 362.301ZM648.209 362.428C647.398 362.26 646.877 361.465 647.046 360.654C647.214 359.843 648.009 359.322 648.82 359.491L648.209 362.428ZM635.128 356.561C635.937 356.739 636.448 357.54 636.27 358.349C636.091 359.158 635.291 359.669 634.482 359.49L635.128 356.561ZM620.562 356.308C619.756 356.116 619.257 355.308 619.448 354.502C619.64 353.696 620.448 353.197 621.254 353.389L620.562 356.308ZM607.5 349.988C608.302 350.195 608.785 351.013 608.577 351.815C608.37 352.617 607.552 353.1 606.75 352.893L607.5 349.988ZM593.098 349.189C592.301 348.962 591.84 348.132 592.067 347.335C592.295 346.539 593.125 346.077 593.921 346.305L593.098 349.189ZM580.515 342.242C581.304 342.496 581.737 343.341 581.482 344.13C581.228 344.918 580.383 345.351 579.594 345.097L580.515 342.242ZM566.204 340.444C565.429 340.153 565.036 339.288 565.328 338.512C565.619 337.737 566.484 337.345 567.26 337.636L566.204 340.444ZM554.293 332.271C555.046 332.616 555.376 333.507 555.03 334.26C554.685 335.013 553.794 335.343 553.041 334.997L554.293 332.271ZM540.271 328.292C539.563 327.861 539.339 326.938 539.771 326.23C540.202 325.523 541.125 325.299 541.832 325.73L540.271 328.292ZM530.757 317.396C531.352 317.973 531.367 318.923 530.79 319.517C530.213 320.112 529.264 320.127 528.669 319.55L530.757 317.396ZM520.489 307.436C520.216 306.653 520.63 305.798 521.412 305.526C522.195 305.254 523.05 305.668 523.322 306.45L520.489 307.436ZM523.195 293.53C522.957 294.324 522.122 294.775 521.328 294.538C520.534 294.301 520.083 293.465 520.32 292.671L523.195 293.53ZM528.645 279.936C529.338 279.482 530.268 279.675 530.722 280.368C531.176 281.061 530.982 281.991 530.289 282.445L528.645 279.936ZM543.279 280.211C542.459 280.093 541.889 279.334 542.006 278.514C542.124 277.693 542.884 277.124 543.704 277.241L543.279 280.211ZM557.846 282.321C558.564 282.734 558.811 283.651 558.398 284.369C557.984 285.087 557.067 285.334 556.349 284.92L557.846 282.321ZM567.248 293.744C566.694 293.127 566.746 292.179 567.363 291.625C567.979 291.072 568.928 291.124 569.481 291.74L567.248 293.744ZM577.412 304.483C577.713 305.255 577.33 306.125 576.558 306.425C575.786 306.725 574.917 306.343 574.616 305.571L577.412 304.483ZM576.879 319.198C576.917 318.371 577.619 317.73 578.446 317.768C579.274 317.806 579.914 318.507 579.876 319.335L576.879 319.198ZM576.283 333.939C575.945 334.695 575.057 335.034 574.301 334.695C573.545 334.357 573.206 333.469 573.545 332.713L576.283 333.939ZM566.038 344.628C566.562 343.987 567.507 343.891 568.149 344.415C568.79 344.939 568.886 345.884 568.362 346.526L566.038 344.628ZM558.192 356.683C557.545 357.2 556.601 357.094 556.084 356.446C555.568 355.798 555.674 354.855 556.322 354.338L558.192 356.683ZM545.184 361.559C545.916 361.172 546.824 361.451 547.211 362.184C547.599 362.916 547.32 363.823 546.587 364.211L545.184 361.559ZM533.99 369.749C533.211 370.031 532.35 369.628 532.068 368.85C531.786 368.071 532.188 367.211 532.967 366.928L533.99 369.749ZM520.141 370.783C520.946 370.586 521.758 371.078 521.955 371.883C522.152 372.687 521.66 373.5 520.855 373.697L520.141 370.783ZM507.422 376.357C506.604 376.483 505.838 375.922 505.711 375.103C505.585 374.285 506.146 373.518 506.964 373.392L507.422 376.357ZM493.599 374.943C494.425 374.878 495.148 375.494 495.214 376.319C495.28 377.145 494.664 377.868 493.838 377.934L493.599 374.943ZM480.189 378.571C479.36 378.583 478.679 377.921 478.667 377.093C478.654 376.265 479.316 375.583 480.144 375.571L480.189 378.571ZM466.667 375.365C467.494 375.402 468.135 376.103 468.098 376.931C468.061 377.758 467.361 378.399 466.533 378.362L466.667 375.365ZM452.917 377.369C452.092 377.286 451.492 376.551 451.575 375.726C451.658 374.902 452.394 374.301 453.218 374.385L452.917 377.369ZM439.846 372.664C440.664 372.792 441.224 373.559 441.096 374.378C440.968 375.196 440.201 375.756 439.382 375.628L439.846 372.664ZM425.962 373.151C425.151 372.978 424.635 372.181 424.807 371.371C424.98 370.561 425.777 370.044 426.587 370.217L425.962 373.151ZM413.485 367.039C414.284 367.257 414.755 368.081 414.537 368.881C414.319 369.68 413.494 370.151 412.695 369.933L413.485 367.039ZM399.633 365.951C398.848 365.686 398.427 364.835 398.692 364.05C398.958 363.265 399.809 362.844 400.594 363.109L399.633 365.951ZM387.981 358.392C388.747 358.708 389.112 359.585 388.797 360.351C388.481 361.117 387.604 361.482 386.838 361.166L387.981 358.392ZM374.392 355.518C373.651 355.148 373.35 354.247 373.719 353.506C374.089 352.765 374.99 352.464 375.731 352.833L374.392 355.518ZM363.957 346.36C364.665 346.789 364.892 347.712 364.463 348.42C364.034 349.129 363.111 349.355 362.403 348.926L363.957 346.36ZM350.736 341.142C350.065 340.656 349.914 339.718 350.4 339.047C350.886 338.376 351.824 338.226 352.495 338.712L350.736 341.142ZM341.288 329.99C341.924 330.52 342.01 331.466 341.479 332.102C340.949 332.739 340.003 332.824 339.367 332.294L341.288 329.99ZM328.607 322.723C328.006 322.154 327.98 321.204 328.549 320.603C329.119 320.001 330.068 319.975 330.67 320.545L328.607 322.723ZM320.641 310.467C321.208 311.071 321.178 312.021 320.574 312.588C319.97 313.155 319.021 313.125 318.454 312.521L320.641 310.467ZM308.902 301.76C308.37 301.126 308.452 300.18 309.087 299.647C309.721 299.114 310.667 299.197 311.2 299.831L308.902 301.76ZM302.348 288.697C302.846 289.359 302.714 290.299 302.052 290.798C301.39 291.296 300.45 291.163 299.951 290.501L302.348 288.697ZM291.603 278.793C291.139 278.107 291.32 277.174 292.007 276.711C292.693 276.247 293.626 276.428 294.089 277.115L291.603 278.793ZM286.431 265.126C286.859 265.835 286.632 266.758 285.922 267.186C285.213 267.614 284.291 267.386 283.863 266.677L286.431 265.126ZM276.744 254.187C276.352 253.457 276.626 252.548 277.356 252.156C278.086 251.764 278.995 252.038 279.387 252.768L276.744 254.187ZM272.976 240.069C273.33 240.818 273.011 241.712 272.262 242.067C271.513 242.421 270.619 242.101 270.264 241.353L272.976 240.069ZM264.449 228.201C264.134 227.435 264.5 226.558 265.266 226.243C266.032 225.928 266.909 226.293 267.224 227.06L264.449 228.201ZM262.165 213.767C262.439 214.549 262.027 215.404 261.245 215.678C260.463 215.952 259.607 215.54 259.334 214.758L262.165 213.767ZM254.96 201.05C254.731 200.254 255.19 199.423 255.986 199.194C256.782 198.964 257.614 199.424 257.843 200.22L254.96 201.05ZM254.31 186.45C254.492 187.259 253.984 188.061 253.175 188.243C252.367 188.425 251.565 187.917 251.383 187.109L254.31 186.45ZM248.667 172.968C248.537 172.149 249.095 171.381 249.913 171.251C250.731 171.121 251.5 171.679 251.63 172.497L248.667 172.968ZM249.877 158.405C249.95 159.23 249.341 159.959 248.516 160.033C247.691 160.106 246.962 159.497 246.889 158.672L249.877 158.405ZM246.138 144.279C246.126 143.451 246.788 142.77 247.616 142.758C248.444 142.746 249.125 143.408 249.137 144.236L246.138 144.279ZM249.506 130.067C249.45 130.894 248.735 131.518 247.908 131.463C247.082 131.407 246.457 130.691 246.513 129.865L249.506 130.067ZM248.119 115.528C248.249 114.71 249.017 114.152 249.836 114.281C250.654 114.411 251.212 115.179 251.083 115.997L248.119 115.528ZM253.965 102.151C253.756 102.953 252.937 103.433 252.135 103.225C251.333 103.016 250.853 102.197 251.062 101.395L253.965 102.151ZM255.43 87.617C255.723 86.8418 256.588 86.4504 257.363 86.7426C258.138 87.0349 258.53 87.9002 258.238 88.6754L255.43 87.617ZM263.948 75.7593C263.571 76.4968 262.667 76.7887 261.929 76.4113C261.192 76.034 260.9 75.1302 261.277 74.3927L263.948 75.7593ZM268.6 61.9251C269.061 61.2365 269.992 61.0517 270.681 61.5124C271.369 61.973 271.554 62.9046 271.094 63.5932L268.6 61.9251ZM279.614 52.3489C279.076 52.9786 278.129 53.0528 277.499 52.5146C276.87 51.9764 276.795 51.0295 277.334 50.3998L279.614 52.3489ZM287.349 39.9675C287.956 39.4036 288.905 39.4385 289.469 40.0454C290.033 40.6523 289.998 41.6014 289.391 42.1653L287.349 39.9675ZM300.257 33.1316C299.592 33.6261 298.653 33.4883 298.158 32.8236C297.664 32.159 297.801 31.2193 298.466 30.7248L300.257 33.1316ZM310.479 22.7055C311.19 22.2803 312.111 22.512 312.537 23.223C312.962 23.934 312.73 24.855 312.019 25.2802L310.479 22.7055ZM324.485 18.5902C323.739 18.9488 322.843 18.6342 322.484 17.8874C322.125 17.1406 322.44 16.2445 323.187 15.8859L324.485 18.5902ZM336.412 10.1986C337.186 9.90209 338.053 10.2888 338.35 11.0623C338.647 11.8359 338.26 12.7033 337.486 12.9998L336.412 10.1986ZM350.889 8.42311C350.096 8.66278 349.259 8.21423 349.02 7.42123C348.78 6.62823 349.228 5.79108 350.021 5.55141L350.889 8.42311ZM1182.12 468.091C1179.89 467.391 1177.66 466.696 1175.42 466.006L1176.3 463.139C1178.55 463.83 1180.79 464.527 1183.02 465.229L1182.12 468.091ZM1161.89 461.93C1157.39 460.603 1152.86 459.295 1148.31 458.007L1149.12 455.121C1153.69 456.411 1158.23 457.722 1162.74 459.052L1161.89 461.93ZM1134.69 454.234C1130.16 453.003 1125.6 451.789 1121.02 450.593L1121.78 447.69C1126.37 448.889 1130.93 450.105 1135.48 451.339L1134.69 454.234ZM1107.34 447.085C1102.78 445.936 1098.2 444.805 1093.6 443.689L1094.31 440.774C1098.91 441.891 1103.5 443.025 1108.07 444.175L1107.34 447.085ZM1079.86 440.412C1075.27 439.337 1070.67 438.278 1066.06 437.232L1066.73 434.307C1071.34 435.353 1075.95 436.415 1080.54 437.491L1079.86 440.412ZM1052.28 434.157C1047.67 433.147 1043.06 432.15 1038.44 431.167L1039.06 428.233C1043.69 429.217 1048.31 430.215 1052.92 431.227L1052.28 434.157ZM1024.61 428.267C1019.99 427.314 1015.37 426.372 1010.74 425.443L1011.33 422.502C1015.97 423.432 1020.59 424.375 1025.22 425.329L1024.61 428.267ZM996.873 422.695C992.247 421.79 987.618 420.897 982.989 420.015L983.55 417.068C988.184 417.951 992.817 418.845 997.449 419.751L996.873 422.695ZM969.081 417.397C964.445 416.534 959.81 415.682 955.178 414.84L955.715 411.888C960.35 412.731 964.989 413.584 969.629 414.447L969.081 417.397ZM941.244 412.332C936.598 411.505 931.957 410.687 927.323 409.878L927.839 406.922C932.476 407.732 937.12 408.551 941.77 409.379L941.244 412.332ZM913.373 407.463C908.716 406.664 904.068 405.874 899.432 405.091L899.931 402.133C904.57 402.916 909.22 403.707 913.88 404.507L913.373 407.463ZM885.474 402.752C880.807 401.975 876.153 401.205 871.515 400.443L872.002 397.482C876.642 398.245 881.297 399.015 885.967 399.792L885.474 402.752ZM857.555 398.159C852.878 397.398 848.219 396.643 843.579 395.893L844.058 392.932C848.698 393.681 853.359 394.436 858.037 395.198L857.555 398.159ZM829.621 393.645C824.934 392.892 820.271 392.145 815.633 391.402L816.108 388.44C820.746 389.183 825.409 389.93 830.097 390.683L829.621 393.645ZM801.675 389.167C796.982 388.416 792.318 387.668 787.685 386.924L788.161 383.962C792.793 384.706 797.456 385.453 802.149 386.205L801.675 389.167ZM773.722 384.676C769.027 383.918 764.367 383.162 759.746 382.409L760.229 379.448C764.848 380.201 769.506 380.956 774.201 381.715L773.722 384.676ZM745.769 380.116C741.079 379.342 736.432 378.569 731.833 377.796L732.33 374.837C736.926 375.609 741.57 376.382 746.258 377.156L745.769 380.116ZM717.829 375.419C713.156 374.617 708.537 373.815 703.975 373.011L704.495 370.057C709.052 370.86 713.667 371.661 718.337 372.462L717.829 375.419ZM689.93 370.499C685.245 369.648 680.628 368.793 676.082 367.935L676.639 364.988C681.177 365.844 685.788 366.697 690.467 367.548L689.93 370.499ZM662.128 365.245C657.399 364.312 652.758 363.373 648.209 362.428L648.82 359.491C653.358 360.434 657.989 361.37 662.708 362.301L662.128 365.245ZM634.482 359.49C629.724 358.44 625.082 357.38 620.562 356.308L621.254 353.389C625.758 354.457 630.384 355.514 635.128 356.561L634.482 359.49ZM606.75 352.893C602.039 351.676 597.486 350.443 593.098 349.189L593.921 346.305C598.282 347.55 602.811 348.777 607.5 349.988L606.75 352.893ZM579.594 345.097C574.889 343.579 570.421 342.029 566.204 340.444L567.26 337.636C571.426 339.202 575.849 340.736 580.515 342.242L579.594 345.097ZM553.041 334.997C548.334 332.837 544.065 330.605 540.271 328.292L541.832 325.73C545.508 327.971 549.67 330.149 554.293 332.271L553.041 334.997ZM528.669 319.55C524.78 315.779 521.991 311.753 520.489 307.436L523.322 306.45C524.633 310.219 527.113 313.862 530.757 317.396L528.669 319.55ZM520.32 292.671C520.995 290.41 521.98 288.111 523.274 285.774L525.899 287.226C524.695 289.4 523.801 291.5 523.195 293.53L520.32 292.671ZM523.274 285.774C524.647 283.294 526.477 281.356 528.645 279.936L530.289 282.445C528.533 283.596 527.037 285.17 525.899 287.226L523.274 285.774ZM543.704 277.241C548.377 277.909 553.253 279.675 557.846 282.321L556.349 284.92C552.038 282.437 547.523 280.818 543.279 280.211L543.704 277.241ZM569.481 291.74C572.797 295.437 575.563 299.728 577.412 304.483L574.616 305.571C572.912 301.188 570.35 297.202 567.248 293.744L569.481 291.74ZM579.876 319.335C579.662 324.023 578.531 328.92 576.283 333.939L573.545 332.713C575.646 328.021 576.683 323.492 576.879 319.198L579.876 319.335ZM568.362 346.526C566.86 348.365 565.197 350.209 563.364 352.057L561.234 349.943C563.003 348.161 564.601 346.388 566.038 344.628L568.362 346.526ZM563.364 352.057C561.756 353.677 560.029 355.219 558.192 356.683L556.322 354.338C558.073 352.941 559.713 351.477 561.234 349.943L563.364 352.057ZM546.587 364.211C542.664 366.287 538.449 368.132 533.99 369.749L532.967 366.928C537.31 365.354 541.396 363.564 545.184 361.559L546.587 364.211ZM520.855 373.697C516.528 374.757 512.04 375.643 507.422 376.357L506.964 373.392C511.502 372.691 515.904 371.821 520.141 370.783L520.855 373.697ZM493.838 377.934C489.366 378.291 484.807 378.503 480.189 378.571L480.144 375.571C484.701 375.504 489.194 375.295 493.599 374.943L493.838 377.934ZM466.533 378.362C462.021 378.161 457.475 377.83 452.917 377.369L453.218 374.385C457.721 374.839 462.211 375.167 466.667 375.365L466.533 378.362ZM439.382 375.628C434.893 374.925 430.413 374.099 425.962 373.151L426.587 370.217C430.984 371.154 435.411 371.97 439.846 372.664L439.382 375.628ZM412.695 369.933C408.283 368.729 403.922 367.402 399.633 365.951L400.594 363.109C404.825 364.54 409.129 365.85 413.485 367.039L412.695 369.933ZM386.838 361.166C382.583 359.413 378.426 357.53 374.392 355.518L375.731 352.833C379.697 354.812 383.789 356.665 387.981 358.392L386.838 361.166ZM362.403 348.926C360.435 347.735 358.508 346.508 356.625 345.246L358.295 342.754C360.139 343.989 362.027 345.192 363.957 346.36L362.403 348.926ZM356.625 345.246C354.646 343.921 352.683 342.552 350.736 341.142L352.495 338.712C354.413 340.101 356.347 341.449 358.295 342.754L356.625 345.246ZM339.367 332.294C335.709 329.244 332.12 326.049 328.607 322.723L330.67 320.545C334.138 323.829 337.68 326.981 341.288 329.99L339.367 332.294ZM318.454 312.521C315.189 309.044 312.003 305.453 308.902 301.76L311.2 299.831C314.265 303.483 317.415 307.032 320.641 310.467L318.454 312.521ZM299.951 290.501C297.077 286.683 294.292 282.777 291.603 278.793L294.089 277.115C296.75 281.056 299.505 284.921 302.348 288.697L299.951 290.501ZM283.863 266.677C281.387 262.577 279.012 258.41 276.744 254.187L279.387 252.768C281.631 256.946 283.981 261.069 286.431 265.126L283.863 266.677ZM270.264 241.353C268.209 237.011 266.269 232.624 264.449 228.201L267.224 227.06C269.023 231.434 270.943 235.774 272.976 240.069L270.264 241.353ZM259.334 214.758C257.742 210.211 256.282 205.638 254.96 201.05L257.843 200.22C259.149 204.752 260.592 209.272 262.165 213.767L259.334 214.758ZM251.383 187.109C250.323 182.395 249.415 177.678 248.667 172.968L251.63 172.497C252.368 177.142 253.264 181.797 254.31 186.45L251.383 187.109ZM246.889 158.672C246.459 153.85 246.206 149.048 246.138 144.279L249.137 144.236C249.204 148.928 249.453 153.655 249.877 158.405L246.889 158.672ZM246.513 129.865C246.839 125.032 247.372 120.249 248.119 115.528L251.083 115.997C250.35 120.626 249.827 125.32 249.506 130.067L246.513 129.865ZM251.062 101.395C252.28 96.7158 253.733 92.118 255.43 87.617L258.238 88.6754C256.579 93.0742 255.158 97.571 253.965 102.151L251.062 101.395ZM261.277 74.3927C263.464 70.1197 265.902 65.9587 268.6 61.9251L271.094 63.5932C268.461 67.5281 266.082 71.5883 263.948 75.7593L261.277 74.3927ZM277.334 50.3998C280.422 46.7859 283.758 43.3041 287.349 39.9675L289.391 42.1653C285.884 45.4239 282.628 48.8227 279.614 52.3489L277.334 50.3998ZM298.466 30.7248C302.245 27.9129 306.247 25.2364 310.479 22.7055L312.019 25.2802C307.872 27.7605 303.953 30.3811 300.257 33.1316L298.466 30.7248ZM323.187 15.8859C327.403 13.8612 331.81 11.963 336.412 10.1986L337.486 12.9998C332.958 14.7359 328.626 16.602 324.485 18.5902L323.187 15.8859ZM350.021 5.55141C352.329 4.85386 354.68 4.18658 357.074 3.55032L357.845 6.44968C355.483 7.07743 353.164 7.7355 350.889 8.42311L350.021 5.55141Z" fill="#E3E3E3"/>
  <path d="M1366.72 547.978C1367.53 546.509 1367.12 544.962 1366.89 543.49C1366.24 539.386 1364.2 535.86 1362.15 532.342C1360.93 530.269 1359.79 528.158 1358.58 526.078C1358.24 525.473 1358.28 525.131 1359.05 524.932C1359.61 524.802 1360.14 524.609 1360.65 524.356C1360.91 524.25 1361.13 524.094 1361.32 523.899C1361.51 523.703 1361.66 523.471 1361.76 523.217C1361.87 522.963 1361.91 522.691 1361.91 522.418C1361.9 522.145 1361.84 521.875 1361.73 521.625C1358.49 514.304 1351.97 506.942 1342.02 506.853C1341.58 506.847 1341.15 506.869 1340.71 506.883C1340.44 506.872 1340.18 506.96 1339.98 507.131C1339.78 507.302 1339.65 507.543 1339.61 507.806C1339.58 507.934 1339.57 508.068 1339.59 508.199C1339.6 508.33 1339.65 508.457 1339.72 508.571C1339.78 508.685 1339.87 508.785 1339.98 508.864C1340.08 508.943 1340.2 509.001 1340.33 509.033C1341.84 509.598 1343.39 510.098 1344.84 510.734C1349.36 512.504 1353.21 515.646 1355.86 519.718C1356.82 521.216 1356.83 521.209 1355.3 521.954C1353.52 522.855 1353.22 523.777 1353.88 525.683C1355.19 529.238 1357.27 532.374 1359.08 535.661C1360.47 538.185 1361.95 540.68 1362.46 543.741C1360.61 543.405 1358.85 542.725 1357.25 541.737C1353.9 539.631 1351.15 536.698 1349.26 533.221C1348.65 532.166 1348.11 531.066 1347.49 530.015C1347.31 529.626 1347.01 529.303 1346.63 529.093C1346.26 528.883 1345.83 528.797 1345.4 528.846C1344.95 528.925 1344.52 529.151 1344.2 529.488C1343.88 529.826 1343.68 530.258 1343.63 530.721C1342.81 534.042 1342.61 537.487 1343.04 540.882C1343.19 542.09 1342.85 542.138 1341.89 541.723C1339.67 540.665 1337.77 539.037 1336.38 537.005C1336.09 536.621 1335.83 536.219 1335.54 535.826C1335.42 535.614 1335.26 535.427 1335.07 535.277C1334.88 535.127 1334.66 535.015 1334.43 534.95C1334.2 534.885 1333.95 534.866 1333.71 534.896C1333.47 534.926 1333.24 535.003 1333.03 535.123C1332.78 535.231 1332.56 535.386 1332.38 535.58C1332.2 535.774 1332.06 536.002 1331.97 536.252C1331.87 536.501 1331.83 536.767 1331.84 537.033C1331.85 537.299 1331.92 537.56 1332.03 537.8C1334.44 542.937 1339.15 546.793 1345.51 546.844C1347.26 546.852 1348.1 545.762 1347.82 543.976C1347.5 541.831 1346.98 539.703 1347.19 537.279C1347.74 537.999 1348.15 538.513 1348.57 539.048C1352.26 543.849 1357.57 547.141 1363.51 548.308C1364.02 548.417 1364.55 548.543 1365.03 548.685L1366.72 547.978Z" fill="#E3E3E3"/>
  <path d="M1304.14 483.456C1302.87 483.894 1301.65 484.468 1300.51 485.167C1299.99 485.383 1299.53 485.576 1299.11 485.013C1296.1 481.069 1291.77 479.038 1287.44 477.023C1277.81 472.51 1267.91 468.89 1257.39 467.173C1243.37 464.889 1229.33 464.073 1215.29 466.944C1210.97 467.809 1206.75 469.136 1202.71 470.903C1201.75 471.305 1201.03 471.893 1201.03 473.004C1201 473.536 1201.16 474.062 1201.47 474.495C1201.78 474.928 1202.23 475.242 1202.74 475.385C1203.27 475.59 1203.71 475.979 1203.98 476.481C1209.34 485.249 1215.62 493.419 1222.71 500.854C1232.6 511.062 1243.88 519.251 1257.26 524.29C1266.37 527.723 1276.06 529.366 1285.79 529.129C1287.89 529.086 1287.53 528.921 1287.77 530.9C1288.22 534.237 1289.39 537.421 1290.25 540.668C1290.76 542.61 1291.46 544.495 1292.08 546.409C1292.21 546.779 1292.26 547.172 1292.23 547.562C1292.08 549.256 1292.4 549.713 1294.02 550.228C1296.05 550.775 1298.14 551.071 1300.24 551.11C1303.07 551.268 1305.89 551.677 1308.65 552.332C1310.63 552.947 1312.73 553.024 1314.74 552.554L1314.87 552.503C1317.82 552.168 1317.8 552.167 1317.83 549.067C1317.89 543.79 1317.44 538.585 1315.56 533.597C1315.26 532.878 1315.5 532.674 1316.21 532.651C1325.54 532.275 1333.42 523.374 1333.84 514.678C1334.09 509.586 1332.48 505.465 1327.6 503.153C1326.34 502.55 1327.28 502.174 1327.72 501.838C1332.03 498.532 1336.38 495.231 1340.77 491.935C1342.58 490.561 1342.64 489.587 1340.94 487.981C1337.58 484.985 1333.9 482.361 1329.97 480.155C1328.75 479.382 1327.37 478.878 1325.94 478.673C1324.5 478.469 1323.04 478.57 1321.65 478.969C1316.41 480.281 1311.02 481.018 1305.87 482.732C1305.16 482.952 1304.49 483.307 1304.14 483.456ZM1319.4 483.644C1320.4 483.224 1321.45 482.871 1322.42 482.379C1322.88 482.086 1323.42 481.944 1323.96 481.972C1324.5 481.999 1325.03 482.195 1325.45 482.532C1329.49 485.144 1333.4 487.928 1337.81 489.949C1338.63 490.326 1338.68 490.664 1337.84 491.152C1334.72 492.919 1331.7 494.84 1328.77 496.915C1326.58 498.471 1324.43 500.148 1322.32 501.914C1322.01 502.119 1321.77 502.432 1321.67 502.795C1321.56 503.159 1321.6 503.548 1321.76 503.89C1321.87 504.204 1322.09 504.465 1322.39 504.623C1322.68 504.78 1323.02 504.823 1323.35 504.744C1323.54 504.697 1323.73 504.693 1323.92 504.731C1324.12 504.769 1324.3 504.848 1324.45 504.963C1327.45 507.101 1329.45 509.784 1329.56 513.643C1329.71 519.276 1324.26 527.865 1315.86 528.544C1312.64 528.802 1311.61 530.323 1312.51 533.415C1312.64 533.738 1312.69 534.099 1312.77 534.437C1313.6 538.711 1313.6 543.042 1313.94 547.352C1314.19 550.553 1313.98 550.814 1310.93 549.623C1306.37 547.803 1301.56 546.72 1296.66 546.416C1295.39 546.342 1294.98 545.942 1294.83 544.695C1294.29 539.652 1293.46 534.644 1292.35 529.693C1291.58 526.418 1291.28 526.288 1288.08 525.958C1280.2 525.247 1272.38 523.926 1264.7 522.008C1256.29 519.835 1248.24 516.682 1241.16 511.454C1228.53 502.077 1217.78 490.411 1209.46 477.062C1207.7 474.258 1207.74 474.241 1210.61 473.398C1221.04 470.389 1231.92 469.22 1242.75 469.941C1262.01 471.072 1280.66 477.126 1296.92 487.524C1297.27 487.691 1297.58 487.939 1297.82 488.249C1298.48 489.436 1299.43 489.472 1300.63 489.286C1307.07 488.089 1313.37 486.187 1319.4 483.616L1319.4 483.644Z" fill="#E3E3E3"/>
  <path d="M1252.7 497.408C1256.73 495.717 1258.64 492.194 1257.79 487.876C1256.94 483.559 1254.82 480.373 1250.59 478.91C1249.83 478.627 1249.01 478.508 1248.2 478.559C1247.39 478.611 1246.6 478.832 1245.88 479.21C1244.96 479.689 1243.92 479.651 1243.01 480.092C1239.27 481.902 1237.71 485.569 1238.84 490.193C1240.19 495.604 1246.59 500.158 1252.7 497.408ZM1243.36 489.574C1242.07 486.503 1242.52 485.175 1245.47 483.635C1245.9 483.422 1246.3 483.153 1246.66 482.835C1246.87 482.618 1247.15 482.476 1247.45 482.43C1247.76 482.384 1248.07 482.436 1248.34 482.579C1249.58 483.015 1250.7 483.746 1251.6 484.709C1252.49 485.672 1253.15 486.839 1253.5 488.109C1253.7 488.689 1253.77 489.306 1253.7 489.916C1253.64 490.527 1253.44 491.116 1253.13 491.642C1252.81 492.168 1252.39 492.618 1251.88 492.961C1251.37 493.304 1250.79 493.531 1250.19 493.627C1247.27 494.165 1244.64 492.606 1243.34 489.542L1243.36 489.574Z" fill="#E3E3E3"/>
</svg>
